<?xml version="1.0" encoding="UTF-8"?>
<svg width="152px" height="230px" viewBox="0 0 152 230" version="1.1" xmlns="http://www.w3.org/2000/svg" xmlns:xlink="http://www.w3.org/1999/xlink">
    <!-- Generator: Sketch 61.1 (89650) - https://sketch.com -->
    <title>2</title>
    <desc>Created with Sketch.</desc>
    <g id="Page-1" stroke="none" stroke-width="1" fill="none" fill-rule="evenodd">
        <g id="2" fill="#000000" fill-rule="nonzero">
            <path d="M150.47,70.91 C150.47,74.84 149.21,78.13 145.47,80 C142.919143,81.3412284 139.859516,81.2846385 137.36,79.85 C128.48,75.28 119.52,70.85 110.59,66.4 C106.69,64.4 106.59,64.4 105.65,68.84 C102.53,84.32 99.82,99.89 96.35,115.29 C94.79,122.21 96.1,126.85 101.69,131.66 C112.15,140.66 121.8,150.58 131.69,160.21 C137.69,166.02 137.93,169.13 133.95,176.54 C128.29,187.09 122.78,197.73 117.11,208.28 C115.74,210.83 115.27,212.62 117.64,215.22 C119.673699,217.406518 120.377893,220.516079 119.484624,223.365441 C118.591355,226.214803 116.237981,228.365823 113.32,229 C108.763291,229.940628 104.090961,230.190089 99.46,229.74 C93.16,229.14 90.19,223.02 92.88,216.93 C94.62,212.93 96.77,209.21 98.78,205.38 C104.26,194.92 109.7,184.43 115.32,174.05 C116.64,171.6 116.62,170.05 114.46,168.05 C107.85,161.98 101.46,155.67 94.91,149.51 C94.0354302,148.868648 93.0848783,148.337951 92.08,147.93 C91.7645886,148.836989 91.5172364,149.766231 91.34,150.71 C89.68,162.903333 88.0433333,175.093333 86.43,187.28 C85.43,194.75 81.64,197.87 74.2,196.95 C57.4,194.863333 40.58,192.706667 23.74,190.48 C21.4447752,189.980646 19.0544837,190.703028 17.42,192.39 C16.0168488,193.809366 14.4212569,195.024574 12.68,196 C9.18116583,197.916191 4.82017891,197.138038 2.2,194.13 C-0.31,191.39 -0.93,186.46 1.69,183.54 C4.99508466,179.811148 8.7007526,176.457602 12.74,173.54 C14.53,172.26 17.54,172.02 19.88,172.28 C34.26,173.88 48.61,175.77 62.96,177.56 C63.62,177.64 64.27,177.8 64.96,177.88 C69.47,178.43 69.78,178.2 70.36,173.88 C74.16,145.55 77.77,117.2 83.23,89.13 C84.94,80.33 87.05,71.59 88.96,62.83 C90,58 90,57.9 85.45,56.59 C79.69,54.9366667 73.9066667,53.3666667 68.1,51.88 C64.9,51.06 64.28,51.42 63.94,54.83 C63.53,58.96 63.57,63.13 63.32,67.28 C63.2768382,69.2705549 63.0084626,71.2498249 62.52,73.18 C61.4664355,76.8274857 58.0747899,79.2971305 54.28,79.18 C50.4863066,79.2012097 47.1389741,76.7029566 46.08,73.06 C45.6610273,71.796588 45.4614774,70.4707646 45.49,69.14 C45.93,59.35 46.36,49.55 47.02,39.77 C47.48,32.89 51.87,29.58 58.6,31.15 C66.69,33.04 74.7,35.3 82.75,37.4 C83.55,37.61 84.34,37.89 85.15,38.08 C89.37,39.08 89.28,39.08 88.15,34.81 C85.24,23.67 87.72,14.05 96.57,6.42 C104.85,-0.68 114.27,-1.48 124.2,2 C129.57,3.88 133.46,7.83 136.61,12.43 C137.85,14.23 138.92,15.11 141.38,14.97 C147.19,14.64 150.69,18.1 150.98,23.97 C151.15,27.62 150.98,31.29 150.98,34.97 M132.82,46.53 C130.87,47.91 129.57,48.88 128.21,49.77 C126.85,50.66 125.21,51.62 123.37,52.77 C123.855674,53.2081405 124.381301,53.5998497 124.94,53.94 C127.33,54.94 129.75,55.94 132.16,56.89 C132.47,54.36 132.82,51.89 133.08,49.3 C133.069431,48.3710996 132.982471,47.4446425 132.82,46.53 Z" id="Shape"></path>
        </g>
    </g>
</svg>