<?xml version="1.0" encoding="UTF-8"?>
<svg width="124px" height="245px" viewBox="0 0 124 245" version="1.1" xmlns="http://www.w3.org/2000/svg" xmlns:xlink="http://www.w3.org/1999/xlink">
    <!-- Generator: Sketch 61.1 (89650) - https://sketch.com -->
    <title>3</title>
    <desc>Created with Sketch.</desc>
    <g id="Page-1" stroke="none" stroke-width="1" fill="none" fill-rule="evenodd">
        <g id="3" transform="translate(-0.397132, 0.000000)" fill="#000000" fill-rule="nonzero">
            <path d="M45.78,196.35 C37.69,197.75 30.63,198.79 23.67,200.35 C21.98,200.71 20.52,202.52 19.13,203.86 C17.36,205.57 16.02,207.86 14.05,209.2 C10.59,211.55 7,211 4,208.23 C1,205.46 3.55271368e-15,201.51 2,198.28 C4.38487079,194.097414 7.21462192,190.184713 10.44,186.61 C12.21,184.75 15.31,183.75 17.98,183.22 C27.98,181.22 37.98,179.62 47.98,177.88 C52.59,177.07 52.86,176.88 52.76,172.07 C52.44,157.28 51.57,142.48 51.82,127.69 C51.97,119.12 53.82,110.58 54.98,102.03 C55.58,97.7 55.68,97.73 51.54,95.8 C49.43,94.8 47.32,93.8 45.25,92.8 C38.99,89.56 37.54,84.05 41.61,78.36 C48.21,69 55,59.74 61.76,50.46 C63.8124228,47.4316804 66.0151803,44.5080205 68.36,41.7 C70.041454,40.0708145 70.5462773,37.5745229 69.63,35.42 C67.67243,29.5217265 67.8279891,23.1261278 70.07,17.33 C74.62,5.45 87.52,-1.89 99.71,0.43 C112.83,2.93 122.54,14.17 122.34,27.08 C122.318762,35.0265943 118.788902,42.558111 112.695216,47.6586802 C106.601531,52.7592494 98.5662205,54.9080725 90.74,53.53 C84.51,52.34 84.48,52.43 84.49,58.95 C84.49,64.95 84.6,70.95 84.58,76.95 C84.58,79.07 85.34,79.6 87.31,78.77 C94.2,75.84 101.11,72.97 108.02,70.08 C109.24,69.57 110.47,69.02 111.73,68.62 C116.182819,67.0423685 121.089147,69.2444905 122.87,73.62 C123.794076,75.6153353 123.875894,77.898687 123.096999,79.9550436 C122.318105,82.0114002 120.744099,83.667569 118.73,84.55 C112.59,87.55 106.24,90.04 99.98,92.74 C99.22,93.07 98.43,93.35 97.66,93.67 C92.6,95.81 92.6,95.81 92.8,101.25 C93.03,107.54 87.5,111.72 81.31,109.79 C79.274993,109.05145 77.2964338,108.165777 75.39,107.14 C73.53,106.23 72.23,106.29 71.81,108.71 C70.41,116.71 69.07,124.42 71.81,132.71 C76.53,147.24 80.09,162.16 84.09,176.93 C86.33,185.2 83.97,189.74 75.47,190.8 C68.69,191.65 65.47,194.97 63.16,200.96 C60.32,208.41 56.71,215.56 53.3,222.78 C51.98,225.59 51.55,227.78 54.51,230.06 C57.47,232.34 57.51,235.85 56.37,239.23 C55.3413695,242.350099 52.482829,244.502975 49.2,244.63 C45.052957,245.030013 40.877043,245.030013 36.73,244.63 C30.62,243.97 27.43,236.99 29.73,232.28 C34.32,222.68 38.56,212.92 42.93,203.21 C43.74,201.23 44.54,199.25 45.78,196.35 Z" id="Path"></path>
        </g>
    </g>
</svg>