<?xml version="1.0" encoding="UTF-8"?>
<svg width="20px" height="50px" viewBox="0 0 136 252" version="1.1" xmlns="http://www.w3.org/2000/svg" xmlns:xlink="http://www.w3.org/1999/xlink">
	<!-- Generator: Sketch 61.1 (89650) - https://sketch.com -->
	<title>
		4
	</title>
	<desc>
		Created with Sketch.
	</desc>
	<g id="Page-1" stroke="none" stroke-width="1" fill="none" fill-rule="evenodd">
		<g id="4" transform="translate(0.205736, 0.000000)" fill="#000000" fill-rule="nonzero">
			<path d="M80.44,77 C78.65,86.27 76.82,95.54 75.09,104.83 C74.09,110.22 73.36,115.66 72.28,121.04 C71.6157462,123.820832 72.2241781,126.753034 73.94,129.04 C83.18,142.27 92.29,155.59 101.46,168.88 C102.02,169.71 102.59,170.53 103.19,171.33 C106.26,175.44 106.28,179.47 103.33,183.75 C96.72,193.33 90.25,203.02 83.73,212.67 C80.73,217.08 77.89,221.59 74.73,225.89 C73.064728,227.819382 72.8000704,230.590266 74.07,232.8 C74.6828156,233.984411 75.1656276,235.231675 75.51,236.52 C76.596643,240.715111 74.47836,245.078774 70.51,246.82 C66.86,248.48 62.01,247.36 60.01,243.64 C57.7334346,239.205693 55.7946009,234.605978 54.21,229.88 C53.21,227 54.68,224.33 56.29,221.94 C64.65,209.44 73,197 81.45,184.64 C86.18,177.74 86.33,177.81 81.59,170.95 C76.67,163.83 71.7233333,156.73 66.75,149.65 C66.21,148.88 65.55,148.19 64.49,146.92 C62.77,151.31 61.24,155.12 59.79,158.92 C56.55,167.47 53.55,176.13 50.06,184.58 C48.2500125,188.501401 46.1264504,192.270306 43.71,195.85 C36.34,207.73 28.76,219.48 21.54,231.45 C19.8,234.34 19.08,237.86 17.96,241.12 C17.21,243.3 16.96,245.7 15.85,247.69 C14.04,251.03 10.13,252.4 6.34,251.52 C2.83,250.74 0,247.9 0,244.14 C0,237.83 0.52,231.52 4,225.9 C13.09,211.37 22.27,196.9 31.13,182.22 C33.5615963,177.874639 35.6061465,173.323758 37.24,168.62 C42.38,155.27 47.34,141.84 52.35,128.44 C52.894517,127.044885 53.345515,125.615055 53.7,124.16 C54.3270112,122.21065 53.5428085,120.085048 51.8,119.01 C49.960242,117.607241 48.4541477,115.814272 47.39,113.76 C42.1,103.4 36.94,93 31.82,82.5 C29.15,77.06 30.58,72.59 36.06,68.77 C45.61,62.11 55.22,55.51 64.77,48.83 C66.66,47.51 69.25,46.26 69.9,44.41 C70.39,43.02 68.28,40.72 67.34,38.82 C62.0337985,27.7787102 64.760008,14.5529101 74,6.51 C82.44,-1.06 96.52,-2.3 106.09,4.23 C114.97,10.29 119.68,18.84 118.34,29.82 C116.89,41.82 110.08,49.49 98.51,52.82 C96.4065835,53.3611432 94.2680966,53.7554267 92.11,54 C90.76,54.2 89.68,54.63 90.53,56.19 C93.65,61.89 96.83,67.54 100.03,73.19 C100.96,74.82 101.85,74.06 102.67,72.99 C106.003333,68.63 109.336667,64.2733333 112.67,59.92 C115.21,56.62 117.55,53.15 120.33,50.07 C124.97,44.93 132.33,46.24 135.04,52.49 C136.64,56.17 135.34,59.28 133.04,62.21 C125.36,72.25 117.693333,82.3 110.04,92.36 C109.04,93.69 108.04,95.07 106.96,96.3 C102.17,101.58 95.7,101.1 91.96,94.99 C88.74,89.75 85.86,84.29 82.83,78.99 C82.43,78.28 82,77.6 81.58,76.9 L80.44,77 Z M63.25,72.59 L62.32,72 C59.08,74.26 55.78,76.43 52.65,78.82 C51.91,79.39 51.12,80.97 51.4,81.64 C53.2896087,86.6095364 55.6609046,91.3822718 58.48,95.89 C60.22,87.4 61.74,80 63.25,72.59 Z" id="Shape">
			</path>
		</g>
	</g>
</svg>
