<?xml version="1.0" encoding="UTF-8"?>
<svg width="169px" height="252px" viewBox="0 0 169 252" version="1.1" xmlns="http://www.w3.org/2000/svg" xmlns:xlink="http://www.w3.org/1999/xlink">
    <!-- Generator: Sketch 61.1 (89650) - https://sketch.com -->
    <title>5</title>
    <desc>Created with Sketch.</desc>
    <g id="Page-1" stroke="none" stroke-width="1" fill="none" fill-rule="evenodd">
        <g id="5" transform="translate(0.808604, 0.000000)" fill="#000000" fill-rule="nonzero">
            <path d="M95.32,68.56 C89.48,71.5 84.32,74.06 79.17,76.7 C76.6,78.02 77.34,80.4 77.71,82.46 C79.08,90.15 80.58,97.82 82.01,105.51 C82.2826822,106.8083 82.456514,108.12541 82.53,109.45 C82.65,114.45 79.77,117.99 75.23,118.64 C70.69,119.29 66.76,116.81 65.5,112.03 C64.5,108.33 63.91,104.54 63.18,100.79 C61.64,92.79 60.1233333,84.79 58.63,76.79 C57.43,70.31 58.9,67.24 64.82,64.25 C75.66,58.76 86.55,53.38 97.41,47.92 C101.34,45.92 101.27,45.92 98.8,42.52 C89,28.89 94,5.56 115,0.77 C125.17,-1.54 134.2,1.34 141.15,9.33 C148.41,17.67 149.59,27.33 145.6,37.33 C142,46.48 134.76,51.85 125,53.58 C124.18,53.73 123.34,53.72 122.51,53.8 C120.77,53.96 120.69,54.9 121.4,56.19 C121.56,56.48 121.72,56.77 121.9,57.06 C126.18,64 130.43,70.95 134.77,77.86 C136.44,80.52 136.77,80.54 138.37,77.86 C142,71.66 145.46,65.4 149,59.19 C149.828886,57.5613599 150.767724,55.9910601 151.81,54.49 C154.95,50.35 159.81,49.32 163.7,51.81 C167.59,54.3 168.86,59.21 166.55,63.72 C164.42,67.86 162.03,71.86 159.73,75.92 C154.97,84.31 150.29,92.76 145.39,101.07 C140.78,108.88 133.39,108.95 128.46,101.27 C123.73,93.83 119.18,86.27 114.53,78.78 C114.04,77.98 113.46,77.24 112.41,75.78 C111,82.06 109.68,87.51 108.65,93 C106.88,102.48 105.45,112 103.59,121.48 C102.87,125.1 103.75,127.75 106.09,130.54 C116.39,142.75 126.45,155.15 136.69,167.41 C139.48458,170.528029 140.901709,174.64239 140.62,178.82 C139.75,194.43 139.23,210.06 138.32,225.66 C138.05,230.33 139.05,233.66 143,236.75 C148.85,241.34 147.18,249.75 140.34,251.75 C138.44,252.3 136.17,251.6 134.08,251.43 C133.78,251.43 133.5,251.11 133.21,250.94 C121.65,244.2 119.7,240.38 120.52,227.11 C121.25,215.33 121.79,203.53 122.4,191.74 C122.49,190.08 122.4,190.74 122.65,186.74 C122.9,182.74 121.81,176.67 118.05,172.4 C111.12,164.54 104.66,156.27 97.95,148.21 C95.56,145.33 95.4,145.34 93.78,148.71 C88.31,160.12 82.78,171.51 77.55,183 C76.0809456,186.560885 73.2676692,189.399312 69.72,190.9 C54.89,197.29 40.15,203.9 25.29,210.2 C21.92,211.64 19.18,213.46 17.55,216.81 C17.0267978,217.850708 16.375037,218.821631 15.61,219.7 C12.53,223.38 8.49,224.14 4.46,221.87 C0.701109384,219.953082 -0.956594115,215.471626 0.65,211.57 C3.65,204.72 7.05,198.36 14.94,195.23 C29.64,189.41 43.99,182.74 58.53,176.52 C60.5468856,175.731598 62.1711893,174.179166 63.05,172.2 C70.05,157.31 77.4,142.54 84.16,127.52 C85.96,123.52 86.16,118.83 87.05,114.43 C89.7166667,100.723333 92.3233333,87.0033333 94.87,73.27 C95.11,72 95.12,70.74 95.32,68.56 Z" id="Path"></path>
        </g>
    </g>
</svg>