<?xml version="1.0" encoding="UTF-8"?>
<svg width="182px" height="249px" viewBox="0 0 182 249" version="1.1" xmlns="http://www.w3.org/2000/svg" xmlns:xlink="http://www.w3.org/1999/xlink">
    <!-- Generator: Sketch 61.1 (89650) - https://sketch.com -->
    <title>6</title>
    <desc>Created with Sketch.</desc>
    <g id="Page-1" stroke="none" stroke-width="1" fill="none" fill-rule="evenodd">
        <g id="6" transform="translate(0.411472, 0.000000)" fill="#000000" fill-rule="nonzero">
            <path d="M154,26.81 C154,38.81 147.51,48.05 136.05,52.37 C132.51,53.71 132.44,53.78 135.05,56.37 C139.11,60.3 143.27,64.14 147.42,67.99 C150.16,70.53 150.21,70.52 151.64,67.2 C155.64,57.87 159.64,48.55 163.57,39.2 C164.86,36.13 166.57,33.63 169.98,32.74 C176.68,30.99 182.36,36.74 180.6,43.57 C179.922386,45.797574 179.076621,47.9704856 178.07,50.07 C172.95,62.1833333 167.813333,74.28 162.66,86.36 C162.040671,87.9041307 161.266732,89.3816518 160.35,90.77 C159.171832,92.6243195 157.301945,93.9313726 155.155734,94.4007975 C153.009524,94.8702225 150.764718,94.4631459 148.92,93.27 C147.245011,92.1829893 145.683795,90.929996 144.26,89.53 C138.89,84.53 133.59,79.53 128.26,74.53 C125.02,71.53 124.68,71.53 123.87,75.7 C120.87,91.19 118.02,106.7 114.81,122.18 C113.81,127.18 114.62,131.39 116.95,135.94 C131.76,164.8 146.29,193.8 160.95,222.76 C162.72,226.27 162.72,226.27 166.46,225.18 C170.395006,223.832688 174.727703,225.523497 176.71,229.18 C178.71,232.66 178.41,237.02 175.11,239.61 C171.215678,242.720068 166.998079,245.402166 162.53,247.61 C158.05,249.77 154,247.82 151.46,242.84 C146.91,233.96 142.61,224.95 138.12,216.03 C127.5,194.93 116.833333,173.846667 106.12,152.78 C104.27,149.12 103.86,149.11 101.81,152.53 C96.36,161.61 91,170.8 85.56,180 C84.46,181.87 83.38,183.74 82.18,185.54 C79.63,189.38 76.18,190.82 71.49,190.1 C55.21,187.64 38.88,185.52 22.59,183.1 C20.13,182.73 18.44,183.16 16.94,185.1 C16.0140433,186.281033 14.9383463,187.336561 13.74,188.24 C10.7741635,190.270228 6.86583651,190.270228 3.9,188.24 C0.68,185.95 -0.95,182.09 0.58,178.62 C3.01369265,173.103947 7.09788877,168.478219 12.27,165.38 C14.16,164.24 17.14,164.38 19.53,164.67 C29.6,165.94 39.63,167.49 49.67,168.94 C55.1,169.73 60.54,170.48 65.96,171.37 C68.8,171.83 70.51,170.89 71.96,168.37 C79.57,155.28 87.39,142.31 95.07,129.26 C95.8060817,127.935412 96.3100238,126.494611 96.56,125 C100.24,106.08 103.84,87.14 107.56,68.21 C108.42,63.74 108.35,63.54 104,63.91 C98.2,64.4166667 92.4033333,64.9766667 86.61,65.59 C83.15,65.94 83.2,65.99 83.5,69.59 C84,76.41 84.64,83.2 85,90 C85.0732321,91.9741026 84.6467103,93.9347269 83.76,95.7 C81.9868393,98.8831741 78.286701,100.466011 74.76,99.55 C71.1785925,98.8378464 68.4552189,95.9130399 68,92.29 C67.33,88.2 67.1,84.04 66.7,79.9 C66.14,73.61 65.6,67.32 65,61 C64.24,53.6 67.32,49.54 74.76,48.8 C83.7,47.92 92.66,47.3 101.61,46.58 C102.107626,46.5868563 102.605209,46.56348 103.1,46.51 C104.37,46.26 105.62,45.94 106.87,45.64 C106.31,44.54 105.87,43.38 105.18,42.33 C99.47,33.33 98.67,23.87 103.56,14.33 C108.45,4.79 117,-0.07 127.49,-0.000745525584 C143.45,0.11 154.64,13.54 154,26.81 Z" id="Path"></path>
        </g>
    </g>
</svg>