<svg width="1280" height="640" xmlns="http://www.w3.org/2000/svg" preserveAspectRatio="xMidYMid meet">
 <metadata>Created by potrace 1.15, written by Peter Selinger 2001-2017</metadata>

 <g>
  <title>background</title>
  <rect fill="none" id="canvas_background" height="402" width="582" y="-1" x="-1"/>
 </g>
 <g>
  <title>Layer 1</title>
  <g id="svg_1" fill="#000000" transform="translate(0,640) scale(0.10000000149011612,-0.10000000149011612) ">
   <path id="svg_2" d="m11751.052401,1195.60728c-476,-34 -870,-63 -877,-63c-7,-1 -103,-89 -214,-196l-202,-195l-221,0c-122,0 -765,-4 -1431,-10c-665,-5 -1831,-14 -2590,-20c-759,-5 -2034,-15 -2834,-21c-988,-7 -1456,-8 -1463,-1c-6,6 -8,21 -4,35c3,13 85,135 182,271c96,136 174,249 172,251c-2,2 -118,-46 -258,-106c-354,-153 -574,-240 -779,-309c-380,-128 -713,-190 -1020,-190c-77,0 -151,-4 -165,-10c-35,-13 -34,-51 2,-91l29,-32l359,-38c700,-74 1022,-134 1320,-244c114,-42 282,-128 365,-187c56,-39 58,-39 84,-22c27,17 55,62 55,87c0,8 -52,81 -115,163c-63,82 -115,154 -115,160c0,19 227,23 1830,34c1451,10 2671,20 4995,40c633,5 1256,10 1385,10l235,0l275,-179l275,-179l838,-10c521,-6 854,-6 881,0c55,11 81,38 72,72c-9,38 -63,94 -115,121c-44,22 -349,162 -417,191l-31,13l19,57c22,64 19,106 -12,166l-19,37l239,160c134,90 241,169 245,180c11,34 -21,90 -59,106c-20,8 -39,14 -43,14c-4,-1 -397,-30 -873,-65zm515,-84c-8,-16 -24,-34 -35,-40c-26,-14 -26,-40 0,-40c16,0 18,-4 11,-22c-4,-12 -17,-27 -27,-32c-10,-6 -36,-21 -57,-34c-22,-13 -57,-30 -80,-38c-23,-8 -48,-21 -57,-28c-21,-19 -148,-45 -192,-39c-27,4 -47,-2 -82,-22l-46,-27l-30,24c-26,20 -29,27 -24,61c7,42 -7,48 -54,23c-113,-62 -169,-80 -257,-86c-73,-4 -96,-9 -121,-28c-22,-17 -50,-25 -95,-29l-64,-6l25,28c51,57 172,153 232,185c34,18 102,43 152,56c50,12 122,36 160,52c66,28 71,29 105,15c21,-9 52,-13 78,-10c24,2 43,2 42,-2c0,-3 -21,-19 -47,-36c-26,-16 -46,-34 -45,-40c1,-5 17,-14 35,-18c24,-6 64,0 149,22c114,28 135,37 269,107c36,18 66,34 68,34c1,0 -4,-13 -13,-30zm-906,-36c12,-10 -15,-37 -53,-54c-25,-10 -73,-47 -108,-82c-35,-35 -89,-76 -121,-92c-56,-28 -58,-28 -77,-11c-17,16 -24,16 -45,5c-19,-10 -30,-10 -55,0c-28,12 -39,9 -138,-33c-126,-53 -170,-63 -197,-44c-16,12 -17,16 -4,34c8,11 42,43 77,72c34,29 68,61 75,72c7,12 30,30 52,41c22,11 54,31 72,44c34,26 66,30 107,14c30,-11 34,-35 9,-49c-10,-5 -15,-13 -11,-17c4,-3 36,5 70,20c158,65 252,93 298,88c25,-2 47,-6 49,-8zm-9338,-31c-5,-10 -65,-75 -133,-144c-82,-84 -149,-141 -202,-175l-78,-49l116,-3c112,-3 115,-3 103,-22c-11,-19 -25,-20 -527,-20l-515,1l115,30c177,46 474,147 815,278c171,65 311,119 313,120c1,0 -2,-7 -7,-16zm8540,-349c10,-9 46,-27 81,-40l63,-23l-1177,0c-936,-1 -1178,2 -1178,12c0,6 -3,22 -6,35l-6,22l269,0c150,0 283,-4 299,-10c61,-20 289,-33 569,-30c245,2 295,5 325,19c29,13 82,17 295,21c143,3 302,7 354,8c75,2 98,-1 112,-14zm938,-5c15,-11 45,-26 67,-34c36,-13 24,-14 -152,-15c-105,0 -267,-2 -360,-5c-136,-4 -162,-2 -136,7c19,6 43,24 55,40l21,28l238,0c225,0 240,-1 267,-21zm551,-8c0,-36 -12,-41 -107,-41c-73,0 -75,1 -69,23c3,12 6,28 6,35c0,9 24,12 85,12l85,0l0,-29zm-6222,-18l-3,-28l-198,-3l-198,-2l17,24c17,27 0,26 307,34l78,2l-3,-27zm257,-3l-16,-30l-100,0c-88,0 -100,2 -95,16c3,9 6,22 6,30c0,11 22,14 110,14l111,0l-16,-30zm1065,5c0,-14 -6,-28 -12,-30c-7,-3 -238,-4 -513,-3l-500,3l120,26c117,26 129,26 513,28l392,1l0,-25zm610,-5l45,-30l-222,0l-223,0l0,30l0,30l178,0l177,0l45,-30zm-4005,-5l60,-24l-372,0c-325,-1 -373,1 -373,14c0,8 -10,16 -22,17c-31,3 301,13 492,15c142,2 160,0 215,-22zm129,-5l21,-22l-26,6c-15,3 -46,15 -70,26l-44,20l49,-4c33,-3 55,-11 70,-26zm62,15c11,-27 -1,-33 -19,-9c-16,21 -16,24 -2,24c9,0 18,-7 21,-15zm154,-10c0,-24 -3,-25 -55,-25c-52,0 -55,1 -55,25c0,24 3,25 55,25c52,0 55,-1 55,-25zm936,9c-3,-9 -6,-20 -6,-25c0,-5 -179,-9 -440,-9l-440,0l0,25l0,25l446,0c403,0 446,-2 440,-16zm321,-9c-12,-25 -13,-25 -144,-25l-133,0l0,25l0,25l144,0l144,0l-11,-25zm-3191,8c-3,-4 6,-12 21,-19c24,-10 0,-13 -150,-13c-175,-1 -177,-1 -165,19c12,18 24,20 157,20c79,0 141,-3 137,-7zm604,-10l75,-9l-126,-8c-170,-11 -474,5 -496,27c-9,10 445,1 547,-10zm134,8c6,-8 -153,-3 -163,5c-2,2 32,4 77,4c44,0 83,-4 86,-9zm79,2c-7,-2 -21,-2 -30,0c-10,3 -4,5 12,5c17,0 24,-2 18,-5zm4222,-23c3,-5 1,-10 -4,-10c-6,0 -11,5 -11,10c0,6 2,10 4,10c3,0 8,-4 11,-10zm-4887,-7c-10,-2 -26,-2 -35,0c-10,3 -2,5 17,5c19,0 27,-2 18,-5zm9712,-114c19,-11 39,-19 45,-19c5,-1 28,-16 50,-35c33,-28 38,-36 27,-47c-11,-11 -20,-9 -53,10c-39,23 -76,23 -90,-1c-4,-5 -12,0 -19,13c-6,12 -26,35 -43,51c-31,28 -31,30 -13,44c22,16 41,13 96,-16zm-178,-52c60,-54 67,-71 44,-103c-26,-35 -100,-26 -204,25c-120,59 -155,48 -87,-28c41,-46 44,-55 10,-39c-19,8 -31,8 -50,0c-14,-7 -40,-12 -57,-12c-42,0 -181,76 -234,128c-24,23 -48,42 -54,42c-24,0 -7,18 28,28c56,17 58,17 310,14l236,-4l58,-51zm-1036,27c9,-14 30,-32 45,-40c16,-8 29,-20 29,-27c0,-7 9,-30 21,-51c18,-35 19,-40 5,-54c-12,-13 -22,-14 -50,-5c-42,13 -256,154 -256,169c0,20 44,33 117,33c67,1 74,-1 89,-25zm270,-5c32,-17 65,-38 71,-47c7,-10 30,-34 50,-54l37,-38l-54,1c-64,0 -109,17 -208,79c-79,50 -87,71 -32,81c63,11 77,9 136,-22z"/>
  </g>
 </g>
</svg>