<?xml version="1.0" encoding="iso-8859-1"?>
<!-- Generator: Adobe Illustrator 19.0.0, SVG Export Plug-In . SVG Version: 6.00 Build 0)  -->
<svg version="1.1" id="Layer_1" xmlns="http://www.w3.org/2000/svg" xmlns:xlink="http://www.w3.org/1999/xlink" x="0px" y="0px"
	 viewBox="0 0 512 512" style="enable-background:new 0 0 512 512;" xml:space="preserve">
<path style="fill:#eeeeee;" d="M405.964,219.011C464.578,219.863,512,267.798,512,326.609c0,59.346-48.274,107.619-107.608,107.619
	H121.334C54.432,434.228,0,379.796,0,312.883C0,245.982,54.432,191.55,121.334,191.55c0.459,0,0.917,0,1.376,0.011
	c6.311-30.137,22.253-57.577,45.544-78.105c26.108-23.018,59.662-35.684,94.505-35.684
	C341.06,77.772,404.905,140.95,405.964,219.011z M490.162,326.609c0-47.291-38.479-85.77-85.77-85.77
	c-2.883,0-5.809,0.142-8.714,0.437c-3.199,0.317-6.388-0.786-8.692-3.036c-2.315-2.238-3.516-5.383-3.287-8.604l0.076-1.114
	c0.186-2.632,0.371-5.11,0.371-7.523c0-66.935-54.454-121.388-121.388-121.388c-29.525,0-57.948,10.734-80.059,30.224
	c-21.915,19.305-36.142,45.817-40.073,74.633c-0.786,5.809-6.016,9.958-11.847,9.401c-3.429-0.328-6.519-0.48-9.445-0.48
	c-54.858,0-99.496,44.638-99.496,99.496c0,54.869,44.638,99.506,99.496,99.506h283.058
	C451.682,412.39,490.162,373.911,490.162,326.609z"/>
<path style="fill:#ffffff;" d="M404.392,240.839c47.291,0,85.77,38.479,85.77,85.77c0,47.302-38.479,85.781-85.77,85.781H121.334
	c-54.858,0-99.495-44.638-99.495-99.506c0-54.858,44.638-99.495,99.495-99.495c2.926,0,6.016,0.153,9.445,0.48
	c5.831,0.557,11.061-3.592,11.847-9.401c3.931-28.816,18.159-55.327,40.073-74.633c22.111-19.491,50.534-30.224,80.059-30.224
	c66.935,0,121.388,54.454,121.388,121.388c0,2.413-0.186,4.892-0.371,7.523l-0.076,1.114c-0.229,3.221,0.972,6.366,3.287,8.604
	c2.304,2.249,5.492,3.352,8.692,3.036C398.583,240.981,401.509,240.839,404.392,240.839z M273.678,140.011
	c0-6.038-4.892-10.919-10.919-10.919c-45.664,0-84.744,34.112-90.924,79.361c-0.808,5.973,3.374,11.487,9.347,12.295
	c0.502,0.066,1.005,0.098,1.496,0.098c5.372,0,10.057-3.964,10.799-9.434c4.706-34.483,34.483-60.481,69.282-60.481
	C268.786,150.93,273.678,146.038,273.678,140.011z"/>
<path style="fill:#eeeeee;" d="M262.759,129.092c6.027,0,10.919,4.881,10.919,10.919c0,6.027-4.892,10.919-10.919,10.919
	c-34.799,0-64.576,25.999-69.282,60.481c-0.742,5.471-5.427,9.434-10.799,9.434c-0.491,0-0.994-0.033-1.496-0.098
	c-5.973-0.808-10.155-6.322-9.347-12.295C178.015,163.203,217.095,129.092,262.759,129.092z"/>
<g>
</g>
<g>
</g>
<g>
</g>
<g>
</g>
<g>
</g>
<g>
</g>
<g>
</g>
<g>
</g>
<g>
</g>
<g>
</g>
<g>
</g>
<g>
</g>
<g>
</g>
<g>
</g>
<g>
</g>
</svg>
