<?xml version="1.0" encoding="utf-8"?>
<!-- Svg Vector Icons : http://www.onlinewebfonts.com/icon -->
<!DOCTYPE svg PUBLIC "-//W3C//DTD SVG 1.1//EN" "http://www.w3.org/Graphics/SVG/1.1/DTD/svg11.dtd">
<svg version="1.1" xmlns="http://www.w3.org/2000/svg" xmlns:xlink="http://www.w3.org/1999/xlink" x="0px" y="0px" viewBox="0 0 1000 1000" enable-background="new 0 0 1000 1000" xml:space="preserve">
<metadata> Svg Vector Icons : http://www.onlinewebfonts.com/icon </metadata>
<g><path d="M823.4,590.9C713.3,352.5,784.3,276,785.1,275.2c1.3-1.2,1.3-3.2,0.4-4.8c-0.9-1.4-2.8-2-4.6-1.4c-1.6,0.6-154.8,64.5-135.5,206c-42.1-37.8-238.3-231.5-118.1-459.5c0.5-1.5,0.4-3.2-0.8-4.4c-1-1.1-2.8-1.5-4.1-1c-2.7,1.1-64,27.3-112.6,93.4c-45.1,60.9-86.9,168.7-30.5,335.5c20.5,78.4-18.2,142-39,169c5.2-18.6,11.5-50.1,10.5-86.3c-1.7-53-20.7-126.2-102.4-173.5c-1.3-0.7-2.8-0.7-4,0.2c-1.3,1-1.8,2.4-1.4,4c0.3,1.4,30.8,140.7-22.8,205.2c-46.2,55.6-91.5,152.4-67,242.1c20.6,74.9,84.8,132.1,190.9,170c27.4,8.3,53.4,14.7,82.1,20c2,0.4,3.8-0.7,4.3-2.5c0.6-1.9-0.5-3.9-2-4.7c-54.5-23.7-110.8-72.9-69-172.9c39.8-86.1,32.6-130.5,24.6-149.6c20.5,11.6,61.5,41.7,51.2,94.5c-0.4,1.5,0.4,3.2,1.8,4c1.5,0.8,3.1,0.7,4.3-0.3c1.2-1,124.1-102,68.3-225.8c27.5,15.9,100.4,71.4,57.4,198.7c-14.3,54.7,24.6,94.1,26.3,95.8c1.3,1.1,3.3,1.5,4.8,0.4c1.4-0.9,2-2.8,1.4-4.5c-1.3-3.3-30.4-81.8,32.7-125c-3.5,20.1-8.7,69.8,14,96.9c20.2,24.5,39.8,64.5,33.9,103.6c-4.2,27.5-20.4,50.6-48.6,68.9c-1.6,1-2.1,3.1-1.4,4.8c0.9,1.8,2.9,2.6,4.7,2c69.2-22.9,160.1-68.4,199.7-155.3C863.6,755,860,678.2,823.4,590.9z"/></g>
</svg>