<?xml version="1.0" encoding="utf-8"?>
<!-- Generator: Adobe Illustrator 24.0.3, SVG Export Plug-In . SVG Version: 6.00 Build 0)  -->
<svg version="1.1" id="Layer_1" xmlns="http://www.w3.org/2000/svg" xmlns:xlink="http://www.w3.org/1999/xlink" x="0px" y="0px"
	 viewBox="0 0 128 128" style="enable-background:new 0 0 128 128;" xml:space="preserve">
<style type="text/css">
	.st0{fill:#020203;}
	.st1{fill:none;}
</style>
<rect class="st1" width="23.11" height="23.11"/>
<g>
	<g>
		<g>
			<g>
				<path class="st0" d="M61.93,39.58c-0.24,10.64-0.48,21.29-0.72,31.93c-0.09,3.86,5.91,3.86,6,0
					c0.24-10.64,0.48-21.29,0.72-31.93C68.01,35.72,62.01,35.72,61.93,39.58L61.93,39.58z"/>
			</g>
		</g>
		<g>
			<g>
				<path class="st0" d="M62.23,40.36c-5.42,5.42-10.85,10.84-16.27,16.25c-2.74,2.73,1.49,6.96,4.24,4.24
					c0.89-0.88,1.79-1.77,2.68-2.65c2.75-2.72-1.49-6.96-4.24-4.24c-0.89,0.88-1.79,1.77-2.68,2.65c1.41,1.41,2.83,2.83,4.24,4.24
					c5.42-5.42,10.85-10.84,16.27-16.25C69.21,41.87,64.97,37.63,62.23,40.36L62.23,40.36z"/>
			</g>
		</g>
		<g>
			<g>
				<path class="st0" d="M62.88,41.29c-2.87,5.54-5.45,11.21-7.78,17c-1.44,3.58,4.36,5.14,5.79,1.6
					c2.13-5.31,4.54-10.49,7.17-15.57C69.84,40.9,64.66,37.86,62.88,41.29L62.88,41.29z"/>
			</g>
		</g>
		<g>
			<g>
				<path class="st0" d="M62.16,69.78c-4.63,4.63-9.26,9.26-13.88,13.88c-2.73,2.73,1.51,6.98,4.24,4.24
					c4.63-4.63,9.26-9.26,13.88-13.88C69.14,71.29,64.9,67.05,62.16,69.78L62.16,69.78z"/>
			</g>
		</g>
		<g>
			<g>
				<path class="st0" d="M52.19,83.81c-3.17-3.17-6.33-6.33-9.5-9.5c-2.73-2.73-6.98,1.51-4.24,4.24c3.17,3.17,6.33,6.33,9.5,9.5
					C50.68,90.79,54.93,86.55,52.19,83.81L52.19,83.81z"/>
			</g>
		</g>
		<g>
			<g>
				<path class="st0" d="M63.87,74.34c11.69,4.78,23.38,9.56,35.07,14.34c3.57,1.46,5.13-4.34,1.6-5.79
					c-11.69-4.78-23.38-9.56-35.07-14.34C61.9,67.1,60.34,72.9,63.87,74.34L63.87,74.34z"/>
			</g>
		</g>
	</g>
	<g>
		<g>
			<path class="st0" d="M38.45,74.24c-0.63,0.52-1.26,1.05-1.9,1.57c-0.56,0.46-0.88,1.42-0.88,2.12c0,0.74,0.33,1.61,0.88,2.12
				c0.57,0.52,1.32,0.91,2.12,0.88c0.84-0.04,1.48-0.35,2.12-0.88c0.63-0.52,1.26-1.05,1.9-1.57c0.56-0.46,0.88-1.42,0.88-2.12
				c0-0.74-0.33-1.61-0.88-2.12c-0.57-0.52-1.32-0.91-2.12-0.88C39.73,73.4,39.09,73.71,38.45,74.24L38.45,74.24z"/>
		</g>
	</g>
	<g>
		<g>
			<path class="st0" d="M102.79,85.85c0-1.23,0-2.47,0-3.7c0-1.57-1.38-3.07-3-3c-1.63,0.07-3,1.32-3,3c0,1.23,0,2.47,0,3.7
				c0,1.57,1.38,3.07,3,3C101.42,88.78,102.79,87.53,102.79,85.85L102.79,85.85z"/>
		</g>
	</g>
	<g>
		<g>
			<path class="st0" d="M64.84,41.14c11.58,0,11.6-18,0-18C53.26,23.14,53.24,41.14,64.84,41.14L64.84,41.14z"/>
		</g>
	</g>
</g>
</svg>
