<svg width="128" height="128" xmlns="http://www.w3.org/2000/svg">
 <style type="text/css">.st0{fill:#020203;}
	.st1{fill:none;}</style>

 <g>
  <title>background</title>
  <rect fill="none" id="canvas_background" height="402" width="582" y="-1" x="-1"/>
 </g>
 <g>
  <title>Layer 1</title>
  <g stroke="null" id="svg_2">
   <g stroke="null" id="svg_3">
    <g stroke="null" id="svg_4">
     <g stroke="null" id="svg_5">
      <path stroke="null" id="svg_6" d="m57.26765,28.366528c-0.411397,18.238584 -0.822793,36.494309 -1.23419,54.732892c-0.154274,6.616629 10.130642,6.616629 10.284916,0c0.411397,-18.238584 0.822793,-36.494309 1.23419,-54.732892c0.137132,-6.616629 -10.147783,-6.616629 -10.284916,0l0,0z" class="st0"/>
     </g>
    </g>
    <g stroke="null" id="svg_7">
     <g stroke="null" id="svg_8">
      <path stroke="null" id="svg_9" d="m57.781895,29.703567c-9.290707,9.290707 -18.598556,18.581414 -27.889263,27.85498c-4.696778,4.679637 2.554087,11.930502 7.268007,7.268007c1.525596,-1.508454 3.068333,-3.03405 4.593929,-4.542504c4.71392,-4.662495 -2.554087,-11.930502 -7.268007,-7.268007c-1.525596,1.508454 -3.068333,3.03405 -4.593929,4.542504c2.416955,2.416955 4.851052,4.851052 7.268007,7.268007c9.290707,-9.290707 18.598556,-18.581414 27.889263,-27.85498c4.696778,-4.679637 -2.571229,-11.947644 -7.268007,-7.268007l0,0z" class="st0"/>
     </g>
    </g>
    <g stroke="null" id="svg_10">
     <g stroke="null" id="svg_11">
      <path stroke="null" id="svg_12" d="m58.896095,31.297729c-4.919618,9.496405 -9.342132,19.21565 -13.336107,29.140594c-2.46838,6.136666 7.473705,8.810744 9.924943,2.742644c3.651145,-9.10215 7.782253,-17.981461 12.290474,-26.689356c3.051192,-5.862402 -5.828119,-11.073426 -8.87931,-5.193882l0,0z" class="st0"/>
     </g>
    </g>
    <g stroke="null" id="svg_13">
     <g stroke="null" id="svg_14">
      <path stroke="null" id="svg_15" d="m57.661905,80.133936c-7.936526,7.936526 -15.873053,15.873053 -23.792438,23.792438c-4.679637,4.679637 2.58837,11.964785 7.268007,7.268007c7.936526,-7.936526 15.873053,-15.873053 23.792438,-23.792438c4.696778,-4.679637 -2.571229,-11.947644 -7.268007,-7.268007l0,0z" class="st0"/>
     </g>
    </g>
    <g stroke="null" id="svg_16">
     <g stroke="null" id="svg_17">
      <path stroke="null" id="svg_18" d="m40.571803,104.183497c-5.433864,-5.433864 -10.850586,-10.850586 -16.28445,-16.28445c-4.679637,-4.679637 -11.964785,2.58837 -7.268007,7.268007c5.433864,5.433864 10.850586,10.850586 16.28445,16.28445c4.679637,4.696778 11.964785,-2.571229 7.268007,-7.268007l0,0z" class="st0"/>
     </g>
    </g>
    <g stroke="null" id="svg_19">
     <g stroke="null" id="svg_20">
      <path stroke="null" id="svg_21" d="m60.593106,87.950472c20.038444,8.193649 40.076887,16.387299 60.115331,24.580948c6.119525,2.502663 8.793603,-7.439422 2.742644,-9.924943c-20.038444,-8.193649 -40.076887,-16.387299 -60.115331,-24.580948c-6.119525,-2.485521 -8.793603,7.456564 -2.742644,9.924943l0,0z" class="st0"/>
     </g>
    </g>
   </g>
   <g stroke="null" id="svg_22">
    <g stroke="null" id="svg_23">
     <path stroke="null" id="svg_24" d="m17.019347,87.779057c-1.079916,0.891359 -2.159832,1.79986 -3.25689,2.69122c-0.959925,0.78851 -1.508454,2.434097 -1.508454,3.634003c0,1.268473 0.56567,2.759786 1.508454,3.634003c0.977067,0.891359 2.262681,1.559879 3.634003,1.508454c1.439888,-0.068566 2.536946,-0.599953 3.634003,-1.508454c1.079916,-0.891359 2.159832,-1.79986 3.25689,-2.69122c0.959925,-0.78851 1.508454,-2.434097 1.508454,-3.634003c0,-1.268473 -0.56567,-2.759786 -1.508454,-3.634003c-0.977067,-0.891359 -2.262681,-1.559879 -3.634003,-1.508454c-1.439888,0.068566 -2.536946,0.599953 -3.634003,1.508454l0,0z" class="st0"/>
    </g>
   </g>
   <g stroke="null" id="svg_25">
    <g stroke="null" id="svg_26">
     <path stroke="null" id="svg_27" d="m127.307924,107.680368c0,-2.108408 0,-4.233957 0,-6.342365c0,-2.69122 -2.365531,-5.262448 -5.142458,-5.142458c-2.794069,0.119991 -5.142458,2.262681 -5.142458,5.142458c0,2.108408 0,4.233957 0,6.342365c0,2.69122 2.365531,5.262448 5.142458,5.142458c2.794069,-0.119991 5.142458,-2.262681 5.142458,-5.142458l0,0z" class="st0"/>
    </g>
   </g>
   <g stroke="null" id="svg_28">
    <g stroke="null" id="svg_29">
     <path stroke="null" id="svg_30" d="m62.255834,31.040606c19.849887,0 19.88417,-30.854747 0,-30.854747c-19.849887,0 -19.88417,30.854747 0,30.854747l0,0z" class="st0"/>
    </g>
   </g>
  </g>
 </g>
</svg>