<svg height="100px" viewBox="-11 0 511 512" width="100px" xmlns="http://www.w3.org/2000/svg">
	<path d="m284.164062 53.949219c4.140626 0 7.5-3.355469 7.5-7.5v-11.675781c0-4.140626-3.359374-7.5-7.5-7.5-4.140624 0-7.5 3.359374-7.5 7.5v11.675781c0 4.144531 3.359376 7.5 7.5 7.5zm0 0" />
	<path d="m413.1875 53.949219c4.140625 0 7.5-3.355469 7.5-7.5v-11.675781c0-4.140626-3.359375-7.5-7.5-7.5s-7.5 3.359374-7.5 7.5v11.675781c0 4.144531 3.359375 7.5 7.5 7.5zm0 0" />
	<path d="m348.675781 60.183594c8.371094 0 16.230469-3.503906 21.566407-9.609375 2.730468-3.121094 2.410156-7.855469-.707032-10.582031-3.121094-2.726563-7.859375-2.410157-10.585937.710937-2.488281 2.847656-6.234375 4.480469-10.273438 4.480469-4.042969 0-7.789062-1.632813-10.277343-4.484375-2.726563-3.117188-7.464844-3.433594-10.582032-.707031-3.121094 2.726562-3.4375 7.460937-.710937 10.582031 5.339843 6.105469 13.199219 9.609375 21.570312 9.609375zm0 0" />
	<path d="m356.175781 227.382812v-27.671874c0-4.144532-3.359375-7.5-7.5-7.5-4.144531 0-7.5 3.355468-7.5 7.5v27.671874c0 4.144532 3.355469 7.5 7.5 7.5 4.140625 0 7.5-3.355468 7.5-7.5zm0 0" />
	<path d="m275.546875 219.679688c2.855469-.046876 5.539063-1.804688 6.882813-4.496094l11.019531-25.386719c1.648437-3.800781-.09375-8.214844-3.894531-9.863281-3.800782-1.652344-8.214844.09375-9.867188 3.890625l-11.015625 25.386719c-1.652344 3.800781.09375 8.21875 3.894531 9.867187.980469.425781 1.992188.617187 2.980469.601563zm0 0" />
	<path d="m219.640625 174.632812 20.214844-18.902343c3.027343-2.828125 3.1875-7.574219.355469-10.601563-2.828126-3.023437-7.574219-3.183594-10.601563-.355468l-20.214844 18.898437c-3.027343 2.832031-3.183593 7.574219-.355469 10.601563 2.800782 2.996093 7.609376 3.15625 10.601563.359374zm0 0" />
	<path d="m421.804688 219.679688c1.003906.007812 2.019531-.183594 2.980468-.601563 3.800782-1.648437 5.542969-6.066406 3.894532-9.867187l-11.019532-25.386719c-1.648437-3.796875-6.0625-5.542969-9.863281-3.890625-3.800781 1.648437-5.542969 6.0625-3.894531 9.863281 0 0 11.003906 25.359375 11.019531 25.386719 1.207031 2.78125 3.996094 4.472656 6.882813 4.496094zm0 0" />
	<path d="m482.832031 176.625c2.011719 0 4.019531-.789062 5.480469-2.351562 2.828125-3.027344 2.667969-7.769532-.359375-10.601563l-20.214844-18.898437c-3.023437-2.828126-7.769531-2.667969-10.601562.355468-2.828125 3.027344-2.667969 7.773438.355469 10.601563l20.21875 18.898437c1.429687 1.339844 3.277343 2 5.121093 1.996094zm0 0" />
	<path d="m22.433594 512h126.054687c12.09375 0 21.933594-9.839844 21.933594-21.933594 0-28.800781-21.816406-52.59375-49.789063-55.753906v-235.503906c0-63.808594 46.589844-117.722656 109.132813-127.335938 5.449219 7.769532 13.769531 13.378906 23.40625 15.273438 3.476563 44.996094 41.203125 80.546875 87.074219 80.546875h16.859375c18.878906 0 36.855469-5.933594 51.984375-17.160157 3.328125-2.46875 4.023437-7.164062 1.554687-10.492187-2.464843-3.324219-7.164062-4.019531-10.492187-1.554687-12.523438 9.292968-27.410156 14.207031-43.046875 14.207031h-16.859375c-37.351563 0-68.183594-28.460938-71.949219-64.835938h160.757813c-1.148438 11.066407-4.835938 21.71875-10.832032 31.171875-2.21875 3.5-1.179687 8.132813 2.316406 10.351563 3.496094 2.21875 8.132813 1.179687 10.351563-2.316407 7.648437-12.0625 12.179687-25.742187 13.28125-39.914062 17.183594-3.378906 30.1875-18.550781 30.1875-36.710938v-42.539062c0-4.140625-3.355469-7.5-7.5-7.5 0 0-236.3125 0-236.324219 0h-.042968c-.167969 0-.335938.015625-.5.0234375-.082032.0078125-.160157.0039063-.253907.015625-.011719 0-.019531 0-.03125 0-48.84375 4.8437495-94.09375 27.7187495-127.425781 64.4257815-33.53125 36.921875-51.996094 84.632812-51.996094 134.34375v115.4375c0 4.140625 3.359375 7.5 7.5 7.5 4.144532 0 7.5-3.359375 7.5-7.5v-115.4375c0-45.976563 17.082032-90.105469 48.097656-124.257813 28.957032-31.886719 67.617188-52.488281 109.609376-58.582031v34.070312c0 .5625.433593 7.28125.695312 7.234376-67.914062 12.292968-118.054688 71.59375-118.054688 141.535156v235.140625h-40.347656v-89.707031c0-4.140626-3.355468-7.5-7.5-7.5-4.140625 0-7.5 3.359374-7.5 7.5v90.074218c-27.972656 3.15625-49.785156 26.949219-49.785156 55.75 0 12.09375 9.839844 21.933594 21.933594 21.933594zm215.558594-461.960938v-35.039062h221.367187v35.039062c0 12.359376-10.054687 22.414063-22.417969 22.417969 0 0-176.46875 0-176.535156 0-12.105469 0-22.414062-10.308593-22.414062-22.417969zm-181.375 398.910157h57.683593c22.671875 0 41.121094 18.445312 41.121094 41.117187 0 3.824219-3.113281 6.933594-6.933594 6.933594h-126.054687c-3.824219 0-6.933594-3.109375-6.933594-6.933594 0-22.671875 18.445312-41.117187 41.117188-41.117187zm0 0" />
</svg>
