<?xml version="1.0" encoding="utf-8"?>
<!-- Generator: Adobe Illustrator 24.0.1, SVG Export Plug-In . SVG Version: 6.00 Build 0) -->
<svg version="1.1" height="100px" width="100px" id="Capa_1" xmlns="http://www.w3.org/2000/svg" xmlns:xlink="http://www.w3.org/1999/xlink" x="0px" y="0px" viewBox="0 0 480 480" style="enable-background:new 0 0 480 480;" xml:space="preserve">
	<style type="text/css">
		.st0{fill:#AAAAAA;}
	</style>
	<g>
		<g>
			<g>
				<path class="st0" d="M229.9,16c48.6,0.1,87.9,39.4,88,88v32c0,0.2,0.1,0.3,0.1,0.5c-36.5,4.1-64,34.9-64.1,71.5c0,4.4,3.6,8,8,8
				h24.8c4.4,21.6,25.5,35.6,47.2,31.2c15.7-3.2,28-15.5,31.2-31.2h24.8c4.4,0,8-3.6,8-8c-0.1-36.7-27.6-67.5-64.1-71.5
				c0-0.1,0.1-0.3,0.1-0.5v-32c0-57.4-46.6-104-104-104s-104,46.6-104,104v336h-48c-4.4,0-8,3.6-8,8v24c0,4.4,3.6,8,8,8h112
				c4.4,0,8-3.6,8-8v-24c0-4.4-3.6-8-8-8h-48V104C141.9,55.4,181.3,16.1,229.9,16z M325.9,232c-10.2,0-19.2-6.4-22.6-16h45.3
				C345.1,225.6,336,232,325.9,232z M333.8,152.5c24.6,3.5,43.9,22.9,47.5,47.5H270.4C274.8,169.4,303.2,148.1,333.8,152.5z
				 M181.9,456v8h-96v-8H181.9z" />
				<path class="st0" d="M325.9,256c-4.4,0-8,3.6-8,8v32c0,4.4,3.6,8,8,8s8-3.6,8-8v-32C333.9,259.6,330.3,256,325.9,256z" />
				<path class="st0" d="M376.8,280.2l-16-27.7c-2.2-3.8-7.1-5.2-10.9-3s-5.2,7.1-3,10.9c0,0,0,0.1,0.1,0.1l16,27.7
				c2.2,3.8,7.1,5.2,10.9,3C377.7,289,379,284.1,376.8,280.2C376.8,280.3,376.8,280.2,376.8,280.2z" />
				<path class="st0" d="M406.2,245.1C406.1,245.1,406.1,245.1,406.2,245.1l-27.8-16.1c-3.8-2.2-8.7-1-10.9,2.9s-1,8.7,2.9,10.9
				c0,0,0.1,0,0.1,0.1l27.7,16c3.8,2.2,8.7,1,10.9-2.9C411.3,252.3,410,247.4,406.2,245.1z" />
				<path class="st0" d="M284.3,232c-2.2-3.8-7.1-5.1-10.9-2.9l-27.7,16c-3.8,2.2-5.2,7.1-3,10.9s7.1,5.2,10.9,3c0,0,0.1,0,0.1-0.1
				l27.7-16C285.2,240.7,286.5,235.8,284.3,232z" />
				<path class="st0" d="M301.9,249.6c-3.8-2.2-8.7-0.9-10.9,2.9l-16,27.7c-2.2,3.8-1,8.7,2.9,10.9s8.7,1,10.9-2.9c0,0,0-0.1,0.1-0.1
				l16-27.7C307,256.7,305.7,251.8,301.9,249.6z" />
			</g>
		</g>
	</g>
</svg>
