<svg width="128" height="128" xmlns="http://www.w3.org/2000/svg">
 <style type="text/css">.st0{fill:#020203;}
	.st1{fill:none;}</style>

 <g>
  <title>background</title>
  <rect fill="none" id="canvas_background" height="402" width="582" y="-1" x="-1"/>
 </g>
 <g>
  <title>Layer 1</title>
  <g stroke="null" id="Page-1_2_">
   <g stroke="null" id="_x34_">
    <path stroke="null" d="m70.777345,39.510895c-0.895712,4.648438 -1.822311,9.296875 -2.687137,13.960756c-0.494186,2.70258 -0.864826,5.436047 -1.405342,8.123183c-0.339753,1.389898 -0.030887,2.857013 0.833939,4.015262c4.632994,6.640625 9.204215,13.312137 13.806323,19.983649c0.27798,0.416969 0.571403,0.833939 0.864826,1.235465c1.544331,2.053961 1.544331,4.077035 0.077217,6.223656c-3.320313,4.802871 -6.563409,9.667515 -9.821948,14.501272c-1.498001,2.208394 -2.93423,4.478561 -4.509448,6.625182c-0.833939,0.972929 -0.972929,2.362827 -0.32431,3.459302c0.308866,0.586846 0.555959,1.220022 0.725836,1.868641c0.540516,2.100291 -0.509629,4.293241 -2.501817,5.158067c-1.837754,0.833939 -4.262355,0.27798 -5.26617,-1.590661c-1.142805,-2.223837 -2.115734,-4.524891 -2.903343,-6.903162c-0.494186,-1.451672 0.23165,-2.779797 1.050145,-3.984375c4.185138,-6.269986 8.38572,-12.509085 12.617188,-18.701854c2.37827,-3.459302 2.440044,-3.428416 0.077217,-6.856832c-2.47093,-3.567406 -4.941861,-7.134811 -7.443678,-10.686774c-0.27798,-0.386083 -0.602289,-0.725836 -1.127362,-1.374455c-0.864826,2.208394 -1.636991,4.107922 -2.362827,6.022893c-1.621548,4.293241 -3.134993,8.632813 -4.880087,12.864281c-0.911156,1.961301 -1.976744,3.860829 -3.181323,5.652253c-3.690952,5.961119 -7.490007,11.845022 -11.119186,17.852471c-0.864826,1.451672 -1.235465,3.212209 -1.791424,4.849201c-0.37064,1.096475 -0.494186,2.301054 -1.065589,3.289426c-0.911156,1.667878 -2.872456,2.362827 -4.771984,1.914971c-1.760538,-0.386083 -3.181323,-1.822311 -3.181323,-3.706395c0,-3.165879 0.262536,-6.331759 2.007631,-9.142442c4.555778,-7.289244 9.157885,-14.547602 13.60556,-21.89862c1.220022,-2.177507 2.239281,-4.463118 3.057776,-6.825945c2.579034,-6.686955 5.065407,-13.42024 7.582667,-20.153525c0.27798,-0.694949 0.494186,-1.420785 0.679506,-2.146621c0.308866,-0.972929 -0.077217,-2.038518 -0.957485,-2.579034c-0.926599,-0.710392 -1.683321,-1.606105 -2.208394,-2.625363c-2.65625,-5.188954 -5.235284,-10.408794 -7.814317,-15.674964c-1.343568,-2.733467 -0.617733,-4.972747 2.131177,-6.887718c4.787427,-3.335756 9.605742,-6.656069 14.393169,-9.991824c0.942042,-0.664063 2.239281,-1.281795 2.579034,-2.223837c0.247093,-0.694949 -0.818496,-1.853198 -1.281795,-2.79524c-2.65625,-5.528707 -1.297238,-12.169332 3.335756,-16.200037c4.231468,-3.799055 11.289063,-4.416788 16.091934,-1.142805c4.447675,3.042333 6.810502,7.320131 6.146439,12.833394c-0.725836,6.022893 -4.138808,9.868278 -9.945494,11.536156c-1.050145,0.27798 -2.131177,0.463299 -3.212209,0.586846c-0.679506,0.09266 -1.220022,0.308866 -0.787609,1.096475c1.559775,2.857013 3.165879,5.698583 4.756541,8.52471c0.463299,0.818496 0.911156,0.432413 1.328125,-0.09266c1.667878,-2.192951 3.335756,-4.370458 5.019077,-6.547965c1.266352,-1.652435 2.440044,-3.397529 3.845385,-4.941861c2.33194,-2.579034 6.022893,-1.914971 7.381904,1.220022c0.803052,1.837754 0.154433,3.397529 -1.003815,4.880087c-3.845385,5.034521 -7.690771,10.069041 -11.536156,15.119005c-0.494186,0.664063 -1.003815,1.359012 -1.544331,1.976744c-2.409157,2.640807 -5.652253,2.409157 -7.520894,-0.664063c-1.621548,-2.625363 -3.057776,-5.35883 -4.571221,-8.01508c-0.200763,-0.355196 -0.416969,-0.694949 -0.633176,-1.050145l-0.633176,0.030887zm-8.617369,-2.223837l-0.463299,-0.293423c-1.621548,1.127362 -3.273983,2.223837 -4.849201,3.412972c-0.37064,0.293423 -0.772166,1.081032 -0.633176,1.420785c0.942042,2.486374 2.131177,4.880087 3.551962,7.150255c0.880269,-4.262355 1.636991,-7.96875 2.393714,-11.690589z" class="st0" id="Shape"/>
   </g>
  </g>
 </g>
</svg>