<svg width="128" height="128" xmlns="http://www.w3.org/2000/svg">
 <style type="text/css">.st0{fill:#020203;}
	.st1{fill:none;}</style>

 <g>
  <title>background</title>
  <rect fill="none" id="canvas_background" height="402" width="582" y="-1" x="-1"/>
 </g>
 <g>
  <title>Layer 1</title>
  <g stroke="null" id="svg_29">
   <g stroke="null" id="svg_1">
    <g stroke="null" id="svg_2">
     <path stroke="null" id="svg_3" d="m52.781249,72.700218c2.528124,3.870215 3.760975,8.567532 5.586842,12.812284c1.966319,4.572471 4.151117,9.051309 6.32031,13.51454c2.637364,5.41518 10.721119,0.671045 8.083755,-4.728529c-2.231616,-4.588077 -4.494443,-9.176154 -6.460762,-13.873471c-1.747839,-4.166723 -2.949478,-8.64556 -5.446391,-12.453352c-3.277198,-5.009431 -11.392164,-0.32772 -8.083755,4.728529l0,0z" class="st0"/>
    </g>
   </g>
   <g stroke="null" id="svg_4">
    <g stroke="null" id="svg_5">
     <path stroke="null" id="svg_6" d="m61.052272,20.343079c-4.915797,7.256653 -9.691143,14.60694 -14.357248,22.019649c-3.214775,5.118671 4.884586,9.815988 8.083755,4.728529c4.666106,-7.428315 9.441451,-14.762997 14.357248,-22.019649c3.386438,-5.009431 -4.728529,-9.706748 -8.083755,-4.728529l0,0z" class="st0"/>
    </g>
   </g>
   <g stroke="null" id="svg_7">
    <g stroke="null" id="svg_8">
     <path stroke="null" id="svg_9" d="m74.738475,18.969777c6.023802,0 6.039408,-9.363423 0,-9.363423c-6.039408,0 -6.039408,9.363423 0,9.363423l0,0z" class="st0"/>
    </g>
   </g>
   <g stroke="null" id="svg_10">
    <g stroke="null" id="svg_11">
     <path stroke="null" id="svg_12" d="m48.427257,49.010759c6.476367,4.041877 13.420906,7.163018 20.724376,9.363423c5.774111,1.747839 8.255418,-7.287864 2.496913,-9.035703c-6.570002,-1.981924 -12.671832,-4.790951 -18.49276,-8.427081c-5.134277,-3.183564 -9.831594,4.915797 -4.728529,8.099361l0,0z" class="st0"/>
    </g>
   </g>
   <g stroke="null" id="svg_13">
    <g stroke="null" id="svg_14">
     <path stroke="null" id="svg_15" d="m61.005455,25.258876c-3.682946,11.641856 -6.413945,23.502191 -8.036938,35.612218c-1.685416,12.687438 -1.404513,25.624567 -3.682946,38.233976c-1.076794,5.898956 7.958909,8.411475 9.035703,2.496913c2.091164,-11.548221 2.044347,-23.236894 3.308409,-34.87875c1.451331,-13.264849 4.385203,-26.248795 8.411475,-38.951839c1.825867,-5.774111 -7.225441,-8.239812 -9.035703,-2.512518l0,0z" class="st0"/>
    </g>
   </g>
   <g stroke="null" id="svg_16">
    <g stroke="null" id="svg_17">
     <path stroke="null" id="svg_18" d="m49.285571,99.307945c-2.621758,7.662401 -5.321545,15.277985 -8.114966,22.862357c-2.091164,5.664871 6.960144,8.099361 9.035703,2.496913c2.793421,-7.584372 5.493208,-15.215562 8.114966,-22.862357c1.950713,-5.727294 -7.100596,-8.177389 -9.035703,-2.496913l0,0z" class="st0"/>
    </g>
   </g>
   <g stroke="null" id="svg_19">
    <g stroke="null" id="svg_20">
     <path stroke="null" id="svg_21" d="m50.502816,118.440538c-1.529359,0 -3.074324,0 -4.603683,0c-2.450096,0 -4.790951,2.153587 -4.681711,4.681711c0.10924,2.54373 2.059953,4.681711 4.681711,4.681711c1.529359,0 3.074324,0 4.603683,0c2.450096,0 4.790951,-2.153587 4.681711,-4.681711c-0.10924,-2.54373 -2.059953,-4.681711 -4.681711,-4.681711l0,0z" class="st0"/>
    </g>
   </g>
   <g stroke="null" id="svg_22">
    <g stroke="null" id="svg_23">
     <path stroke="null" id="svg_24" d="m63.876905,95.671815c-1.872685,6.117436 -4.119906,12.250478 -5.664871,18.461549c-1.420119,5.680476 1.88829,7.912092 5.805322,11.673067c4.353992,4.166723 10.986416,-2.450096 6.616819,-6.616819c-0.936342,-0.905131 -2.824633,-2.153587 -3.105535,-3.526889c-0.202874,-1.029977 1.466936,-4.806557 1.794656,-5.836534c1.186034,-3.88582 2.387673,-7.771641 3.573706,-11.657461c1.77905,-5.774111 -7.256653,-8.255418 -9.020097,-2.496913l0,0z" class="st0"/>
    </g>
   </g>
   <g stroke="null" id="svg_25">
    <g stroke="null" id="svg_26">
     <path stroke="null" id="svg_27" d="m74.738475,28.3332c18.071406,0 18.102617,-28.090268 0,-28.090268c-18.087012,0 -18.118223,28.090268 0,28.090268l0,0z" class="st0"/>
    </g>
   </g>
  </g>
 </g>
</svg>