<svg width="128" height="128" xmlns="http://www.w3.org/2000/svg">
 <style type="text/css">.st0{fill:#020203;}
	.st1{fill:none;}</style>

 <g>
  <title>background</title>
  <rect fill="none" id="canvas_background" height="402" width="582" y="-1" x="-1"/>
 </g>
 <g>
  <title>Layer 1</title>
  <g stroke="null" id="Page-1_1_">
   <g stroke="null" id="_x36_">
    <path stroke="null" d="m94.965027,14.031689c0,6.163683 -3.331721,10.918957 -9.237953,13.145152c-1.817302,0.696633 -1.862735,0.726921 -0.514902,2.059609c2.089898,2.014177 4.225228,3.998065 6.360558,5.981953c1.408409,1.3024 1.438698,1.3024 2.165618,-0.408893c2.059609,-4.800707 4.119218,-9.586269 6.133395,-14.40212c0.666344,-1.574995 1.544707,-2.862251 3.301432,-3.316576c3.452874,-0.893507 6.360558,2.059609 5.467051,5.57306c-0.348316,1.150958 -0.787498,2.256484 -1.3024,3.346865c-2.635088,6.22426 -5.270176,12.44852 -7.920409,18.657636c-0.318028,0.787498 -0.711777,1.559851 -1.181246,2.271628c-0.605767,0.954084 -1.574995,1.620428 -2.665377,1.862735c-1.105525,0.242307 -2.256484,0.030288 -3.210567,-0.575479c-0.863219,-0.560335 -1.66586,-1.196391 -2.392781,-1.923311c-2.756242,-2.574511 -5.482195,-5.149023 -8.223292,-7.70839c-1.66586,-1.544707 -1.847591,-1.544707 -2.256484,0.605767c-1.544707,7.965841 -3.013693,15.946827 -4.664409,23.897524c-0.514902,2.574511 -0.090865,4.74013 1.105525,7.072334c7.617525,14.841301 15.083608,29.758323 22.625412,44.645057c0.908651,1.802158 0.908651,1.802158 2.831963,1.241823c2.029321,-0.696633 4.255516,0.18173 5.270176,2.059609c1.029805,1.787014 0.878363,4.028353 -0.817786,5.361041c-1.999032,1.605284 -4.164651,2.983404 -6.466567,4.119218c-2.301916,1.105525 -4.391814,0.106009 -5.694214,-2.453358c-2.347349,-4.573544 -4.5584,-9.207664 -6.860316,-13.781208c-5.467051,-10.858381 -10.949246,-21.686473 -16.461729,-32.529709c-0.954084,-1.877879 -1.166102,-1.893023 -2.211051,-0.121153c-2.801674,4.664409 -5.557916,9.389395 -8.35959,14.129524c-0.560335,0.969228 -1.12067,1.923311 -1.741581,2.847107c-1.317544,1.968744 -3.089414,2.710809 -5.497339,2.347349c-8.374734,-1.272112 -16.764613,-2.362493 -25.154491,-3.604316c-1.272112,-0.196874 -2.13533,0.030288 -2.907683,1.029805c-0.46947,0.605767 -1.029805,1.150958 -1.650716,1.620428c-1.529563,1.044949 -3.528595,1.044949 -5.058158,0c-1.650716,-1.181246 -2.498791,-3.165135 -1.711293,-4.952148c1.256967,-2.831963 3.346865,-5.2096 6.012241,-6.814883c0.969228,-0.590623 2.498791,-0.514902 3.740614,-0.36346c5.179311,0.6512 10.343478,1.453842 15.492501,2.195907c2.78653,0.408893 5.588204,0.787498 8.374734,1.256967c1.453842,0.242307 2.347349,-0.242307 3.089414,-1.544707c3.9072,-6.739162 7.935553,-13.402604 11.888185,-20.111478c0.378605,-0.681488 0.636056,-1.423553 0.772353,-2.195907c1.893023,-9.722567 3.740614,-19.475422 5.663925,-29.197988c0.439181,-2.301916 0.408893,-2.407925 -1.832446,-2.211051c-2.983404,0.257451 -5.966809,0.545191 -8.950213,0.863219c-1.77187,0.18173 -1.756725,0.212019 -1.605284,2.059609c0.257451,3.513451 0.590623,6.996613 0.772353,10.49492c0.030288,1.01466 -0.18173,2.029321 -0.636056,2.937972c-0.908651,1.635572 -2.816818,2.453358 -4.634121,1.983888c-1.847591,-0.36346 -3.240856,-1.877879 -3.483163,-3.740614c-0.348316,-2.105042 -0.46947,-4.240372 -0.666344,-6.375702c-0.28774,-3.240856 -0.560335,-6.466567 -0.878363,-9.722567c-0.393749,-3.80119 1.196391,-5.891088 5.012725,-6.269693c4.603832,-0.454326 9.207664,-0.772353 13.811497,-1.135814c0.257451,0 0.514902,-0.015144 0.772353,-0.030288c0.6512,-0.121153 1.3024,-0.28774 1.938456,-0.454326c-0.28774,-0.560335 -0.514902,-1.166102 -0.863219,-1.696149c-2.937972,-4.634121 -3.346865,-9.495404 -0.83293,-14.40212c2.513935,-4.906716 6.905748,-7.405506 12.312222,-7.375218c8.208148,0.015144 13.962938,6.936037 13.629766,13.75092z" class="st0" id="Path"/>
   </g>
  </g>
 </g>
</svg>