<svg width="128" height="128" xmlns="http://www.w3.org/2000/svg">
 <style type="text/css">.st0{fill:#020203;}
	.st1{fill:none;}</style>

 <g>
  <title>background</title>
  <rect fill="none" id="canvas_background" height="402" width="582" y="-1" x="-1"/>
 </g>
 <g>
  <title>Layer 1</title>
  <g stroke="null" id="svg_37">
   <g stroke="null" id="svg_1">
    <g stroke="null" id="svg_2">
     <path stroke="null" id="svg_3" d="m75.403093,21.362784c-7.973952,4.861788 -16.040805,9.568743 -24.216042,14.089896c-5.23339,2.895396 -0.557402,10.931282 4.691471,8.020403c8.175237,-4.521154 16.242089,-9.228108 24.216042,-14.089896c5.094039,-3.112164 0.433535,-11.14805 -4.691471,-8.020403l0,0z" class="st0"/>
    </g>
   </g>
   <g stroke="null" id="svg_4">
    <g stroke="null" id="svg_5">
     <path stroke="null" id="svg_6" d="m49.236142,37.140371c-3.220548,4.645021 -6.549479,9.197141 -9.986795,13.671845c-1.532857,1.997359 -0.309668,5.202423 1.672207,6.348195c2.399927,1.40899 4.815338,0.325151 6.348195,-1.672207c3.437315,-4.474703 6.766247,-9.026824 9.986795,-13.671845c3.421832,-4.908239 -4.629537,-9.553259 -8.020403,-4.675988l0,0z" class="st0"/>
    </g>
   </g>
   <g stroke="null" id="svg_7">
    <g stroke="null" id="svg_8">
     <path stroke="null" id="svg_9" d="m74.179904,29.832205c2.368961,6.812697 4.737921,13.625394 7.091398,20.453575c1.950909,5.620475 10.931282,3.205064 8.96489,-2.477344c-2.368961,-6.812697 -4.737921,-13.625394 -7.091398,-20.453575c-1.950909,-5.604992 -10.931282,-3.189581 -8.96489,2.477344l0,0z" class="st0"/>
    </g>
   </g>
   <g stroke="null" id="svg_10">
    <g stroke="null" id="svg_11">
     <path stroke="null" id="svg_12" d="m87.216929,53.83148c7.292683,-2.802496 14.476982,-5.837243 21.552897,-9.104241c5.419191,-2.508311 0.712237,-10.51323 -4.691471,-8.020403c-6.363679,2.941847 -12.804774,5.666925 -19.33877,8.175237c-5.512091,2.121226 -3.112164,11.1016 2.477344,8.949407l0,0z" class="st0"/>
    </g>
   </g>
   <g stroke="null" id="svg_13">
    <g stroke="null" id="svg_14">
     <path stroke="null" id="svg_15" d="m72.445763,28.779334c-3.297965,11.612552 -6.363679,23.287038 -9.197141,35.023457c-1.393506,5.806276 7.555901,8.28362 8.96489,2.477344c2.833463,-11.736419 5.899176,-23.410905 9.197141,-35.023457c1.625757,-5.775309 -7.339133,-8.221687 -8.96489,-2.477344l0,0z" class="st0"/>
    </g>
   </g>
   <g stroke="null" id="svg_16">
    <g stroke="null" id="svg_17">
     <path stroke="null" id="svg_18" d="m64.270526,68.277494c6.348195,7.478484 12.618973,15.018901 18.796851,22.621251c3.77795,4.645021 10.311946,-1.966392 6.564963,-6.564963c-6.177878,-7.617834 -12.448656,-15.158251 -18.796851,-22.621251c-3.870851,-4.567604 -10.42033,2.028326 -6.564963,6.564963l0,0z" class="st0"/>
    </g>
   </g>
   <g stroke="null" id="svg_19">
    <g stroke="null" id="svg_20">
     <path stroke="null" id="svg_21" d="m81.457103,87.910449c-0.061934,11.705452 0.340635,23.395422 1.192222,35.069907c0.170317,2.245093 2.012842,4.985656 4.645021,4.645021c3.143131,-0.402568 6.193361,-0.898037 9.290042,-1.625757c5.821759,-1.362539 3.359898,-10.311946 -2.477344,-8.96489c-2.245093,0.588369 -4.521154,1.021905 -6.812697,1.285122c1.54834,1.54834 3.096681,3.096681 4.645021,4.645021c-0.851587,-11.674486 -1.238672,-23.364455 -1.192222,-35.069907c0.015483,-5.96111 -9.274558,-5.976593 -9.290042,0.015483l0,0z" class="st0"/>
    </g>
   </g>
   <g stroke="null" id="svg_22">
    <g stroke="null" id="svg_23">
     <path stroke="null" id="svg_24" d="m63.078304,63.756341c-3.452799,8.887473 -7.3701,17.573662 -11.689969,26.07405c-2.709595,5.310807 5.310807,10.017762 8.020403,4.691471c4.675988,-9.212625 8.87199,-18.6575 12.618973,-28.288177c2.167676,-5.589508 -6.812697,-8.004919 -8.949407,-2.477344l0,0z" class="st0"/>
    </g>
   </g>
   <g stroke="null" id="svg_25">
    <g stroke="null" id="svg_26">
     <path stroke="null" id="svg_27" d="m53.757296,88.09625c-10.869349,2.291544 -21.738697,4.567604 -32.608046,6.859147c-5.852726,1.223189 -3.375382,10.188079 2.477344,8.96489c10.869349,-2.291544 21.738697,-4.567604 32.608046,-6.859147c5.837243,-1.238672 3.375382,-10.188079 -2.477344,-8.96489l0,0z" class="st0"/>
    </g>
   </g>
   <g stroke="null" id="svg_28">
    <g stroke="null" id="svg_29">
     <path stroke="null" id="svg_30" d="m16.999697,100.777157c0.402568,1.54834 0.789654,3.096681 1.192222,4.645021c0.603853,2.353477 3.359898,4.010201 5.713376,3.251515c2.430894,-0.789654 3.901817,-3.189581 3.251515,-5.713376c-0.402568,-1.54834 -0.789654,-3.096681 -1.192222,-4.645021c-0.603853,-2.353477 -3.359898,-4.010201 -5.713376,-3.251515c-2.430894,0.789654 -3.901817,3.189581 -3.251515,5.713376l0,0z" class="st0"/>
    </g>
   </g>
   <g stroke="null" id="svg_31">
    <g stroke="null" id="svg_32">
     <path stroke="null" id="svg_33" d="m23.100158,96.952756c-0.944488,1.130288 -1.54834,2.121226 -2.090259,3.483766c-0.387085,0.990938 -0.526436,2.043809 -0.588369,3.096681c-0.077417,1.145772 0.572886,2.492828 1.362539,3.282481c0.805137,0.805137 2.121226,1.40899 3.282481,1.362539c2.663145,-0.123867 4.45922,-2.043809 4.645021,-4.645021c0,-0.139351 0.015483,-0.278701 0.030967,-0.418052c-0.061934,0.418052 -0.108384,0.82062 -0.170317,1.238672c0.077417,-0.495469 0.201284,-0.959971 0.387085,-1.424473c-0.154834,0.371602 -0.309668,0.743203 -0.464502,1.114805c0.201284,-0.464502 0.449019,-0.882554 0.758687,-1.269639c-0.247734,0.309668 -0.479985,0.619336 -0.72772,0.944488c0.04645,-0.061934 0.0929,-0.108384 0.139351,-0.170317c0.805137,-0.975454 1.362539,-1.981876 1.362539,-3.282481c0,-1.145772 -0.510952,-2.492828 -1.362539,-3.282481c-0.882554,-0.805137 -2.043809,-1.40899 -3.282481,-1.362539c-1.161255,0.030967 -2.508311,0.402568 -3.282481,1.331573l0,0z" class="st0"/>
    </g>
   </g>
   <g stroke="null" id="svg_34">
    <g stroke="null" id="svg_35">
     <path stroke="null" id="svg_36" d="m81.751288,28.175481c17.92978,0 17.960747,-27.870125 0,-27.870125c-17.92978,0 -17.960747,27.870125 0,27.870125l0,0z" class="st0"/>
    </g>
   </g>
  </g>
 </g>
</svg>