<svg width="128" height="128" xmlns="http://www.w3.org/2000/svg">
 <style type="text/css">.st0{fill:#020203;}
	.st1{fill:none;}</style>

 <g>
  <title>background</title>
  <rect fill="none" id="canvas_background" height="402" width="582" y="-1" x="-1"/>
 </g>
 <g>
  <title>Layer 1</title>
  <g stroke="null" id="svg_1">
   <path stroke="null" d="m47.692428,101.861405c-4.150794,0.722546 -7.778895,1.245238 -11.345504,2.060024c-0.860905,0.18448 -1.614198,1.106878 -2.336743,1.798677c-0.907025,0.876279 -1.598824,2.060024 -2.613463,2.736449c-1.767931,1.199118 -3.612728,0.922399 -5.150059,-0.491946c-1.537331,-1.414345 -2.060024,-3.443622 -1.030012,-5.103939c1.229865,-2.152264 2.674956,-4.150794 4.335274,-5.980218c0.907025,-0.953145 2.50585,-1.460465 3.874074,-1.737184c5.134686,-1.030012 10.269372,-1.844797 15.388684,-2.736449c2.36749,-0.415079 2.50585,-0.507319 2.45973,-2.982422c-0.169106,-7.594416 -0.614932,-15.188831 -0.476573,-22.767874c0.076867,-4.396767 1.030012,-8.778161 1.614198,-13.159554c0.307466,-2.22913 0.353586,-2.213757 -1.767931,-3.197649c-1.076132,-0.507319 -2.167637,-1.030012 -3.228395,-1.537331c-3.213022,-1.660318 -3.950941,-4.489007 -1.860171,-7.409936c3.382128,-4.796473 6.87187,-9.546826 10.346238,-14.312553c1.060758,-1.552704 2.18301,-3.059289 3.382128,-4.489007c0.860905,-0.830159 1.122252,-2.121517 0.645679,-3.228395c-0.999265,-3.028542 -0.922399,-6.303058 0.2306,-9.28548c2.336743,-6.103204 8.947267,-9.854292 15.204205,-8.670547c6.73351,1.275985 11.714463,7.05635 11.60685,13.666874c-0.015373,4.073927 -1.829424,7.948002 -4.950206,10.561465c-3.120782,2.613463 -7.256203,3.720341 -11.268637,3.013169c-3.197649,-0.614932 -3.213022,-0.568813 -3.213022,2.782569c0,3.074662 0.061493,6.164698 0.04612,9.23936c0,1.091505 0.384333,1.352851 1.398971,0.937772c3.535862,-1.506584 7.087096,-2.982422 10.622958,-4.45826c0.630306,-0.261346 1.260612,-0.538066 1.906291,-0.753292c2.290623,-0.814785 4.796473,0.32284 5.718872,2.567343c0.476573,1.030012 0.522693,2.198383 0.122986,3.243769c-0.399706,1.060758 -1.214492,1.906291 -2.244503,2.352117c-3.151529,1.537331 -6.410671,2.813316 -9.623693,4.196914c-0.384333,0.169106 -0.799412,0.307466 -1.183745,0.476573c-2.59809,1.091505 -2.59809,1.091505 -2.490476,3.889448c0.122986,3.228395 -2.721076,5.365286 -5.887978,4.381394c-1.045385,-0.384333 -2.060024,-0.830159 -3.043916,-1.352851c-0.953145,-0.461199 -1.614198,-0.430453 -1.829424,0.799412c-0.722546,4.104674 -1.398971,8.055615 0,12.314022c2.428983,7.456056 4.243034,15.111965 6.303058,22.691007c1.152998,4.243034 -0.061493,6.579777 -4.427514,7.117843c-3.474368,0.430453 -5.134686,2.13689 -6.318431,5.211552c-1.460465,3.827954 -3.305262,7.486802 -5.057819,11.19177c-0.676426,1.445091 -0.891652,2.567343 0.614932,3.735715s1.537331,2.967049 0.953145,4.704233c-0.522693,1.598824 -1.99853,2.705703 -3.674221,2.767196c-2.121517,0.199853 -4.27378,0.199853 -6.395297,0c-3.136155,-0.338213 -4.765726,-3.920194 -3.597355,-6.333804c2.352117,-4.91946 4.535127,-9.931159 6.77963,-14.912112c0.415079,-1.030012 0.830159,-2.04465 1.460465,-3.535862z" class="st0" id="Path_2_"/>
  </g>
 </g>
</svg>