<svg width="128" height="128" xmlns="http://www.w3.org/2000/svg">
 <style type="text/css">.st0{fill:#020203;}
	.st1{fill:none;}</style>

 <g>
  <title>background</title>
  <rect fill="none" id="canvas_background" height="402" width="582" y="-1" x="-1"/>
 </g>
 <g>
  <title>Layer 1</title>
  <g stroke="null" id="svg_1">
   <path stroke="null" d="m103.327544,39.939902c0,2.156372 -0.693119,3.958482 -2.741672,4.975057c-1.401642,0.739327 -3.065128,0.708522 -4.435964,-0.077013c-4.867239,-2.49523 -9.765283,-4.928849 -14.647924,-7.362469c-2.140969,-1.093588 -2.187177,-1.093588 -2.710867,1.340031c-1.709695,8.47146 -3.188349,16.989127 -5.082876,25.414379c-0.847146,3.789053 -0.138624,6.330491 2.926504,8.964345c5.729787,4.928849 11.012898,10.350584 16.419229,15.618291c3.280765,3.172947 3.419389,4.882641 1.232212,8.933539c-3.095933,5.775995 -6.114854,11.598198 -9.210787,17.374194c-0.75473,1.401642 -1.001173,2.372009 0.29265,3.804456c1.108991,1.201407 1.494057,2.895699 1.016575,4.451367c-0.492885,1.555668 -1.771305,2.741672 -3.373181,3.080531c-2.49523,0.508288 -5.052071,0.646911 -7.578106,0.400469c-3.450195,-0.323456 -5.067473,-3.681234 -3.604221,-7.008208c0.954965,-2.187177 2.125566,-4.220327 3.234557,-6.315088c3.003518,-5.729787 5.97623,-11.459575 9.056761,-17.143154c0.723925,-1.340031 0.708522,-2.187177 -0.477482,-3.280765c-3.619624,-3.326973 -7.116026,-6.777168 -10.704845,-10.150349c-0.477482,-0.354261 -1.001173,-0.646911 -1.555668,-0.862549c-0.169429,0.492885 -0.308053,1.001173 -0.400469,1.524863c-0.908757,6.669349 -1.802111,13.338698 -2.680062,20.008048c-0.554496,4.081703 -2.618451,5.791398 -6.700155,5.298513c-9.195384,-1.139796 -18.406172,-2.325801 -27.616959,-3.54261c-1.263018,-0.277248 -2.556841,0.123221 -3.465597,1.04738c-0.770133,0.770133 -1.648084,1.447849 -2.587646,1.97154c-1.909929,1.04738 -4.29734,0.616106 -5.729787,-1.016575c-1.370836,-1.494057 -1.709695,-4.204925 -0.277248,-5.791398c1.802111,-2.03315 3.835261,-3.881469 6.053243,-5.467942c0.98577,-0.693119 2.633854,-0.831743 3.912274,-0.693119c7.870756,0.877951 15.72611,1.909929 23.581463,2.895699c0.354261,0.046208 0.723925,0.138624 1.093588,0.169429c2.464425,0.308053 2.633854,0.169429 2.95731,-2.187177c2.079358,-15.510473 4.050898,-31.020945 7.039013,-46.377391c0.939562,-4.821031 2.094761,-9.595853 3.142141,-14.386079c0.569898,-2.649256 0.569898,-2.695464 -1.925332,-3.419389c-3.157544,-0.908757 -6.315088,-1.771305 -9.488035,-2.572243c-1.755903,-0.446677 -2.094761,-0.246442 -2.279593,1.617279c-0.23104,2.26419 -0.200235,4.543783 -0.338858,6.807973c-0.030805,1.093588 -0.169429,2.171774 -0.431274,3.234557c-0.569898,2.002345 -2.433619,3.342376 -4.512978,3.280765c-2.079358,0.015403 -3.912274,-1.355434 -4.482172,-3.342376c-0.23104,-0.693119 -0.338858,-1.417044 -0.323456,-2.140969c0.246442,-5.360124 0.477482,-10.720247 0.831743,-16.080371c0.246442,-3.758248 2.649256,-5.575761 6.330491,-4.713212c4.420562,1.031978 8.810318,2.26419 13.215477,3.419389c0.431274,0.107819 0.862549,0.261845 1.309226,0.369664c2.310398,0.554496 2.26419,0.554496 1.648084,-1.786708c-1.586473,-6.099451 -0.23104,-11.367159 4.605394,-15.541278c4.52838,-3.881469 9.688269,-4.328146 15.125406,-2.418217c2.941907,1.031978 5.067473,3.188349 6.79257,5.714385c0.677717,0.98577 1.263018,1.463252 2.603049,1.386239c3.172947,-0.184832 5.098278,1.709695 5.252305,4.928849c0.092416,2.002345 0,4.00469 0,6.022438m-9.965517,6.284283c-1.062783,0.75473 -1.771305,1.27842 -2.526035,1.771305c-0.739327,0.492885 -1.648084,1.016575 -2.649256,1.648084c0.261845,0.246442 0.554496,0.446677 0.862549,0.646911c1.309226,0.554496 2.633854,1.093588 3.958482,1.617279c0.169429,-1.386239 0.354261,-2.741672 0.508288,-4.158717c-0.015403,-0.52369 -0.061611,-1.016575 -0.154027,-1.524863z" class="st0" id="Shape_1_"/>
  </g>
 </g>
</svg>