<?xml version="1.0" encoding="utf-8"?>
<!-- Generator: Adobe Illustrator 24.0.3, SVG Export Plug-In . SVG Version: 6.00 Build 0)  -->
<svg version="1.1" id="Layer_1" xmlns="http://www.w3.org/2000/svg" xmlns:xlink="http://www.w3.org/1999/xlink" x="0px" y="0px"
	 viewBox="0 0 128 128" style="enable-background:new 0 0 128 128;" xml:space="preserve">
<style type="text/css">
	.st0{fill:#020203;}
	.st1{fill:none;}
</style>
<g>
	<path id="Path_2_" class="st0" d="M58.65,88.66c-2.7,0.47-5.06,0.81-7.38,1.34c-0.56,0.12-1.05,0.72-1.52,1.17
		c-0.59,0.57-1.04,1.34-1.7,1.78c-1.15,0.78-2.35,0.6-3.35-0.32c-1-0.92-1.34-2.24-0.67-3.32c0.8-1.4,1.74-2.7,2.82-3.89
		c0.59-0.62,1.63-0.95,2.52-1.13c3.34-0.67,6.68-1.2,10.01-1.78c1.54-0.27,1.63-0.33,1.6-1.94c-0.11-4.94-0.4-9.88-0.31-14.81
		c0.05-2.86,0.67-5.71,1.05-8.56c0.2-1.45,0.23-1.44-1.15-2.08c-0.7-0.33-1.41-0.67-2.1-1c-2.09-1.08-2.57-2.92-1.21-4.82
		c2.2-3.12,4.47-6.21,6.73-9.31c0.69-1.01,1.42-1.99,2.2-2.92c0.56-0.54,0.73-1.38,0.42-2.1c-0.65-1.97-0.6-4.1,0.15-6.04
		c1.52-3.97,5.82-6.41,9.89-5.64c4.38,0.83,7.62,4.59,7.55,8.89c-0.01,2.65-1.19,5.17-3.22,6.87c-2.03,1.7-4.72,2.42-7.33,1.96
		c-2.08-0.4-2.09-0.37-2.09,1.81c0,2,0.04,4.01,0.03,6.01c0,0.71,0.25,0.88,0.91,0.61c2.3-0.98,4.61-1.94,6.91-2.9
		c0.41-0.17,0.82-0.35,1.24-0.49c1.49-0.53,3.12,0.21,3.72,1.67c0.31,0.67,0.34,1.43,0.08,2.11c-0.26,0.69-0.79,1.24-1.46,1.53
		c-2.05,1-4.17,1.83-6.26,2.73c-0.25,0.11-0.52,0.2-0.77,0.31c-1.69,0.71-1.69,0.71-1.62,2.53c0.08,2.1-1.77,3.49-3.83,2.85
		c-0.68-0.25-1.34-0.54-1.98-0.88c-0.62-0.3-1.05-0.28-1.19,0.52c-0.47,2.67-0.91,5.24,0,8.01c1.58,4.85,2.76,9.83,4.1,14.76
		c0.75,2.76-0.04,4.28-2.88,4.63c-2.26,0.28-3.34,1.39-4.11,3.39c-0.95,2.49-2.15,4.87-3.29,7.28c-0.44,0.94-0.58,1.67,0.4,2.43
		s1,1.93,0.62,3.06c-0.34,1.04-1.3,1.76-2.39,1.8c-1.38,0.13-2.78,0.13-4.16,0c-2.04-0.22-3.1-2.55-2.34-4.12
		c1.53-3.2,2.95-6.46,4.41-9.7C57.97,90.29,58.24,89.63,58.65,88.66z"/>
</g>
</svg>
