<?xml version="1.0" encoding="utf-8"?>
<!-- Generator: Adobe Illustrator 24.0.3, SVG Export Plug-In . SVG Version: 6.00 Build 0)  -->
<svg version="1.1" id="Layer_1" xmlns="http://www.w3.org/2000/svg" xmlns:xlink="http://www.w3.org/1999/xlink" x="0px" y="0px"
	 viewBox="0 0 128 128" style="enable-background:new 0 0 128 128;" xml:space="preserve">
<style type="text/css">
	.st0{fill:#020203;}
	.st1{fill:none;}
</style>
<g id="Page-1_2_">
	<g id="_x34_" transform="translate(0.205736, 0.000000)">
		<path id="Shape" class="st0" d="M68.37,48.15c-0.58,3.01-1.18,6.02-1.74,9.04c-0.32,1.75-0.56,3.52-0.91,5.26
			c-0.22,0.9-0.02,1.85,0.54,2.6c3,4.3,5.96,8.62,8.94,12.94c0.18,0.27,0.37,0.54,0.56,0.8c1,1.33,1,2.64,0.05,4.03
			c-2.15,3.11-4.25,6.26-6.36,9.39c-0.97,1.43-1.9,2.9-2.92,4.29c-0.54,0.63-0.63,1.53-0.21,2.24c0.2,0.38,0.36,0.79,0.47,1.21
			c0.35,1.36-0.33,2.78-1.62,3.34c-1.19,0.54-2.76,0.18-3.41-1.03c-0.74-1.44-1.37-2.93-1.88-4.47c-0.32-0.94,0.15-1.8,0.68-2.58
			c2.71-4.06,5.43-8.1,8.17-12.11c1.54-2.24,1.58-2.22,0.05-4.44c-1.6-2.31-3.2-4.62-4.82-6.92c-0.18-0.25-0.39-0.47-0.73-0.89
			c-0.56,1.43-1.06,2.66-1.53,3.9c-1.05,2.78-2.03,5.59-3.16,8.33c-0.59,1.27-1.28,2.5-2.06,3.66c-2.39,3.86-4.85,7.67-7.2,11.56
			c-0.56,0.94-0.8,2.08-1.16,3.14c-0.24,0.71-0.32,1.49-0.69,2.13c-0.59,1.08-1.86,1.53-3.09,1.24c-1.14-0.25-2.06-1.18-2.06-2.4
			c0-2.05,0.17-4.1,1.3-5.92c2.95-4.72,5.93-9.42,8.81-14.18c0.79-1.41,1.45-2.89,1.98-4.42c1.67-4.33,3.28-8.69,4.91-13.05
			c0.18-0.45,0.32-0.92,0.44-1.39c0.2-0.63-0.05-1.32-0.62-1.67c-0.6-0.46-1.09-1.04-1.43-1.7c-1.72-3.36-3.39-6.74-5.06-10.15
			c-0.87-1.77-0.4-3.22,1.38-4.46c3.1-2.16,6.22-4.31,9.32-6.47c0.61-0.43,1.45-0.83,1.67-1.44c0.16-0.45-0.53-1.2-0.83-1.81
			c-1.72-3.58-0.84-7.88,2.16-10.49c2.74-2.46,7.31-2.86,10.42-0.74c2.88,1.97,4.41,4.74,3.98,8.31c-0.47,3.9-2.68,6.39-6.44,7.47
			c-0.68,0.18-1.38,0.3-2.08,0.38c-0.44,0.06-0.79,0.2-0.51,0.71c1.01,1.85,2.05,3.69,3.08,5.52c0.3,0.53,0.59,0.28,0.86-0.06
			c1.08-1.42,2.16-2.83,3.25-4.24c0.82-1.07,1.58-2.2,2.49-3.2c1.51-1.67,3.9-1.24,4.78,0.79c0.52,1.19,0.1,2.2-0.65,3.16
			c-2.49,3.26-4.98,6.52-7.47,9.79c-0.32,0.43-0.65,0.88-1,1.28c-1.56,1.71-3.66,1.56-4.87-0.43c-1.05-1.7-1.98-3.47-2.96-5.19
			c-0.13-0.23-0.27-0.45-0.41-0.68L68.37,48.15z M62.79,46.71l-0.3-0.19c-1.05,0.73-2.12,1.44-3.14,2.21
			c-0.24,0.19-0.5,0.7-0.41,0.92c0.61,1.61,1.38,3.16,2.3,4.63C61.81,51.52,62.3,49.12,62.79,46.71z"/>
	</g>
</g>
</svg>
