<?xml version="1.0" encoding="utf-8"?>
<!-- Generator: Adobe Illustrator 24.0.3, SVG Export Plug-In . SVG Version: 6.00 Build 0)  -->
<svg version="1.1" id="Layer_1" xmlns="http://www.w3.org/2000/svg" xmlns:xlink="http://www.w3.org/1999/xlink" x="0px" y="0px"
	 viewBox="0 0 128 128" style="enable-background:new 0 0 128 128;" xml:space="preserve">
<style type="text/css">
	.st0{fill:#020203;}
	.st1{fill:none;}
</style>
<g>
	<g>
		<path class="st0" d="M71.26,36.31c-5.15,3.14-10.36,6.18-15.64,9.1c-3.38,1.87-0.36,7.06,3.03,5.18
			c5.28-2.92,10.49-5.96,15.64-9.1C77.58,39.48,74.57,34.29,71.26,36.31L71.26,36.31z"/>
	</g>
</g>
<g>
	<g>
		<path class="st0" d="M54.36,46.5c-2.08,3-4.23,5.94-6.45,8.83c-0.99,1.29-0.2,3.36,1.08,4.1c1.55,0.91,3.11,0.21,4.1-1.08
			c2.22-2.89,4.37-5.83,6.45-8.83C61.75,46.35,56.55,43.35,54.36,46.5L54.36,46.5z"/>
	</g>
</g>
<g>
	<g>
		<path class="st0" d="M70.47,41.78c1.53,4.4,3.06,8.8,4.58,13.21c1.26,3.63,7.06,2.07,5.79-1.6c-1.53-4.4-3.06-8.8-4.58-13.21
			C75,36.56,69.2,38.12,70.47,41.78L70.47,41.78z"/>
	</g>
</g>
<g>
	<g>
		<path class="st0" d="M78.89,57.28c4.71-1.81,9.35-3.77,13.92-5.88c3.5-1.62,0.46-6.79-3.03-5.18c-4.11,1.9-8.27,3.66-12.49,5.28
			C73.73,52.87,75.28,58.67,78.89,57.28L78.89,57.28z"/>
	</g>
</g>
<g>
	<g>
		<path class="st0" d="M69.35,41.1c-2.13,7.5-4.11,15.04-5.94,22.62c-0.9,3.75,4.88,5.35,5.79,1.6c1.83-7.58,3.81-15.12,5.94-22.62
			C76.19,38.97,70.4,37.39,69.35,41.1L69.35,41.1z"/>
	</g>
</g>
<g>
	<g>
		<path class="st0" d="M64.07,66.61c4.1,4.83,8.15,9.7,12.14,14.61c2.44,3,6.66-1.27,4.24-4.24c-3.99-4.92-8.04-9.79-12.14-14.61
			C65.81,59.42,61.58,63.68,64.07,66.61L64.07,66.61z"/>
	</g>
</g>
<g>
	<g>
		<path class="st0" d="M75.17,79.29c-0.04,7.56,0.22,15.11,0.77,22.65c0.11,1.45,1.3,3.22,3,3c2.03-0.26,4-0.58,6-1.05
			c3.76-0.88,2.17-6.66-1.6-5.79c-1.45,0.38-2.92,0.66-4.4,0.83c1,1,2,2,3,3c-0.55-7.54-0.8-15.09-0.77-22.65
			C81.18,75.43,75.18,75.42,75.17,79.29L75.17,79.29z"/>
	</g>
</g>
<g>
	<g>
		<path class="st0" d="M63.3,63.69c-2.23,5.74-4.76,11.35-7.55,16.84C54,83.96,59.18,87,60.93,83.56
			c3.02-5.95,5.73-12.05,8.15-18.27C70.48,61.68,64.68,60.12,63.3,63.69L63.3,63.69z"/>
	</g>
</g>
<g>
	<g>
		<path class="st0" d="M57.28,79.41c-7.02,1.48-14.04,2.95-21.06,4.43c-3.78,0.79-2.18,6.58,1.6,5.79
			c7.02-1.48,14.04-2.95,21.06-4.43C62.65,84.4,61.06,78.62,57.28,79.41L57.28,79.41z"/>
	</g>
</g>
<g>
	<g>
		<path class="st0" d="M33.54,87.6c0.26,1,0.51,2,0.77,3c0.39,1.52,2.17,2.59,3.69,2.1c1.57-0.51,2.52-2.06,2.1-3.69
			c-0.26-1-0.51-2-0.77-3c-0.39-1.52-2.17-2.59-3.69-2.1C34.07,84.42,33.12,85.97,33.54,87.6L33.54,87.6z"/>
	</g>
</g>
<g>
	<g>
		<path class="st0" d="M37.48,85.13c-0.61,0.73-1,1.37-1.35,2.25c-0.25,0.64-0.34,1.32-0.38,2c-0.05,0.74,0.37,1.61,0.88,2.12
			c0.52,0.52,1.37,0.91,2.12,0.88c1.72-0.08,2.88-1.32,3-3c0-0.09,0.01-0.18,0.02-0.27c-0.04,0.27-0.07,0.53-0.11,0.8
			c0.05-0.32,0.13-0.62,0.25-0.92c-0.1,0.24-0.2,0.48-0.3,0.72c0.13-0.3,0.29-0.57,0.49-0.82c-0.16,0.2-0.31,0.4-0.47,0.61
			c0.03-0.04,0.06-0.07,0.09-0.11c0.52-0.63,0.88-1.28,0.88-2.12c0-0.74-0.33-1.61-0.88-2.12c-0.57-0.52-1.32-0.91-2.12-0.88
			C38.85,84.29,37.98,84.53,37.48,85.13L37.48,85.13z"/>
	</g>
</g>
<g>
	<g>
		<path class="st0" d="M75.36,40.71c11.58,0,11.6-18,0-18C63.78,22.71,63.76,40.71,75.36,40.71L75.36,40.71z"/>
	</g>
</g>
</svg>
