<?xml version="1.0" encoding="utf-8"?>
<!-- Generator: Adobe Illustrator 24.0.3, SVG Export Plug-In . SVG Version: 6.00 Build 0)  -->
<svg version="1.1" id="Layer_1" xmlns="http://www.w3.org/2000/svg" xmlns:xlink="http://www.w3.org/1999/xlink" x="0px" y="0px"
	 viewBox="0 0 128 128" style="enable-background:new 0 0 128 128;" xml:space="preserve">
<style type="text/css">
	.st0{fill:#020203;}
	.st1{fill:none;}
</style>
<g>
	<g>
		<g>
			<path class="st0" d="M60.85,67.29c1.19,2.6,1.42,5.79,2.15,8.56c0.76,2.88,1.65,5.72,2.53,8.56c1.14,3.68,6.94,2.11,5.79-1.6
				c-1.01-3.25-2.03-6.5-2.85-9.79c-0.75-2.98-1.16-5.95-2.44-8.75C64.42,60.75,59.25,63.8,60.85,67.29L60.85,67.29z"/>
		</g>
	</g>
	<g>
		<g>
			<path class="st0" d="M65.93,36.01c-3.15,4.65-6.21,9.36-9.2,14.11c-2.06,3.28,3.13,6.29,5.18,3.03c2.99-4.76,6.05-9.46,9.2-14.11
				C73.28,35.83,68.08,32.83,65.93,36.01L65.93,36.01z"/>
		</g>
	</g>
	<g>
		<g>
			<path class="st0" d="M57.84,54.39c4.15,2.59,8.6,4.59,13.28,6c3.7,1.12,5.29-4.67,1.6-5.79c-4.21-1.27-8.12-3.07-11.85-5.4
				C57.59,47.16,54.57,52.35,57.84,54.39L57.84,54.39z"/>
		</g>
	</g>
	<g>
		<g>
			<path class="st0" d="M65.9,39.17c-2.36,7.46-4.11,15.06-5.15,22.82c-1.08,8.13-0.9,16.42-2.36,24.5c-0.69,3.78,5.1,5.39,5.79,1.6
				c1.34-7.4,1.31-14.89,2.12-22.35c0.93-8.5,2.81-16.82,5.39-24.96C72.86,37.08,67.07,35.5,65.9,39.17L65.9,39.17z"/>
		</g>
	</g>
	<g>
		<g>
			<path class="st0" d="M58.45,86.62c-1.68,4.91-3.41,9.79-5.2,14.65c-1.34,3.63,4.46,5.19,5.79,1.6c1.79-4.86,3.52-9.75,5.2-14.65
				C65.49,84.55,59.7,82.98,58.45,86.62L58.45,86.62z"/>
		</g>
	</g>
	<g>
		<g>
			<path class="st0" d="M59.17,98.88c-0.98,0-1.97,0-2.95,0c-1.57,0-3.07,1.38-3,3c0.07,1.63,1.32,3,3,3c0.98,0,1.97,0,2.95,0
				c1.57,0,3.07-1.38,3-3C62.1,100.25,60.86,98.88,59.17,98.88L59.17,98.88z"/>
		</g>
	</g>
	<g>
		<g>
			<path class="st0" d="M66.96,81.19C61.42,83.58,56,86.2,50.69,89.07c-3.4,1.84-0.37,7.02,3.03,5.18
				c5.31-2.87,10.73-5.49,16.27-7.88C73.52,84.85,70.47,79.68,66.96,81.19L66.96,81.19z"/>
		</g>
	</g>
	<g>
		<g>
			<path class="st0" d="M49.25,91.01c-0.26,1.48-0.47,2.97-0.66,4.46c-0.19,1.47,1.29,2.77,2.6,2.95c1.35,0.18,3.04-0.68,3.29-2.15
				c0.17-1.01,0.35-2.02,0.52-3.03c0.26-1.54-0.41-3.31-2.1-3.69c-1.45-0.33-3.41,0.44-3.69,2.1c-0.17,1.01-0.35,2.02-0.52,3.03
				c1.96,0.27,3.93,0.53,5.89,0.8c0.12-0.94-0.09,0.6,0.04-0.33c0.04-0.28,0.08-0.56,0.12-0.85c0.09-0.56,0.18-1.13,0.28-1.69
				c0.27-1.54-0.41-3.31-2.1-3.69C51.48,88.58,49.54,89.36,49.25,91.01L49.25,91.01z"/>
		</g>
	</g>
	<g>
		<g>
			<path class="st0" d="M65.72,42.71c0.75,2.42,1.45,4.86,2.24,7.27c0.53,1.64,0.98,3.01,2.82,3.55c1.89,0.56,4.02-0.33,5.82-0.88
				c2.28-0.68,4.55-1.37,6.83-2.05c3.69-1.11,2.12-6.9-1.6-5.79c-1.63,0.49-3.25,0.98-4.88,1.47c-1.09,0.33-3.77,1.73-4.81,1.38
				c0.6,0.46,1.2,0.92,1.79,1.38c-1.17-2.35-1.65-5.42-2.43-7.94C70.37,37.44,64.58,39.01,65.72,42.71L65.72,42.71z"/>
		</g>
	</g>
	<g>
		<g>
			<path class="st0" d="M71.92,41.27c11.58,0,11.6-18,0-18C60.34,23.27,60.32,41.27,71.92,41.27L71.92,41.27z"/>
		</g>
	</g>
</g>
</svg>
