<?xml version="1.0" encoding="utf-8"?>
<!-- Generator: Adobe Illustrator 24.0.3, SVG Export Plug-In . SVG Version: 6.00 Build 0)  -->
<svg version="1.1" id="Layer_1" xmlns="http://www.w3.org/2000/svg" xmlns:xlink="http://www.w3.org/1999/xlink" x="0px" y="0px"
	 viewBox="0 0 128 128" style="enable-background:new 0 0 128 128;" xml:space="preserve">
<style type="text/css">
	.st0{fill:#020203;}
	.st1{fill:none;}
</style>
<g>
	<g>
		<g>
			<path class="st0" d="M54.57,51.71c0,2.39,0,4.79,0,7.18c0,3.86,6,3.87,6,0c0-2.39,0-4.79,0-7.18
				C60.57,47.85,54.57,47.85,54.57,51.71L54.57,51.71z"/>
		</g>
	</g>
	<g>
		<g>
			<path class="st0" d="M69.97,38.6c-4.91,3.61-9.76,7.32-14.53,11.12c-3.02,2.4,1.25,6.62,4.24,4.24
				c4.37-3.48,8.81-6.87,13.32-10.18C76.07,41.52,73.08,36.31,69.97,38.6L69.97,38.6z"/>
		</g>
	</g>
	<g>
		<g>
			<path class="st0" d="M71.94,43.78c4.47,2.77,8.95,5.53,13.42,8.3c3.29,2.04,6.31-3.15,3.03-5.18c-4.47-2.77-8.95-5.53-13.42-8.3
				C71.67,36.56,68.65,41.75,71.94,43.78L71.94,43.78z"/>
		</g>
	</g>
	<g>
		<g>
			<path class="st0" d="M89.53,50.89c2.94-4.01,5.93-7.98,9-11.89c2.36-3-1.86-7.28-4.24-4.24c-3.39,4.31-6.7,8.68-9.94,13.11
				C82.07,50.98,87.27,53.97,89.53,50.89L89.53,50.89z"/>
		</g>
	</g>
	<g>
		<g>
			<path class="st0" d="M70.04,41.66c-4,14.92-5.15,30.44-9.65,45.23c-1.13,3.7,4.66,5.29,5.79,1.6c4.5-14.8,5.65-30.32,9.65-45.23
				C76.83,39.52,71.04,37.92,70.04,41.66L70.04,41.66z"/>
		</g>
	</g>
	<g>
		<g>
			<path class="st0" d="M64.67,71.95c2.92,3.89,6.05,7.58,9.47,11.04c2.72,2.75,6.96-1.49,4.24-4.24c-3.05-3.09-5.92-6.35-8.53-9.82
				c-0.98-1.3-2.58-1.94-4.1-1.08C64.46,68.57,63.7,70.65,64.67,71.95L64.67,71.95z"/>
		</g>
	</g>
	<g>
		<g>
			<path class="st0" d="M73.4,80.09c-1.02,6.85-1.83,13.72-2.39,20.63c-0.31,3.85,5.69,3.83,6,0c0.52-6.37,1.23-12.71,2.18-19.03
				C79.75,77.91,73.97,76.28,73.4,80.09L73.4,80.09z"/>
		</g>
	</g>
	<g>
		<g>
			<path class="st0" d="M71.38,102.13c0.91,1.65,2.19,2.96,3.72,4.03c1.29,0.91,3.39,0.27,4.1-1.08c0.81-1.54,0.3-3.14-1.08-4.1
				c-0.44-0.31,0.35,0.31,0.07,0.07c-0.1-0.08-0.2-0.16-0.29-0.25c-0.24-0.21-0.46-0.44-0.67-0.67c-0.08-0.09-0.16-0.19-0.25-0.29
				c-0.24-0.27,0.36,0.53,0.07,0.07c-0.17-0.27-0.34-0.53-0.5-0.81c-0.76-1.38-2.77-1.94-4.1-1.08
				C71.06,98.93,70.57,100.66,71.38,102.13L71.38,102.13z"/>
		</g>
	</g>
	<g>
		<g>
			<path class="st0" d="M61.12,84.56c-1.14,3.94-2.42,7.97-3.14,12.02c-0.56,3.14,1.64,5.6,3.52,7.9c2.44,2.99,6.66-1.27,4.24-4.24
				c-1.98-2.43-1.54-4.01-0.8-6.89c0.61-2.41,1.28-4.8,1.96-7.19C67.98,82.44,62.19,80.85,61.12,84.56L61.12,84.56z"/>
		</g>
	</g>
	<g>
		<g>
			<path class="st0" d="M73.94,41.14c11.58,0,11.6-18,0-18C62.35,23.14,62.33,41.14,73.94,41.14L73.94,41.14z"/>
		</g>
	</g>
</g>
</svg>
