<?xml version="1.0" encoding="utf-8"?>
<!-- Generator: Adobe Illustrator 24.0.3, SVG Export Plug-In . SVG Version: 6.00 Build 0)  -->
<svg version="1.1" id="Layer_1" xmlns="http://www.w3.org/2000/svg" xmlns:xlink="http://www.w3.org/1999/xlink" x="0px" y="0px"
	 viewBox="0 0 128 128" style="enable-background:new 0 0 128 128;" xml:space="preserve">
<style type="text/css">
	.st0{fill:#020203;}
	.st1{fill:none;}
</style>
<g>
	<g>
		<g>
			<path class="st0" d="M64.64,38.36c-4.46-1.27-8.82-2.8-13.1-4.59c-3.56-1.49-5.11,4.31-1.6,5.79c4.28,1.79,8.64,3.32,13.1,4.59
				C66.76,45.2,68.35,39.42,64.64,38.36L64.64,38.36z"/>
		</g>
	</g>
	<g>
		<g>
			<path class="st0" d="M47.95,35.2c-2.06,3.07-4.34,5.95-6.83,8.67c-2.6,2.84,1.63,7.1,4.24,4.24c2.83-3.1,5.43-6.4,7.77-9.89
				C55.3,35.02,50.1,32.01,47.95,35.2L47.95,35.2z"/>
		</g>
	</g>
	<g>
		<g>
			<path class="st0" d="M64.73,44.53c2.55,3.74,5.09,7.48,7.64,11.22c2.16,3.17,7.36,0.17,5.18-3.03
				c-2.55-3.74-5.09-7.48-7.64-11.22C67.75,38.32,62.55,41.32,64.73,44.53L64.73,44.53z"/>
		</g>
	</g>
	<g>
		<g>
			<path class="st0" d="M76.21,57.49c3.45-1.44,6.89-2.88,10.34-4.33c1.51-0.63,2.55-1.98,2.1-3.69c-0.37-1.41-2.2-2.72-3.69-2.1
				c-3.45,1.44-6.89,2.88-10.34,4.33c-1.51,0.63-2.55,1.98-2.1,3.69C72.89,56.81,74.72,58.11,76.21,57.49L76.21,57.49z"/>
		</g>
	</g>
	<g>
		<g>
			<path class="st0" d="M63.02,40.59c-3.16,15.9-6.14,31.83-8.9,47.81c-0.65,3.78,5.13,5.4,5.79,1.6
				c2.76-15.98,5.74-31.91,8.9-47.81C69.56,38.41,63.78,36.8,63.02,40.59L63.02,40.59z"/>
		</g>
	</g>
	<g>
		<g>
			<path class="st0" d="M54.98,87.29c-2.6,3.12-5.31,6.16-8.12,9.09c-2.67,2.79,1.57,7.04,4.24,4.24c2.81-2.94,5.52-5.97,8.12-9.09
				c1.04-1.24,1.22-3.02,0-4.24C58.16,86.23,56.02,86.04,54.98,87.29L54.98,87.29z"/>
		</g>
	</g>
	<g>
		<g>
			<path class="st0" d="M46.49,100.02c1.04,1.83,2.54,3.34,4.33,4.43c1.34,0.82,3.36,0.34,4.1-1.08c0.77-1.46,0.35-3.23-1.08-4.1
				c-0.15-0.09-0.3-0.19-0.45-0.29c-0.09-0.06-0.18-0.12-0.26-0.19c0.09,0.07,0.18,0.14,0.27,0.21c-0.27-0.11-0.59-0.52-0.79-0.73
				c-0.1-0.1-0.2-0.21-0.29-0.32c-0.02-0.02-0.48-0.55-0.17-0.2c0.29,0.34-0.09-0.14-0.14-0.22c-0.12-0.18-0.23-0.37-0.33-0.55
				c-0.78-1.36-2.75-1.95-4.1-1.08C46.19,96.81,45.66,98.57,46.49,100.02L46.49,100.02z"/>
		</g>
	</g>
	<g>
		<g>
			<path class="st0" d="M60.63,73.13c3.86,0,3.87-6,0-6C56.77,67.13,56.77,73.13,60.63,73.13L60.63,73.13z"/>
		</g>
	</g>
	<g>
		<g>
			<path class="st0" d="M58.15,71.77c3.75,5.15,7.43,10.35,11.62,15.15c2.54,2.92,6.77-1.34,4.24-4.24
				c-3.85-4.42-7.24-9.2-10.68-13.94C61.08,65.65,55.87,68.64,58.15,71.77L58.15,71.77z"/>
		</g>
	</g>
	<g>
		<g>
			<path class="st0" d="M68.89,85.05c-0.48,5.8-0.62,11.6-0.42,17.42c0.13,3.85,6.13,3.87,6,0c-0.19-5.82-0.05-11.62,0.42-17.42
				C75.21,81.2,69.21,81.22,68.89,85.05L68.89,85.05z"/>
		</g>
	</g>
	<g>
		<g>
			<path class="st0" d="M71.86,105.07c1.37,0,2.75,0,4.12,0c1.57,0,3.07-1.38,3-3c-0.07-1.63-1.32-3-3-3c-1.37,0-2.75,0-4.12,0
				c-1.57,0-3.07,1.38-3,3C68.94,103.7,70.18,105.07,71.86,105.07L71.86,105.07z"/>
		</g>
	</g>
	<g>
		<g>
			<path class="st0" d="M70.9,41.28c11.58,0,11.6-18,0-18C59.32,23.28,59.3,41.28,70.9,41.28L70.9,41.28z"/>
		</g>
	</g>
</g>
</svg>
