<?xml version="1.0" encoding="utf-8"?>
<!-- Generator: Adobe Illustrator 24.0.3, SVG Export Plug-In . SVG Version: 6.00 Build 0)  -->
<svg version="1.1" id="Layer_1" xmlns="http://www.w3.org/2000/svg" xmlns:xlink="http://www.w3.org/1999/xlink" x="0px" y="0px"
	 viewBox="0 0 128 128" style="enable-background:new 0 0 128 128;" xml:space="preserve">
<style type="text/css">
	.st0{fill:#020203;}
	.st1{fill:none;}
</style>
<g>
	<path id="Shape_1_" class="st0" d="M90.45,48.34c0,1.4-0.45,2.57-1.78,3.23c-0.91,0.48-1.99,0.46-2.88-0.05
		c-3.16-1.62-6.34-3.2-9.51-4.78c-1.39-0.71-1.42-0.71-1.76,0.87c-1.11,5.5-2.07,11.03-3.3,16.5c-0.55,2.46-0.09,4.11,1.9,5.82
		c3.72,3.2,7.15,6.72,10.66,10.14c2.13,2.06,2.22,3.17,0.8,5.8c-2.01,3.75-3.97,7.53-5.98,11.28c-0.49,0.91-0.65,1.54,0.19,2.47
		c0.72,0.78,0.97,1.88,0.66,2.89c-0.32,1.01-1.15,1.78-2.19,2c-1.62,0.33-3.28,0.42-4.92,0.26c-2.24-0.21-3.29-2.39-2.34-4.55
		c0.62-1.42,1.38-2.74,2.1-4.1c1.95-3.72,3.88-7.44,5.88-11.13c0.47-0.87,0.46-1.42-0.31-2.13c-2.35-2.16-4.62-4.4-6.95-6.59
		c-0.31-0.23-0.65-0.42-1.01-0.56c-0.11,0.32-0.2,0.65-0.26,0.99c-0.59,4.33-1.17,8.66-1.74,12.99c-0.36,2.65-1.7,3.76-4.35,3.44
		c-5.97-0.74-11.95-1.51-17.93-2.3c-0.82-0.18-1.66,0.08-2.25,0.68c-0.5,0.5-1.07,0.94-1.68,1.28c-1.24,0.68-2.79,0.4-3.72-0.66
		c-0.89-0.97-1.11-2.73-0.18-3.76c1.17-1.32,2.49-2.52,3.93-3.55c0.64-0.45,1.71-0.54,2.54-0.45c5.11,0.57,10.21,1.24,15.31,1.88
		c0.23,0.03,0.47,0.09,0.71,0.11c1.6,0.2,1.71,0.11,1.92-1.42c1.35-10.07,2.63-20.14,4.57-30.11c0.61-3.13,1.36-6.23,2.04-9.34
		c0.37-1.72,0.37-1.75-1.25-2.22c-2.05-0.59-4.1-1.15-6.16-1.67c-1.14-0.29-1.36-0.16-1.48,1.05c-0.15,1.47-0.13,2.95-0.22,4.42
		c-0.02,0.71-0.11,1.41-0.28,2.1c-0.37,1.3-1.58,2.17-2.93,2.13c-1.35,0.01-2.54-0.88-2.91-2.17c-0.15-0.45-0.22-0.92-0.21-1.39
		c0.16-3.48,0.31-6.96,0.54-10.44c0.16-2.44,1.72-3.62,4.11-3.06c2.87,0.67,5.72,1.47,8.58,2.22c0.28,0.07,0.56,0.17,0.85,0.24
		c1.5,0.36,1.47,0.36,1.07-1.16c-1.03-3.96-0.15-7.38,2.99-10.09c2.94-2.52,6.29-2.81,9.82-1.57c1.91,0.67,3.29,2.07,4.41,3.71
		c0.44,0.64,0.82,0.95,1.69,0.9c2.06-0.12,3.31,1.11,3.41,3.2c0.06,1.3,0,2.6,0,3.91 M84.18,39.68c-0.69,0.49-1.15,0.83-1.64,1.15
		c-0.48,0.32-1.07,0.66-1.72,1.07c0.17,0.16,0.36,0.29,0.56,0.42c0.85,0.36,1.71,0.71,2.57,1.05c0.11-0.9,0.23-1.78,0.33-2.7
		C84.27,40.33,84.24,40.01,84.18,39.68z"/>
</g>
</svg>
