<?xml version="1.0" encoding="utf-8"?>
<!-- Generator: Adobe Illustrator 24.0.3, SVG Export Plug-In . SVG Version: 6.00 Build 0)  -->
<svg version="1.1" id="Layer_1" xmlns="http://www.w3.org/2000/svg" xmlns:xlink="http://www.w3.org/1999/xlink" x="0px" y="0px"
	 viewBox="0 0 128 128" style="enable-background:new 0 0 128 128;" xml:space="preserve">
<style type="text/css">
	.st0{fill:#020203;}
	.st1{fill:none;}
</style>
<g id="Page-1_4_">
	<path id="_x31_" class="st0" d="M67.47,24.05c3.29,1.53,4.93,4.27,5.07,7.8c0.14,3.22-1.31,5.8-4.01,7.62
		c-0.23,0.15-0.48,0.26-0.72,0.4c-0.13,0.08-0.81,0.32-1.86,0.73c-0.26,0.1-0.65,0.1-0.65,0.37c-0.08,0.17-0.09,0.49,0.12,0.9
		l0.23,0.36l0.01,0.01c0.02,0.03,0.04,0.06,0.06,0.09l13.25,20.61l0.05,0.08c0.82,1.36,0.41,3.14-0.94,4.01l0,0l-0.08,0.05
		c-1.36,0.82-3.14,0.41-4.01-0.94l0,0l-8.29-12.9c-0.03-0.05-0.08-0.08-0.14-0.08c-0.09,0-0.16,0.07-0.16,0.16l0,0l0,12.96
		l12.32,32.55c0.02,0.06,0.09,0.11,0.15,0.11l2.76,0c1.6,0,2.91,1.28,2.95,2.87l0,0.09c0,1.6-1.28,2.91-2.87,2.95l-0.09,0h-4.69
		c-1.08,0-2.07-0.59-2.59-1.54l-0.05-0.09L62.79,74.06c-0.03-0.09-0.12-0.13-0.21-0.1c-0.05,0.02-0.09,0.06-0.1,0.11l-8.2,28.96
		c-0.45,1.07-1.48,1.78-2.63,1.82l-0.1,0h-4.19c-1.63,0-2.95-1.32-2.95-2.95c0-1.6,1.28-2.91,2.87-2.95l0.09,0l2.1,0
		c0.07,0,0.14-0.05,0.16-0.12l9.79-32.69l0-12.81c0-0.09-0.07-0.16-0.16-0.16c-0.06,0-0.11,0.03-0.14,0.08l-8.29,12.9
		c-0.87,1.35-2.64,1.76-4.01,0.94l-0.08-0.05c-1.35-0.87-1.76-2.64-0.94-4.01l0.05-0.08l14.03-21.83c0.03-0.04,0.06-0.08,0.08-0.12
		c0.35-0.63,0.19-0.79-0.75-1.33c-4.76-2.78-6.37-10.44-0.72-14.68C61.23,22.92,64.32,22.58,67.47,24.05z"/>
</g>
</svg>
