<?xml version="1.0" encoding="utf-8"?>
<!-- Generator: Adobe Illustrator 24.0.3, SVG Export Plug-In . SVG Version: 6.00 Build 0)  -->
<svg version="1.1" id="Layer_1" xmlns="http://www.w3.org/2000/svg" xmlns:xlink="http://www.w3.org/1999/xlink" x="0px" y="0px"
	 viewBox="0 0 128 128" style="enable-background:new 0 0 128 128;" xml:space="preserve">
<style type="text/css">
	.st0{fill:#020203;}
	.st1{fill:none;}
</style>
<g id="Page-1_1_">
	<g id="_x36_" transform="translate(0.411472, 0.000000)">
		<path id="Path" class="st0" d="M84.13,31.99c0,4.07-2.2,7.21-6.1,8.68c-1.2,0.46-1.23,0.48-0.34,1.36
			c1.38,1.33,2.79,2.64,4.2,3.95c0.93,0.86,0.95,0.86,1.43-0.27c1.36-3.17,2.72-6.33,4.05-9.51c0.44-1.04,1.02-1.89,2.18-2.19
			c2.28-0.59,4.2,1.36,3.61,3.68c-0.23,0.76-0.52,1.49-0.86,2.21c-1.74,4.11-3.48,8.22-5.23,12.32c-0.21,0.52-0.47,1.03-0.78,1.5
			c-0.4,0.63-1.04,1.07-1.76,1.23c-0.73,0.16-1.49,0.02-2.12-0.38c-0.57-0.37-1.1-0.79-1.58-1.27c-1.82-1.7-3.62-3.4-5.43-5.09
			c-1.1-1.02-1.22-1.02-1.49,0.4c-1.02,5.26-1.99,10.53-3.08,15.78c-0.34,1.7-0.06,3.13,0.73,4.67c5.03,9.8,9.96,19.65,14.94,29.48
			c0.6,1.19,0.6,1.19,1.87,0.82c1.34-0.46,2.81,0.12,3.48,1.36c0.68,1.18,0.58,2.66-0.54,3.54c-1.32,1.06-2.75,1.97-4.27,2.72
			c-1.52,0.73-2.9,0.07-3.76-1.62c-1.55-3.02-3.01-6.08-4.53-9.1c-3.61-7.17-7.23-14.32-10.87-21.48c-0.63-1.24-0.77-1.25-1.46-0.08
			c-1.85,3.08-3.67,6.2-5.52,9.33c-0.37,0.64-0.74,1.27-1.15,1.88c-0.87,1.3-2.04,1.79-3.63,1.55c-5.53-0.84-11.07-1.56-16.61-2.38
			c-0.84-0.13-1.41,0.02-1.92,0.68c-0.31,0.4-0.68,0.76-1.09,1.07c-1.01,0.69-2.33,0.69-3.34,0c-1.09-0.78-1.65-2.09-1.13-3.27
			c0.83-1.87,2.21-3.44,3.97-4.5c0.64-0.39,1.65-0.34,2.47-0.24c3.42,0.43,6.83,0.96,10.23,1.45c1.84,0.27,3.69,0.52,5.53,0.83
			c0.96,0.16,1.55-0.16,2.04-1.02c2.58-4.45,5.24-8.85,7.85-13.28c0.25-0.45,0.42-0.94,0.51-1.45c1.25-6.42,2.47-12.86,3.74-19.28
			c0.29-1.52,0.27-1.59-1.21-1.46c-1.97,0.17-3.94,0.36-5.91,0.57c-1.17,0.12-1.16,0.14-1.06,1.36c0.17,2.32,0.39,4.62,0.51,6.93
			c0.02,0.67-0.12,1.34-0.42,1.94c-0.6,1.08-1.86,1.62-3.06,1.31c-1.22-0.24-2.14-1.24-2.3-2.47c-0.23-1.39-0.31-2.8-0.44-4.21
			c-0.19-2.14-0.37-4.27-0.58-6.42c-0.26-2.51,0.79-3.89,3.31-4.14c3.04-0.3,6.08-0.51,9.12-0.75c0.17,0,0.34-0.01,0.51-0.02
			c0.43-0.08,0.86-0.19,1.28-0.3c-0.19-0.37-0.34-0.77-0.57-1.12c-1.94-3.06-2.21-6.27-0.55-9.51c1.66-3.24,4.56-4.89,8.13-4.87
			C80.55,22.92,84.35,27.49,84.13,31.99z"/>
	</g>
</g>
</svg>
