<?xml version="1.0" encoding="utf-8"?>
<!-- Generator: Adobe Illustrator 24.0.3, SVG Export Plug-In . SVG Version: 6.00 Build 0)  -->
<svg version="1.1" id="Layer_1" xmlns="http://www.w3.org/2000/svg" xmlns:xlink="http://www.w3.org/1999/xlink" x="0px" y="0px"
	 viewBox="0 0 128 128" style="enable-background:new 0 0 128 128;" xml:space="preserve">
<style type="text/css">
	.st0{fill:#020203;}
	.st1{fill:none;}
</style>
<g>
	<g>
		<path class="st0" d="M57.02,69.59c1.62,2.48,2.41,5.49,3.58,8.21c1.26,2.93,2.66,5.8,4.05,8.66c1.69,3.47,6.87,0.43,5.18-3.03
			c-1.43-2.94-2.88-5.88-4.14-8.89c-1.12-2.67-1.89-5.54-3.49-7.98C60.1,63.35,54.9,66.35,57.02,69.59L57.02,69.59z"/>
	</g>
</g>
<g>
	<g>
		<path class="st0" d="M62.32,36.04c-3.15,4.65-6.21,9.36-9.2,14.11c-2.06,3.28,3.13,6.29,5.18,3.03c2.99-4.76,6.05-9.46,9.2-14.11
			C69.67,35.86,64.47,32.85,62.32,36.04L62.32,36.04z"/>
	</g>
</g>
<g>
	<g>
		<path class="st0" d="M71.09,35.16c3.86,0,3.87-6,0-6C67.22,29.16,67.22,35.16,71.09,35.16L71.09,35.16z"/>
	</g>
</g>
<g>
	<g>
		<path class="st0" d="M54.23,54.41c4.15,2.59,8.6,4.59,13.28,6c3.7,1.12,5.29-4.67,1.6-5.79c-4.21-1.27-8.12-3.07-11.85-5.4
			C53.97,47.18,50.96,52.37,54.23,54.41L54.23,54.41z"/>
	</g>
</g>
<g>
	<g>
		<path class="st0" d="M62.29,39.19c-2.36,7.46-4.11,15.06-5.15,22.82c-1.08,8.13-0.9,16.42-2.36,24.5c-0.69,3.78,5.1,5.39,5.79,1.6
			c1.34-7.4,1.31-14.89,2.12-22.35c0.93-8.5,2.81-16.82,5.39-24.96C69.25,37.1,63.45,35.52,62.29,39.19L62.29,39.19z"/>
	</g>
</g>
<g>
	<g>
		<path class="st0" d="M54.78,86.64c-1.68,4.91-3.41,9.79-5.2,14.65c-1.34,3.63,4.46,5.19,5.79,1.6c1.79-4.86,3.52-9.75,5.2-14.65
			C61.82,84.57,56.02,83,54.78,86.64L54.78,86.64z"/>
	</g>
</g>
<g>
	<g>
		<path class="st0" d="M55.56,98.9c-0.98,0-1.97,0-2.95,0c-1.57,0-3.07,1.38-3,3c0.07,1.63,1.32,3,3,3c0.98,0,1.97,0,2.95,0
			c1.57,0,3.07-1.38,3-3C58.49,100.27,57.24,98.9,55.56,98.9L55.56,98.9z"/>
	</g>
</g>
<g>
	<g>
		<path class="st0" d="M64.13,84.31c-1.2,3.92-2.64,7.85-3.63,11.83c-0.91,3.64,1.21,5.07,3.72,7.48c2.79,2.67,7.04-1.57,4.24-4.24
			c-0.6-0.58-1.81-1.38-1.99-2.26c-0.13-0.66,0.94-3.08,1.15-3.74c0.76-2.49,1.53-4.98,2.29-7.47
			C71.05,82.21,65.26,80.62,64.13,84.31L64.13,84.31z"/>
	</g>
</g>
<g>
	<g>
		<path class="st0" d="M71.09,41.16c11.58,0,11.6-18,0-18C59.5,23.16,59.48,41.16,71.09,41.16L71.09,41.16z"/>
	</g>
</g>
</svg>
