<?xml version="1.0" encoding="utf-8"?>
<!-- Generator: Adobe Illustrator 24.0.3, SVG Export Plug-In . SVG Version: 6.00 Build 0)  -->
<svg version="1.1" id="Layer_1" xmlns="http://www.w3.org/2000/svg" xmlns:xlink="http://www.w3.org/1999/xlink" x="0px" y="0px"
	 viewBox="0 0 128 128" style="enable-background:new 0 0 128 128;" xml:space="preserve">
<style type="text/css">
	.st0{fill:#020203;}
	.st1{fill:none;}
</style>
<g>
	<g>
		<path class="st0" d="M62.44,40.99c0.45,3.44,1.16,6.76,2.32,10.04c1.28,3.61,7.08,2.06,5.79-1.6c-0.97-2.74-1.73-5.56-2.11-8.45
			c-0.21-1.61-1.23-3-3-3C63.99,37.99,62.23,39.38,62.44,40.99L62.44,40.99z"/>
	</g>
</g>
<g>
	<g>
		<path class="st0" d="M57.74,67.31c1.19,2.6,1.42,5.79,2.15,8.56c0.76,2.88,1.65,5.72,2.53,8.56c1.14,3.68,6.94,2.11,5.79-1.6
			c-1.01-3.25-2.03-6.5-2.85-9.79c-0.75-2.98-1.16-5.95-2.44-8.75C61.32,60.78,56.14,63.82,57.74,67.31L57.74,67.31z"/>
	</g>
</g>
<g>
	<g>
		<path class="st0" d="M62.82,36.04c-3.15,4.65-6.21,9.36-9.2,14.11c-2.06,3.28,3.13,6.29,5.18,3.03c2.99-4.76,6.05-9.46,9.2-14.11
			C70.17,35.86,64.97,32.85,62.82,36.04L62.82,36.04z"/>
	</g>
</g>
<g>
	<g>
		<path class="st0" d="M54.73,54.41c4.15,2.59,8.6,4.59,13.28,6c3.7,1.12,5.29-4.67,1.6-5.79c-4.21-1.27-8.12-3.07-11.85-5.4
			C54.48,47.18,51.46,52.37,54.73,54.41L54.73,54.41z"/>
	</g>
</g>
<g>
	<g>
		<path class="st0" d="M62.8,39.19c-2.36,7.46-4.11,15.06-5.15,22.82c-1.08,8.13-0.9,16.42-2.36,24.5c-0.69,3.78,5.1,5.39,5.79,1.6
			c1.34-7.4,1.31-14.89,2.12-22.35c0.93-8.5,2.81-16.82,5.39-24.96C69.75,37.1,63.96,35.52,62.8,39.19L62.8,39.19z"/>
	</g>
</g>
<g>
	<g>
		<path class="st0" d="M55.34,86.64c-1.68,4.91-3.41,9.79-5.2,14.65c-1.34,3.63,4.46,5.19,5.79,1.6c1.79-4.86,3.52-9.75,5.2-14.65
			C62.38,84.57,56.59,83,55.34,86.64L55.34,86.64z"/>
	</g>
</g>
<g>
	<g>
		<path class="st0" d="M56.06,98.9c-0.98,0-1.97,0-2.95,0c-1.57,0-3.07,1.38-3,3c0.07,1.63,1.32,3,3,3c0.98,0,1.97,0,2.95,0
			c1.57,0,3.07-1.38,3-3C58.99,100.27,57.75,98.9,56.06,98.9L56.06,98.9z"/>
	</g>
</g>
<g>
	<g>
		<path class="st0" d="M66.96,53.07c2.79,0.64,5.58,1.29,8.38,1.93c3.76,0.87,5.36-4.92,1.6-5.79c-2.79-0.64-5.58-1.29-8.38-1.93
			C64.79,46.42,63.19,52.2,66.96,53.07L66.96,53.07z"/>
	</g>
</g>
<g>
	<g>
		<path class="st0" d="M62.68,82.22c-2.05,4.04-4.25,8-6.6,11.88c-2.01,3.31,3.18,6.33,5.18,3.03c2.35-3.88,4.55-7.83,6.6-11.88
			C69.6,81.81,64.43,78.77,62.68,82.22L62.68,82.22z"/>
	</g>
</g>
<g>
	<g>
		<path class="st0" d="M57.02,98.11c0.83,0.51,1.66,1.01,2.49,1.52c1.34,0.82,3.36,0.34,4.1-1.08c0.77-1.46,0.35-3.23-1.08-4.1
			c-0.83-0.51-1.66-1.01-2.49-1.52c-1.34-0.82-3.36-0.34-4.1,1.08C55.17,95.47,55.59,97.24,57.02,98.11L57.02,98.11z"/>
	</g>
</g>
<g>
	<g>
		<path class="st0" d="M67.55,39.41c11.58,0,11.6-18,0-18C55.97,21.41,55.95,39.41,67.55,39.41L67.55,39.41z"/>
	</g>
</g>
</svg>
