<?xml version="1.0" encoding="utf-8"?>
<!-- Generator: Adobe Illustrator 24.0.3, SVG Export Plug-In . SVG Version: 6.00 Build 0)  -->
<svg version="1.1" id="Layer_1" xmlns="http://www.w3.org/2000/svg" xmlns:xlink="http://www.w3.org/1999/xlink" x="0px" y="0px"
	 viewBox="0 0 128 128" style="enable-background:new 0 0 128 128;" xml:space="preserve">
<style type="text/css">
	.st0{fill:#020203;}
	.st1{fill:none;}
</style>
<g>
	<g>
		<g>
			<path class="st0" d="M70.75,41.5c12.23,0,12.25-19,0-19C58.52,22.5,58.5,41.5,70.75,41.5L70.75,41.5z"/>
		</g>
	</g>
	<g>
		<g>
			<path class="st0" d="M67.29,44.85c4.08,2.27,8.32,4.19,12.69,5.82c3.62,1.35,5.19-4.45,1.6-5.79c-3.89-1.45-7.63-3.2-11.26-5.22
				C66.94,37.79,63.91,42.97,67.29,44.85L67.29,44.85z"/>
		</g>
	</g>
	<g>
		<g>
			<path class="st0" d="M83.13,50c3.12-3.67,6.32-7.26,9.61-10.78c2.64-2.82-1.6-7.07-4.24-4.24c-3.29,3.52-6.49,7.11-9.61,10.78
				C76.41,48.68,80.63,52.95,83.13,50L83.13,50z"/>
		</g>
	</g>
	<g>
		<g>
			<path class="st0" d="M64.51,36.38c-3.93,17.32-5.24,35.09-9.04,52.43c-0.83,3.76,4.96,5.37,5.79,1.6
				c3.81-17.34,5.12-35.11,9.04-52.43C71.15,34.21,65.37,32.6,64.51,36.38L64.51,36.38z"/>
		</g>
	</g>
	<g>
		<g>
			<path class="st0" d="M58.23,86.92c-6.56-0.49-13.13-0.78-19.71-0.88c-3.86-0.06-3.86,5.94,0,6c6.58,0.1,13.15,0.39,19.71,0.88
				C62.08,93.2,62.06,87.2,58.23,86.92L58.23,86.92z"/>
		</g>
	</g>
	<g>
		<g>
			<path class="st0" d="M59.77,71.95C62.62,77,66.1,81.64,70.15,85.8c2.69,2.78,6.94-1.47,4.24-4.24c-3.7-3.81-6.83-8.01-9.44-12.63
				C63.05,65.56,57.86,68.58,59.77,71.95L59.77,71.95z"/>
		</g>
	</g>
	<g>
		<g>
			<path class="st0" d="M69.37,83.76c0.18,6.15,0.8,12.24,1.8,18.31c0.63,3.8,6.41,2.19,5.79-1.6c-0.92-5.54-1.43-11.1-1.59-16.71
				C75.26,79.91,69.26,79.89,69.37,83.76L69.37,83.76z"/>
		</g>
	</g>
	<g>
		<g>
			<path class="st0" d="M74.97,103.93c1.47-0.34,2.95-0.69,4.42-1.03c1.53-0.36,2.58-2.19,2.1-3.69c-0.52-1.6-2.05-2.48-3.69-2.1
				c-1.47,0.34-2.95,0.69-4.42,1.03c-1.53,0.36-2.58,2.19-2.1,3.69C71.79,103.43,73.33,104.31,74.97,103.93L74.97,103.93z"/>
		</g>
	</g>
	<g>
		<g>
			<path class="st0" d="M67.07,39.25c-5.13-1.58-10.15-3.43-15.05-5.62c-3.5-1.56-6.55,3.61-3.03,5.18
				c5.38,2.4,10.85,4.5,16.48,6.23C69.17,46.17,70.75,40.38,67.07,39.25L67.07,39.25z"/>
		</g>
	</g>
	<g>
		<g>
			<path class="st0" d="M49.59,33.45c-4.54,0.89-9.09,1.78-13.63,2.68c-3.79,0.74-2.18,6.53,1.6,5.79
				c4.54-0.89,9.09-1.78,13.63-2.68C54.97,38.5,53.37,32.71,49.59,33.45L49.59,33.45z"/>
		</g>
	</g>
	<g>
		<g>
			<path class="st0" d="M36.07,87.43c-0.49,1.04-0.97,2.07-1.46,3.11c-0.67,1.42-0.44,3.3,1.08,4.1c1.33,0.7,3.39,0.44,4.1-1.08
				c0.49-1.04,0.97-2.07,1.46-3.11c0.67-1.42,0.44-3.3-1.08-4.1C38.84,85.65,36.78,85.91,36.07,87.43L36.07,87.43z"/>
		</g>
	</g>
</g>
</svg>
