<?xml version="1.0" encoding="utf-8"?>
<!-- Generator: Adobe Illustrator 24.0.3, SVG Export Plug-In . SVG Version: 6.00 Build 0)  -->
<svg version="1.1" id="Layer_1" xmlns="http://www.w3.org/2000/svg" xmlns:xlink="http://www.w3.org/1999/xlink" x="0px" y="0px"
	 viewBox="0 0 128 128" style="enable-background:new 0 0 128 128;" xml:space="preserve">
<style type="text/css">
	.st0{fill:#020203;}
	.st1{fill:none;}
</style>
<g>
	<polyline class="st1" points="73.01,82.5 74.54,83.97 80.14,89.37 82.25,91.4 	"/>
	<g>
		<g>
			<path class="st0" d="M78.93,104.19c1.58-0.48,3.16-0.96,4.75-1.43c1.5-0.45,2.6-2.12,2.1-3.69c-0.49-1.52-2.08-2.58-3.69-2.1
				c-1.58,0.48-3.16,0.96-4.75,1.43c-1.5,0.45-2.6,2.12-2.1,3.69C75.73,103.61,77.32,104.68,78.93,104.19L78.93,104.19z"/>
		</g>
	</g>
	<g>
		<g>
			<path class="st0" d="M74.81,41.5c12.23,0,12.25-19,0-19C62.58,22.5,62.56,41.5,74.81,41.5L74.81,41.5z"/>
		</g>
	</g>
	<g>
		<g>
			<path class="st0" d="M71.36,44.85c4.08,2.27,8.32,4.19,12.69,5.82c3.62,1.35,5.19-4.45,1.6-5.79c-3.89-1.45-7.63-3.2-11.26-5.22
				C71.01,37.79,67.98,42.97,71.36,44.85L71.36,44.85z"/>
		</g>
	</g>
	<g>
		<g>
			<path class="st0" d="M68.58,36.38c-3.93,17.32-5.24,35.09-9.04,52.43c-0.83,3.76,4.96,5.37,5.79,1.6
				c3.81-17.34,5.12-35.11,9.04-52.43C75.22,34.21,69.43,32.6,68.58,36.38L68.58,36.38z"/>
		</g>
	</g>
	<g>
		<g>
			<path class="st0" d="M62.3,86.92c-6.56-0.49-13.13-0.78-19.71-0.88c-3.86-0.06-3.86,5.94,0,6c6.58,0.1,13.15,0.39,19.71,0.88
				C66.15,93.2,66.13,87.2,62.3,86.92L62.3,86.92z"/>
		</g>
	</g>
	<g>
		<g>
			<path class="st0" d="M63.83,71.95c2.85,5.05,6.34,9.69,10.38,13.85c2.69,2.78,6.94-1.47,4.24-4.24
				c-3.7-3.81-6.83-8.01-9.44-12.63C67.11,65.56,61.93,68.58,63.83,71.95L63.83,71.95z"/>
		</g>
	</g>
	<g>
		<g>
			<path class="st0" d="M73.43,83.76c0.18,6.15,0.8,12.24,1.8,18.31c0.63,3.8,6.41,2.19,5.79-1.6c-0.92-5.54-1.43-11.1-1.59-16.71
				C79.32,79.91,73.32,79.89,73.43,83.76L73.43,83.76z"/>
		</g>
	</g>
	<g>
		<g>
			<path class="st0" d="M71.13,39.25c-5.13-1.58-10.15-3.43-15.05-5.62c-3.5-1.56-6.55,3.61-3.03,5.18
				c5.38,2.4,10.85,4.5,16.48,6.23C73.24,46.17,74.82,40.38,71.13,39.25L71.13,39.25z"/>
		</g>
	</g>
	<g>
		<g>
			<path class="st0" d="M53.65,33.45c-4.54,0.89-9.09,1.78-13.63,2.68c-3.79,0.74-2.18,6.53,1.6,5.79
				c4.54-0.89,9.09-1.78,13.63-2.68C59.04,38.5,57.43,32.71,53.65,33.45L53.65,33.45z"/>
		</g>
	</g>
	<g>
		<g>
			<path class="st0" d="M40.13,87.43c-0.49,1.04-0.97,2.07-1.46,3.11c-0.67,1.42-0.44,3.3,1.08,4.1c1.33,0.7,3.39,0.44,4.1-1.08
				c0.49-1.04,0.97-2.07,1.46-3.11c0.67-1.42,0.44-3.3-1.08-4.1C42.91,85.65,40.84,85.91,40.13,87.43L40.13,87.43z"/>
		</g>
	</g>
	<g>
		<g>
			<path class="st0" d="M85.04,50.82c3.79,0,7.57,0,11.36,0c3.86,0,3.87-6,0-6c-3.79,0-7.57,0-11.36,0
				C81.18,44.82,81.17,50.82,85.04,50.82L85.04,50.82z"/>
		</g>
	</g>
</g>
</svg>
