<?xml version="1.0" encoding="utf-8"?>
<!-- Generator: Adobe Illustrator 24.0.3, SVG Export Plug-In . SVG Version: 6.00 Build 0)  -->
<svg version="1.1" id="Layer_1" xmlns="http://www.w3.org/2000/svg" xmlns:xlink="http://www.w3.org/1999/xlink" x="0px" y="0px"
	 viewBox="0 0 128 128" style="enable-background:new 0 0 128 128;" xml:space="preserve">
<style type="text/css">
	.st0{fill:#020203;}
	.st1{fill:none;}
</style>
<g id="Page-1_3_">
	<g id="_x35_" transform="translate(0.808604, 0.000000)">
		<path id="Path_1_" class="st0" d="M66.91,45.37c-1.89,0.95-3.57,1.78-5.24,2.64c-0.83,0.43-0.59,1.2-0.47,1.87
			c0.44,2.49,0.93,4.98,1.4,7.48c0.09,0.42,0.14,0.85,0.17,1.28c0.04,1.62-0.9,2.77-2.37,2.98c-1.47,0.21-2.75-0.59-3.16-2.14
			c-0.32-1.2-0.52-2.43-0.75-3.65c-0.5-2.6-0.99-5.19-1.48-7.79c-0.39-2.1,0.09-3.1,2.01-4.07c3.52-1.78,7.05-3.53,10.57-5.3
			c1.28-0.65,1.25-0.65,0.45-1.75c-3.18-4.42-1.56-11.99,5.26-13.55c3.3-0.75,6.23,0.18,8.48,2.78c2.36,2.71,2.74,5.84,1.44,9.08
			c-1.17,2.97-3.52,4.71-6.68,5.27c-0.27,0.05-0.54,0.05-0.81,0.07c-0.56,0.05-0.59,0.36-0.36,0.78c0.05,0.09,0.1,0.19,0.16,0.28
			c1.39,2.25,2.77,4.51,4.18,6.75c0.54,0.86,0.65,0.87,1.17,0c1.18-2.01,2.3-4.04,3.45-6.06c0.27-0.53,0.57-1.04,0.91-1.52
			c1.02-1.34,2.6-1.68,3.86-0.87c1.26,0.81,1.67,2.4,0.92,3.86c-0.69,1.34-1.47,2.64-2.21,3.96c-1.54,2.72-3.06,5.46-4.65,8.16
			c-1.5,2.53-3.89,2.56-5.49,0.06c-1.53-2.41-3.01-4.87-4.52-7.3c-0.16-0.26-0.35-0.5-0.69-0.97c-0.46,2.04-0.89,3.81-1.22,5.59
			c-0.57,3.08-1.04,6.16-1.64,9.24c-0.23,1.17,0.05,2.03,0.81,2.94c3.34,3.96,6.61,7.98,9.93,11.96c0.91,1.01,1.37,2.35,1.28,3.7
			c-0.28,5.06-0.45,10.14-0.75,15.2c-0.09,1.52,0.24,2.6,1.52,3.6c1.9,1.49,1.36,4.22-0.86,4.87c-0.62,0.18-1.35-0.05-2.03-0.1
			c-0.1,0-0.19-0.1-0.28-0.16c-3.75-2.19-4.38-3.43-4.12-7.73c0.24-3.82,0.41-7.65,0.61-11.48c0.03-0.54,0-0.32,0.08-1.62
			c0.08-1.3-0.27-3.27-1.49-4.65c-2.25-2.55-4.34-5.23-6.52-7.85c-0.78-0.93-0.83-0.93-1.35,0.16c-1.77,3.7-3.57,7.4-5.27,11.13
			c-0.48,1.16-1.39,2.08-2.54,2.56c-4.81,2.07-9.59,4.22-14.42,6.26c-1.09,0.47-1.98,1.06-2.51,2.14c-0.17,0.34-0.38,0.65-0.63,0.94
			c-1,1.19-2.31,1.44-3.62,0.7c-1.22-0.62-1.76-2.08-1.24-3.34c0.97-2.22,2.08-4.29,4.64-5.3c4.77-1.89,9.43-4.05,14.14-6.07
			c0.65-0.26,1.18-0.76,1.47-1.4c2.27-4.83,4.66-9.62,6.85-14.5c0.58-1.3,0.65-2.82,0.94-4.25c0.87-4.45,1.71-8.9,2.54-13.35
			C66.84,46.49,66.84,46.08,66.91,45.37z"/>
	</g>
</g>
</svg>
