<?xml version="1.0" encoding="utf-8"?>
<!-- Generator: Adobe Illustrator 24.0.3, SVG Export Plug-In . SVG Version: 6.00 Build 0)  -->
<svg version="1.1" id="Layer_1" xmlns="http://www.w3.org/2000/svg" xmlns:xlink="http://www.w3.org/1999/xlink" x="0px" y="0px"
	 viewBox="0 0 128 128" style="enable-background:new 0 0 128 128;" xml:space="preserve">
<style type="text/css">
	.st0{fill:#020203;}
	.st1{fill:none;}
</style>
<g>
	<g>
		<path class="st0" d="M71.67,36.41c-4.5,2.08-8.49,5.14-12.97,7.18c-3.51,1.59-0.46,6.77,3.03,5.18c4.48-2.04,8.47-5.1,12.97-7.18
			C78.2,39.97,75.16,34.79,71.67,36.41L71.67,36.41z"/>
	</g>
</g>
<g>
	<g>
		<path class="st0" d="M70.13,38.74c-3.48,13.58-6.95,27.15-10.43,40.73c-0.96,3.74,4.83,5.34,5.79,1.6
			c3.48-13.58,6.95-27.15,10.43-40.73C76.87,36.59,71.09,34.99,70.13,38.74L70.13,38.74z"/>
	</g>
</g>
<g>
	<g>
		<path class="st0" d="M71.37,42.55c2.07,5.97,4.39,11.83,6.93,17.61c1.55,3.53,6.72,0.48,5.18-3.03
			c-2.33-5.31-4.43-10.7-6.33-16.18C75.89,37.33,70.1,38.89,71.37,42.55L71.37,42.55z"/>
	</g>
</g>
<g>
	<g>
		<path class="st0" d="M82.48,61.28c3.96-2.42,7.93-4.84,11.89-7.26c3.29-2.01,0.28-7.2-3.03-5.18c-3.96,2.42-7.93,4.84-11.89,7.26
			C76.16,58.1,79.17,63.3,82.48,61.28L82.48,61.28z"/>
	</g>
</g>
<g>
	<g>
		<path class="st0" d="M57.28,47.76c2.2,3.63,4.53,7.18,6.98,10.65c2.21,3.13,7.42,0.13,5.18-3.03c-2.45-3.47-4.78-7.01-6.98-10.65
			C60.46,41.43,55.27,44.44,57.28,47.76L57.28,47.76z"/>
	</g>
</g>
<g>
	<g>
		<path class="st0" d="M64.64,67.31c3.55,5.01,7.39,9.81,11.52,14.36c2.6,2.87,6.83-1.39,4.24-4.24
			c-3.79-4.18-7.32-8.55-10.58-13.15C67.6,61.16,62.4,64.15,64.64,67.31L64.64,67.31z"/>
	</g>
</g>
<g>
	<g>
		<path class="st0" d="M75.37,78.88c-1.53,6.93-3.2,13.83-5.02,20.69c-0.99,3.74,4.8,5.33,5.79,1.6c1.82-6.86,3.49-13.76,5.02-20.69
			C81.98,76.71,76.2,75.1,75.37,78.88L75.37,78.88z"/>
	</g>
</g>
<g>
	<g>
		<path class="st0" d="M60.52,78.32c-4.54,5.43-9.18,10.78-13.91,16.05c-2.57,2.87,1.66,7.12,4.24,4.24
			c4.73-5.27,9.37-10.62,13.91-16.05C67.23,79.62,63.01,75.36,60.52,78.32L60.52,78.32z"/>
	</g>
</g>
<g>
	<g>
		<path class="st0" d="M71.22,102.51c0.56,0.56,1.12,1.12,1.69,1.69c0.54,0.54,1.35,0.88,2.12,0.88c0.74,0,1.61-0.33,2.12-0.88
			c0.52-0.57,0.91-1.32,0.88-2.12c-0.04-0.8-0.3-1.55-0.88-2.12c-0.56-0.56-1.12-1.12-1.69-1.69c-0.54-0.54-1.35-0.88-2.12-0.88
			c-0.74,0-1.61,0.33-2.12,0.88c-0.52,0.57-0.91,1.32-0.88,2.12C70.38,101.18,70.65,101.94,71.22,102.51L71.22,102.51z"/>
	</g>
</g>
<g>
	<g>
		<path class="st0" d="M46.63,98.61c0.43,0.43,0.85,0.85,1.28,1.28c0.54,0.54,1.35,0.88,2.12,0.88c0.74,0,1.61-0.33,2.12-0.88
			c0.52-0.57,0.91-1.32,0.88-2.12c-0.04-0.8-0.3-1.55-0.88-2.12c-0.43-0.43-0.85-0.85-1.28-1.28c-0.54-0.54-1.35-0.88-2.12-0.88
			c-0.74,0-1.61,0.33-2.12,0.88c-0.52,0.57-0.91,1.32-0.88,2.12C45.79,97.29,46.06,98.04,46.63,98.61L46.63,98.61z"/>
	</g>
</g>
<g>
	<g>
		<path class="st0" d="M74.19,39.89c11.58,0,11.6-18,0-18C62.6,21.89,62.59,39.89,74.19,39.89L74.19,39.89z"/>
	</g>
</g>
</svg>
