<svg version="1.1" xmlns="http://www.w3.org/2000/svg" xmlns:xlink="http://www.w3.org/1999/xlink" x="0px" y="0px" style="max-height:800px;height:90vh;width:100%" viewBox="0 0 400 400" xml:space="preserve">
	<path style="fill:black;stroke:none;fill-rule:nonzero" id="bras1" d="M 217.8,126.9 C 208.4,120.7 202.2,122 190.6,126.9 179,131.9 168.3,136.3 166.1,141.2 163.8,146.1 149.1,175.6 147.3,176.5 145.5,177.4 140.6,181.9 137,187.7 133.5,193.5 129.4,204.2 137,201.9 144.6,199.7 145.1,195.7 149.5,190.8 154,185.9 153.1,182.8 157.6,177.8 162,172.9 168,152.4 175.3,149.3 182.6,146.1 192,141.7 200,142.6 208,143.5 227.2,133.2 217.8,126.9 z">
		<animate attributeName="d" attributeType="XML" repeatCount="indefinite" fill="freeze" dur="1s" values="
                     
                     M 226.3,128.7 C 224.7,136.1 231.5,140.3 245.3,142.1 257.8,143.7 274.9,153.1 278.9,149.4 284,144.7 294.7,126.9 295.8,123.2 297.8,116.8 297.4,113 300.9,107.1 305.5,99.62 302.9,95.6 299.7,88.14 297.9,84.06 291.6,96.02 287.9,101.8 284.3,107.4 290,113.3 286.3,119.2 281.5,127 278.9,129.6 274.7,133.3 273.5,134.3 269.4,136.1 253,129.5 242.4,124.8 231.2,118.5 226.3,128.7 z;
                     " />
	</path>
	<path style="fill:black;stroke:none;fill-rule:nonzero" id="leg1" d="M 198.1,209.3 C 187.3,210 178.3,210.7 178,218 177.7,225.3 185,236.6 200,236.3 215,236 235.3,236.6 245.7,236.3 256,236 257.3,236 256,239 254.7,242 251.3,253.3 250,268.3 248.7,283.3 252.7,303 253.3,310 254,317 251,326.7 261,324.3 271,322 280.7,318.7 289.3,311.7 298,304.7 298.2,301 298.2,301 298.2,301 283,306 276.7,306.7 270.3,307.3 259.5,307 259.3,304.3 259,301.7 258.3,288.3 265.3,269 272.3,249.7 275.7,240.7 277.3,234.7 279,228.7 280.7,222 268,218.7 255.3,215.3 238.4,212 220.4,211 202.3,210 205.3,208.9 198.1,209.3 z">
		<animate attributeName="d" attributeType="XML" repeatCount="indefinite" fill="freeze" dur="1s" values="
                     
                     M 194.5,207.3 C 184.2,203.9 180.7,206.7 180.3,214 180,221.3 181.3,217.4 176.7,231.7 174.3,239 170.9,258.4 167.2,272.1 165.6,278 165.6,278.1 162.1,284.1 159.2,289.2 146.5,287.3 136,295.8 123.9,305.5 110.1,318.5 103.5,322.6 97.52,326.3 86.77,319 89.25,329 91.88,339.5 91.74,360.5 102.4,363.6 110.6,366 118.5,365 118.5,365 118.5,365 105.5,358 106.2,348.4 107.1,336.1 107.1,331.5 110,328.6 112.9,325.8 129.8,314.3 154.7,307.2 167.9,303.4 173.7,303.8 178.3,297.6 182.7,291.7 187.7,279.6 192,269.1 200.4,248.5 206.6,238.9 205.7,224.2 204.7,209.1 203.3,210.1 194.5,207.3 z;
                     
                     " />
	</path>
	<path style="fill:#111;stroke:none;fill-rule:nonzero" id="tete" d="M 222,128.8 C 226.5,124.3 230,126.6 231.3,122.7 232.7,118.8 228.7,112.5 231.3,102.7 234,92.83 235.7,86.33 244.3,86.33 253,86.33 266.8,90.17 265.3,108.3 263.8,126.5 258.8,128 255,131.2 251.2,134.3 242.7,134.2 240.3,132.2 238,130.2 237.7,126.5 237.7,126.5 237.7,126.5 239.7,132.2 239.3,134.5 239,136.8 234.2,139.5 231.5,138.8 228.8,138.2 220.3,130.5 222,128.8 z">
		<animate attributeName="d" attributeType="XML" repeatCount="indefinite" fill="freeze" dur="0.5s" values="
                     
                     M 223,123.8 C 227.5,119.3 228.1,123.1 229.4,119.2 231,114.6 228.8,108.9 231.3,99.67 234,89.83 239.7,82.33 248.3,82.33 257,82.33 265.3,85.33 265.3,99.83 265.3,116.7 261.4,119.9 257,122.2 251.8,124.8 245.7,126.2 243.3,124.2 241,122.2 240.7,122.5 240.7,122.5 240.7,122.5 235.7,127.2 235.3,129.5 235,131.8 232.2,134.5 229.5,133.8 226.8,133.2 221.3,125.5 223,123.8 z;
                     
                     " />
	</path>
	<path style="fill:#111;stroke:none;fill-rule:nonzero" id="corps" d="M 225.3,128.7 C 214.6,125.2 214.3,123.3 203.7,132.3 193,141.3 177.3,157.7 169,180.7 160.7,203.7 166,208.3 160.7,215.7 155.3,223 182,245.7 193,232 204,218.3 203,214.3 205.3,198.3 207.7,182.3 222,161 228.7,152.7 235.3,144.3 243.2,134.5 225.3,128.7 z">
		<animate attributeName="d" attributeType="XML" repeatCount="indefinite" fill="freeze" dur="0.5s" values="
                     
                     M 233.3,119.7 C 225.4,118.4 218.8,120.3 211.7,130.3 203.6,141.7 187.8,151.5 181,180.7 176.3,201.1 181.1,215.1 183.7,220.7 188.5,231.3 197.5,243.8 207,229 215,216.5 211.8,204.8 214.3,193.3 218.3,175.3 230,157 236.7,148.7 243.3,140.3 250.5,122.5 233.3,119.7 z;
                     
                                         
                     " />
	</path>
	<path style="fill:#222;stroke:none;fill-rule:nonzero" id="leg2" d="M 189.2,225.2 C 187,214.6 182.5,214 178.8,213 171.8,211 170.2,209.3 159.3,217.1 153,221.5 151,224.8 143,235.2 139.2,240.1 124.2,252.6 120.7,258.6 117.8,263.7 104.3,257.8 93.83,266.3 81.75,276 63.89,303.3 57.29,307.4 51.31,311.1 44.58,307.6 44.05,313.3 43.03,324.1 42.76,323.4 39.52,334.1 35.95,345.8 31.12,354.6 31.12,354.6 31.12,354.6 40.29,345.5 46.1,337.8 54.07,327.3 58.59,321.9 62.78,315.5 64.98,312.1 80.56,299.2 104.2,283.7 115.7,276.2 122.4,270.6 130.1,270.1 138.2,269.5 149.6,262.7 154.7,259.7 159.5,256.9 171.9,248.5 179.9,242.4 185.8,237.9 190.7,232.4 189.2,225.2 z">
		<animate attributeName="d" attributeType="XML" repeatCount="indefinite" fill="freeze" dur="1s" values="
                     
                     M 224.9,202.7 C 218.3,201.3 210,199.5 206,200.1 197.8,201.2 191.9,206.1 192.4,215 193.1,226.6 207.4,226.3 217.1,231.2 227.2,236.4 246.6,235.1 252.3,243.6 255.6,248.5 255.9,244.6 249.4,247.2 235.7,252.6 231.8,269.8 224.6,271.4 219.5,272.6 214.5,270.4 213.7,278.3 213,285.6 219.9,290.7 223.4,307 225.8,317.9 232.8,322 232.8,322 232.8,322 230.3,303.3 230.1,295.6 229.9,285 227.8,281.4 230.9,278 233.4,275.3 238.2,269.8 263.9,259.1 277.7,253.4 276.2,251.8 277.3,244 278.4,236.8 265,226.9 260.3,223.1 256.2,219.8 250.8,216.9 242.7,210.8 236.5,206.2 231.5,204.2 224.9,202.7 z;
                     " />
	</path>
	<path style="fill:#222;stroke:none;fill-rule:nonzero" id="bras2" d="M 220.4,144 C 220.3,150.5 226,153.3 248.7,158.7 271.3,164 281,164.3 283,162.5 285,160.7 289.3,152 292,135.7 294.7,119.3 293.3,118.3 294.3,115 295.3,111.7 299,99.33 298,94.33 297,89.33 290,80.34 288.7,83.33 287.3,86.33 283,109.3 283.7,117.7 284.3,126 281.3,132 277.7,139.7 271.5,152.8 271.3,150.7 256.7,143.7 225.3,128.7 220.4,140 220.4,144 z">
		<animate attributeName="d" attributeType="XML" repeatCount="indefinite" fill="freeze" dur="1s" values="
                     
                     M 215.3,119 C 209.1,121.1 205.5,125.2 192.8,136 182.3,144.8 177.4,147.8 175.8,156.8 175.3,159.4 175.2,161.2 167,180.2 160.2,195.9 158.4,208.2 157.8,210 154,220.8 146.4,221.8 146,228.8 145.7,233.8 146,238.7 152.3,235.2 165.1,218.1 166.5,235.7 168.5,202.2 169.7,196.2 174.1,190 176.9,186.3 187.2,173 187.7,158.2 204.3,147 222.2,134.9 230.9,114.6 215.3,119 z;
                     " />
	</path>
</svg>
