<svg version="1.1" xmlns="http://www.w3.org/2000/svg" xmlns:xlink="http://www.w3.org/1999/xlink" x="0px" y="0px" style="max-height:800px;height:90vh;width:100%" viewBox="0 0 400 400" xml:space="preserve">
	<path style="fill:black;stroke:none;fill-rule:nonzero" id="bras1" d="M 217.8,126.9 C 208.4,120.7 202.2,122 190.6,126.9 179,131.9 168.3,136.3 166.1,141.2 163.8,146.1 149.1,175.6 147.3,176.5 145.5,177.4 140.6,181.9 137,187.7 133.5,193.5 129.4,204.2 137,201.9 144.6,199.7 145.1,195.7 149.5,190.8 154,185.9 153.1,182.8 157.6,177.8 162,172.9 168,152.4 175.3,149.3 182.6,146.1 192,141.7 200,142.6 208,143.5 227.2,133.2 217.8,126.9 z">
		<animate attributeName="d" attributeType="XML" repeatCount="indefinite" fill="freeze" dur="1s" values="
                     M 214.3,126.7 C 208.2,128.8 204.3,137.8 199.2,158.4 193.9,180.2 195.5,187.7 196.5,190.3 197.5,192.8 203.3,203.5 212.8,222 219.1,234.3 217.3,237.3 217,240.8 216.8,244.3 223.1,252.3 227.8,257.5 231.1,261.3 240.5,261.2 240.5,257.9 232.8,234.5 242.8,244.4 226.7,228 223.3,222.9 219.1,204.2 217.3,200 208.6,181.1 206.5,176.9 215,162.7 221.9,153.6 237.8,119.1 214.3,126.7 z;   
                     " />
	</path>
	<path style="fill:black;stroke:none;fill-rule:nonzero" id="leg1" d="M 198.1,209.3 C 187.3,210 178.3,210.7 178,218 177.7,225.3 185,236.6 200,236.3 215,236 235.3,236.6 245.7,236.3 256,236 257.3,236 256,239 254.7,242 251.3,253.3 250,268.3 248.7,283.3 252.7,303 253.3,310 254,317 251,326.7 261,324.3 271,322 280.7,318.7 289.3,311.7 298,304.7 298.2,301 298.2,301 298.2,301 283,306 276.7,306.7 270.3,307.3 259.5,307 259.3,304.3 259,301.7 258.3,288.3 265.3,269 272.3,249.7 275.7,240.7 277.3,234.7 279,228.7 280.7,222 268,218.7 255.3,215.3 238.4,212 220.4,211 202.3,210 205.3,208.9 198.1,209.3 z">
		<animate attributeName="d" attributeType="XML" repeatCount="indefinite" fill="freeze" dur="1s" values="
                     M 189.2,225.2 C 188.3,219.1 182.5,216 178.8,215 171.8,213 162.9,215.1 159,219.9 154.2,225.9 154,233.9 149.3,244.8 146.9,250.5 138.6,286.4 135.1,292.4 132.2,297.5 129.6,289.6 111.5,293.3 96.33,296.4 67.93,306.8 60.07,309.4 53.39,311.6 43.82,306.3 43.29,312 42.27,322.8 42.76,323.4 39.52,334.1 35.95,345.8 31.12,354.6 31.12,354.6 31.12,354.6 40.29,345.5 46.1,337.8 54.07,327.3 58.59,321.9 62.78,315.5 64.98,312.1 84.31,311.7 112.5,313.2 123.3,313.8 133.4,311.9 141,313.3 148.8,314.7 148.6,303.6 153.7,300.6 158.5,297.8 174.2,275.2 179.1,266.4 184.8,256.3 190.3,232.5 189.2,225.2 z;
                     
                     
                     " />
	</path>
	<path style="fill:#111;stroke:none;fill-rule:nonzero" id="tete" d="M 222,128.8 C 226.5,124.3 230,126.6 231.3,122.7 232.7,118.8 228.7,112.5 231.3,102.7 234,92.83 235.7,86.33 244.3,86.33 253,86.33 266.8,90.17 265.3,108.3 263.8,126.5 258.8,128 255,131.2 251.2,134.3 242.7,134.2 240.3,132.2 238,130.2 237.7,126.5 237.7,126.5 237.7,126.5 239.7,132.2 239.3,134.5 239,136.8 234.2,139.5 231.5,138.8 228.8,138.2 220.3,130.5 222,128.8 z">
		<animate attributeName="d" attributeType="XML" repeatCount="indefinite" fill="freeze" dur="0.5s" values="
                     
                     M 218,126.8 C 222.5,122.3 227,128.6 228.3,124.7 229.9,120.1 224.8,114.9 227.3,105.7 230,95.83 234.7,87.33 243.3,87.33 252,87.33 263.8,86.67 262.3,104.8 260.8,123 255.4,126.9 251,129.2 245.8,131.8 242.7,132.2 240.3,130.2 238,128.2 237.7,128.5 237.7,128.5 237.7,128.5 233.7,131.2 233.3,133.5 233,135.8 230.2,138.5 227.5,137.8 224.8,137.2 216.3,128.5 218,126.8 z;
                     
                     " />
	</path>
	<path style="fill:#111;stroke:none;fill-rule:nonzero" id="corps" d="M 225.3,128.7 C 214.6,125.2 214.3,123.3 203.7,132.3 193,141.3 177.3,157.7 169,180.7 160.7,203.7 166,208.3 160.7,215.7 155.3,223 182,245.7 193,232 204,218.3 203,214.3 205.3,198.3 207.7,182.3 222,161 228.7,152.7 235.3,144.3 243.2,134.5 225.3,128.7 z">
		<animate attributeName="d" attributeType="XML" repeatCount="indefinite" fill="freeze" dur="0.5s" values="
                     
                     M 223.3,124.7 C 213.4,120.3 207.7,125.3 200.7,131.3 190.1,140.4 177.3,157.7 169,180.7 161.8,200.4 164.1,220.1 166.7,225.7 171.5,236.3 186,245.7 197,232 208,218.3 198,214.3 200.3,198.3 202.7,182.3 215,162 221.7,153.7 228.3,145.3 240.4,132.1 223.3,124.7 z;
                     
                                         
                     " />
	</path>
	<path style="fill:#222;stroke:none;fill-rule:nonzero" id="leg2" d="M 189.2,225.2 C 187,214.6 182.5,214 178.8,213 171.8,211 170.2,209.3 159.3,217.1 153,221.5 151,224.8 143,235.2 139.2,240.1 124.2,252.6 120.7,258.6 117.8,263.7 104.3,257.8 93.83,266.3 81.75,276 63.89,303.3 57.29,307.4 51.31,311.1 44.58,307.6 44.05,313.3 43.03,324.1 42.76,323.4 39.52,334.1 35.95,345.8 31.12,354.6 31.12,354.6 31.12,354.6 40.29,345.5 46.1,337.8 54.07,327.3 58.59,321.9 62.78,315.5 64.98,312.1 80.56,299.2 104.2,283.7 115.7,276.2 122.4,270.6 130.1,270.1 138.2,269.5 149.6,262.7 154.7,259.7 159.5,256.9 171.9,248.5 179.9,242.4 185.8,237.9 190.7,232.4 189.2,225.2 z">
		<animate attributeName="d" attributeType="XML" repeatCount="indefinite" fill="freeze" dur="1s" values="
                     M 190.7,203.2 C 180,203.8 178.6,208.4 178.3,215.8 177.9,223.1 182.6,222.3 191.8,234.1 203.1,248.6 219.5,261.9 227,269 231.5,273.3 230.9,275.5 231.6,278.8 232.6,283.3 231.6,288.5 231.6,309.8 231.6,324.8 234.8,344 233,351.6 231.4,358.5 225.7,365.4 236,365.4 250.5,365.4 260.6,365.4 271.8,365.4 286.5,365.4 285,358.8 285,358.8 285,358.8 271.5,356.8 262.3,354 256.1,352.2 243.8,346.3 242.5,344 238.2,336.4 241.8,325.4 248.4,295.8 251.6,281.6 253.3,278.8 254.5,272 255.4,266.9 253.1,261.5 244.3,254 234.2,245.6 223.8,231.8 213,217.8 202,203.4 197.9,202.8 190.7,203.2 z;
                     
                     " />
	</path>
	<path style="fill:#222;stroke:none;fill-rule:nonzero" id="bras2" d="M 220.4,144 C 220.3,150.5 226,153.3 248.7,158.7 271.3,164 281,164.3 283,162.5 285,160.7 289.3,152 292,135.7 294.7,119.3 293.3,118.3 294.3,115 295.3,111.7 299,99.33 298,94.33 297,89.33 290,80.34 288.7,83.33 287.3,86.33 283,109.3 283.7,117.7 284.3,126 281.3,132 277.7,139.7 271.5,152.8 271.3,150.7 256.7,143.7 225.3,128.7 220.4,140 220.4,144 z">
		<animate attributeName="d" attributeType="XML" repeatCount="indefinite" fill="freeze" dur="1s" values="
                     M 221.8,125.7 C 212.9,118.8 203,136.8 192.5,148.9 184.2,158.4 180.3,178.5 181.2,183.9 182.1,189.2 192.1,224.6 195.2,229.2 199.2,235.1 199.6,239.2 204.9,243.5 213.5,250.5 214.5,247.5 219.6,241.4 224.6,235.3 217.7,233.6 214.8,232 208.9,228.8 205.8,231 204,224.6 201.5,215.9 200.1,203 199.3,197.5 199.1,196 193.7,182.7 202.1,168.1 210.5,153.3 235.3,136 221.8,125.7 z;
                     " />
	</path>
</svg>
