<svg version="1.1" xmlns="http://www.w3.org/2000/svg" xmlns:xlink="http://www.w3.org/1999/xlink" x="0px" y="0px" style="max-height:800px;height:90vh;width:100%" viewBox="0 0 400 400" xml:space="preserve">
	<path style="fill:black;stroke:none;fill-rule:nonzero" id="bras1" d="M 217.8,126.9 C 208.4,120.7 202.2,122 190.6,126.9 179,131.9 168.3,136.3 166.1,141.2 163.8,146.1 149.1,175.6 147.3,176.5 145.5,177.4 140.6,181.9 137,187.7 133.5,193.5 129.4,204.2 137,201.9 144.6,199.7 145.1,195.7 149.5,190.8 154,185.9 153.1,182.8 157.6,177.8 162,172.9 168,152.4 175.3,149.3 182.6,146.1 192,141.7 200,142.6 208,143.5 227.2,133.2 217.8,126.9 z">
		<animate attributeName="d" attributeType="XML" repeatCount="indefinite" fill="freeze" dur="1s" values="
                     M 209.3,121.7 C 203.2,123.8 196.1,138 190.2,158.4 186.5,171.6 185.7,171.3 184,180.3 183.5,183 180,190.6 179.7,211.7 179.5,225.5 175.7,224.1 174.7,227.5 172.8,234 172.9,238 172.4,244.9 172.1,250 176.8,256.5 179.2,254.2 188.3,233.6 189.3,251 189.5,220.3 190.8,214.3 192.9,205.8 194,201.3 195.6,179.5 197.6,184.1 207,162.8 209.3,158 230.4,114.9 209.3,121.7 z;
                     " />
	</path>
	<path style="fill:black;stroke:none;fill-rule:nonzero" id="leg1" d="M 198.1,209.3 C 187.3,210 178.3,210.7 178,218 177.7,225.3 185,236.6 200,236.3 215,236 235.3,236.6 245.7,236.3 256,236 257.3,236 256,239 254.7,242 251.3,253.3 250,268.3 248.7,283.3 252.7,303 253.3,310 254,317 251,326.7 261,324.3 271,322 280.7,318.7 289.3,311.7 298,304.7 298.2,301 298.2,301 298.2,301 283,306 276.7,306.7 270.3,307.3 259.5,307 259.3,304.3 259,301.7 258.3,288.3 265.3,269 272.3,249.7 275.7,240.7 277.3,234.7 279,228.7 280.7,222 268,218.7 255.3,215.3 238.4,212 220.4,211 202.3,210 205.3,208.9 198.1,209.3 z">
		<animate attributeName="d" attributeType="XML" repeatCount="indefinite" fill="freeze" dur="1s" values="
                     M 201.4,216.1 C 199.2,205.5 192.6,206.1 188.9,205.1 181.9,203.1 176.8,207 172.9,211.8 168.1,217.8 171.5,233.4 166.8,244.3 164.4,250 166.7,256.1 163.2,262.1 160.3,267.2 163.2,260.1 142.9,253.9 128,249.5 116.4,253 107.8,251.1 100.9,249.5 99.38,241.4 93.29,248.9 86.44,257.3 87.72,264.3 82.2,272 75.06,281.9 72.03,285.9 72.03,285.9 72.03,285.9 82.64,286.2 89.54,279.5 100,269.3 100.3,267 108,262.3 111.1,260.3 122.5,266.6 147.6,279.9 162,287.5 164.4,292.3 171.3,288.8 176.1,286.4 179.1,279.1 182.3,274.1 188.8,264 190.9,254.7 195.8,245.9 201.5,235.8 202.9,223.3 201.4,216.1 z;
                     " />
	</path>
	<path style="fill:#111;stroke:none;fill-rule:nonzero" id="tete" d="M 222,128.8 C 226.5,124.3 230,126.6 231.3,122.7 232.7,118.8 228.7,112.5 231.3,102.7 234,92.83 235.7,86.33 244.3,86.33 253,86.33 266.8,90.17 265.3,108.3 263.8,126.5 258.8,128 255,131.2 251.2,134.3 242.7,134.2 240.3,132.2 238,130.2 237.7,126.5 237.7,126.5 237.7,126.5 239.7,132.2 239.3,134.5 239,136.8 234.2,139.5 231.5,138.8 228.8,138.2 220.3,130.5 222,128.8 z">
		<animate attributeName="d" attributeType="XML" repeatCount="indefinite" fill="freeze" dur="0.5s" values="
                     M 218,126.8 C 222.5,122.3 222,125.6 223.3,121.7 224.9,117.1 219.8,111.9 222.3,102.7 225,92.83 229.7,84.33 238.3,84.33 247,84.33 258.8,83.67 257.3,101.8 255.8,120 250.4,123.9 246,126.2 240.8,128.8 237.7,129.2 235.3,127.2 233,125.2 232.7,125.5 232.7,125.5 232.7,125.5 230.7,130.2 230.3,132.5 230,134.8 227.2,137.5 224.5,136.8 221.8,136.2 216.3,128.5 218,126.8 z;
                     " />
	</path>
	<path style="fill:#111;stroke:none;fill-rule:nonzero" id="corps" d="M 225.3,128.7 C 214.6,125.2 214.3,123.3 203.7,132.3 193,141.3 177.3,157.7 169,180.7 160.7,203.7 166,208.3 160.7,215.7 155.3,223 182,245.7 193,232 204,218.3 203,214.3 205.3,198.3 207.7,182.3 222,161 228.7,152.7 235.3,144.3 243.2,134.5 225.3,128.7 z">
		<animate attributeName="d" attributeType="XML" repeatCount="indefinite" fill="freeze" dur="0.5s" values="
                     M 223.3,124.7 C 215.4,123.4 208.8,125.3 201.7,135.3 193.6,146.7 187.8,154.5 181,183.7 176.3,204.1 179.1,220.1 181.7,225.7 186.5,236.3 202.5,247.8 212,233 220,220.5 213,210 214.3,198.3 216.2,182.3 220,165 226.7,156.7 233.3,148.3 240.5,127.5 223.3,124.7 z;
                     " />
	</path>
	<path style="fill:#222;stroke:none;fill-rule:nonzero" id="leg2" d="M 189.2,225.2 C 187,214.6 182.5,214 178.8,213 171.8,211 170.2,209.3 159.3,217.1 153,221.5 151,224.8 143,235.2 139.2,240.1 124.2,252.6 120.7,258.6 117.8,263.7 104.3,257.8 93.83,266.3 81.75,276 63.89,303.3 57.29,307.4 51.31,311.1 44.58,307.6 44.05,313.3 43.03,324.1 42.76,323.4 39.52,334.1 35.95,345.8 31.12,354.6 31.12,354.6 31.12,354.6 40.29,345.5 46.1,337.8 54.07,327.3 58.59,321.9 62.78,315.5 64.98,312.1 80.56,299.2 104.2,283.7 115.7,276.2 122.4,270.6 130.1,270.1 138.2,269.5 149.6,262.7 154.7,259.7 159.5,256.9 171.9,248.5 179.9,242.4 185.8,237.9 190.7,232.4 189.2,225.2 z">
		<animate attributeName="d" attributeType="XML" repeatCount="indefinite" fill="freeze" dur="1s" values="
                     M 199.7,207.2 C 189,207.8 188.6,208.4 188.3,215.8 187.9,223.1 186.1,226.2 193.8,239.1 202.8,254.2 210.5,269.5 218,282.3 221.1,287.6 217.8,287 216.3,289.3 213,294.7 210.7,293.9 203.3,313.9 198,328.4 197.5,342 195.7,349.6 194.1,356.5 185.7,365.4 196,365.4 210.5,365.4 220.6,365.4 231.8,365.4 246.5,365.4 245,358.8 245,358.8 245,358.8 231.9,358.9 222.7,356.1 216.5,354.3 205.9,352.7 205.5,350 204.1,341.4 216.8,318.6 220.8,311 225.2,302.7 230.3,292.5 234.5,288 238,284.3 237.4,274.5 233.3,264 228.5,251.8 223.8,231.8 213,217.8 202,203.4 206.9,206.8 199.7,207.2 z;
                     " />
	</path>
	<path style="fill:#222;stroke:none;fill-rule:nonzero" id="bras2" d="M 220.4,144 C 220.3,150.5 226,153.3 248.7,158.7 271.3,164 281,164.3 283,162.5 285,160.7 289.3,152 292,135.7 294.7,119.3 293.3,118.3 294.3,115 295.3,111.7 299,99.33 298,94.33 297,89.33 290,80.34 288.7,83.33 287.3,86.33 283,109.3 283.7,117.7 284.3,126 281.3,132 277.7,139.7 271.5,152.8 271.3,150.7 256.7,143.7 225.3,128.7 220.4,140 220.4,144 z">
		<animate attributeName="d" attributeType="XML" repeatCount="indefinite" fill="freeze" dur="1s" values="
                     M221.839,124.362c-8.955-6.88-12.366,6.424-16.506,21.971   c-3.242,12.178-3.122,32.129,2.053,33.657c5.173,1.526,34.2,6.306,39.664,6.962c5.95,0.714,7.354,4.548,14.168,4.571   c8.782,0.028,17.704-0.602,22.449-7.19c2.596-3.604-14.699-5.901-20.468-7.776c-6.36-2.067-9.817,0.688-16.354-0.475   c-8.976-1.601-22.131-6.991-27.488-8.708c-1.426-0.458-4.64-0.543,1.976-16.04C228.46,134.636,235.25,134.667,221.839,124.362z;
                     " />
	</path>
</svg>
