<svg version="1.1" xmlns="http://www.w3.org/2000/svg" xmlns:xlink="http://www.w3.org/1999/xlink" x="0px" y="0px" style="max-height:800px;height:90vh;width:100%" viewBox="0 0 400 400" xml:space="preserve">
	<path style="fill:black;stroke:none;fill-rule:nonzero" id="bras1" d="M 217.8,126.9 C 208.4,120.7 202.2,122 190.6,126.9 179,131.9 168.3,136.3 166.1,141.2 163.8,146.1 149.1,175.6 147.3,176.5 145.5,177.4 140.6,181.9 137,187.7 133.5,193.5 129.4,204.2 137,201.9 144.6,199.7 145.1,195.7 149.5,190.8 154,185.9 153.1,182.8 157.6,177.8 162,172.9 168,152.4 175.3,149.3 182.6,146.1 192,141.7 200,142.6 208,143.5 227.2,133.2 217.8,126.9 z">
		<animate attributeName="d" attributeType="XML" repeatCount="indefinite" fill="freeze" dur="1s" values="
                     M 214.3,127.7 C 208.2,129.8 208,135.2 209.2,158.4 210.4,180.8 216.7,189.7 217.7,192.2 218.7,194.7 227.6,208.5 241.2,217.9 252.6,225.7 250.3,228.4 253.1,230.6 255.9,232.7 263.1,238.5 268.1,239.3 273.2,240.1 284.1,237.7 281.7,235.4 263.1,214.2 267.5,220.1 251.8,215.9 247,212.1 238.8,198.2 236.9,194 229.9,181.6 227.3,172.7 228.4,160.8 228,147.7 234.2,121 214.3,127.7 z;
                     " />
	</path>
	<path style="fill:black;stroke:none;fill-rule:nonzero" id="leg1" d="M 198.1,209.3 C 187.3,210 178.3,210.7 178,218 177.7,225.3 185,236.6 200,236.3 215,236 235.3,236.6 245.7,236.3 256,236 257.3,236 256,239 254.7,242 251.3,253.3 250,268.3 248.7,283.3 252.7,303 253.3,310 254,317 251,326.7 261,324.3 271,322 280.7,318.7 289.3,311.7 298,304.7 298.2,301 298.2,301 298.2,301 283,306 276.7,306.7 270.3,307.3 259.5,307 259.3,304.3 259,301.7 258.3,288.3 265.3,269 272.3,249.7 275.7,240.7 277.3,234.7 279,228.7 280.7,222 268,218.7 255.3,215.3 238.4,212 220.4,211 202.3,210 205.3,208.9 198.1,209.3 z">
		<animate attributeName="d" attributeType="XML" repeatCount="indefinite" fill="freeze" dur="1s" values="
                     M 201.4,216.1 C 199.2,205.5 192.6,206.1 188.9,205.1 181.9,203.1 176.8,207 172.9,211.8 168.1,217.8 171.5,233.4 166.8,244.3 164.4,250 166.7,256.1 163.2,262.1 160.3,267.2 163.2,260.1 142.9,253.9 128,249.5 116.4,253 107.8,251.1 100.9,249.5 99.38,241.4 93.29,248.9 86.44,257.3 87.72,264.3 82.2,272 75.06,281.9 72.03,285.9 72.03,285.9 72.03,285.9 82.64,286.2 89.54,279.5 100,269.3 100.3,267 108,262.3 111.1,260.3 122.5,266.6 147.6,279.9 162,287.5 164.4,292.3 171.3,288.8 176.1,286.4 179.1,279.1 182.3,274.1 188.8,264 190.9,254.7 195.8,245.9 201.5,235.8 202.9,223.3 201.4,216.1 z;
                     
                     " />
	</path>
	<path style="fill:#111;stroke:none;fill-rule:nonzero" id="tete" d="M 222,128.8 C 226.5,124.3 230,126.6 231.3,122.7 232.7,118.8 228.7,112.5 231.3,102.7 234,92.83 235.7,86.33 244.3,86.33 253,86.33 266.8,90.17 265.3,108.3 263.8,126.5 258.8,128 255,131.2 251.2,134.3 242.7,134.2 240.3,132.2 238,130.2 237.7,126.5 237.7,126.5 237.7,126.5 239.7,132.2 239.3,134.5 239,136.8 234.2,139.5 231.5,138.8 228.8,138.2 220.3,130.5 222,128.8 z">
		<animate attributeName="d" attributeType="XML" repeatCount="indefinite" fill="freeze" dur="0.5s" values="
                     
                     M 222,128.8 C 226.5,124.3 229,126.6 230.3,122.7 231.9,118.1 228.8,111.9 231.3,102.7 234,92.83 235.7,86.33 244.3,86.33 253,86.33 265.8,86.67 264.3,104.8 262.8,123 257.4,127.9 253,130.2 247.8,132.8 242.7,132.2 240.3,130.2 238,128.2 236.7,125.5 236.7,125.5 236.7,125.5 237.7,132.2 237.3,134.5 237,136.8 234.2,139.5 231.5,138.8 228.8,138.2 220.3,130.5 222,128.8 z;
                     
                     " />
	</path>
	<path style="fill:#111;stroke:none;fill-rule:nonzero" id="corps" d="M 225.3,128.7 C 214.6,125.2 214.3,123.3 203.7,132.3 193,141.3 177.3,157.7 169,180.7 160.7,203.7 166,208.3 160.7,215.7 155.3,223 182,245.7 193,232 204,218.3 203,214.3 205.3,198.3 207.7,182.3 222,161 228.7,152.7 235.3,144.3 243.2,134.5 225.3,128.7 z">
		<animate attributeName="d" attributeType="XML" repeatCount="indefinite" fill="freeze" dur="0.5s" values="
                     
                     M 229.3,126.7 C 219,122.1 214.3,123.3 203.7,132.3 193,141.3 177.3,157.7 169,180.7 160.7,203.7 156.6,226.8 160.7,235.7 165.5,246.3 182,245.7 193,232 204,218.3 203,214.3 205.3,198.3 207.7,182.3 225,162 231.7,153.7 238.3,145.3 245.3,133.8 229.3,126.7 z;
                     
                     " />
	</path>
	<path style="fill:#222;stroke:none;fill-rule:nonzero" id="leg2" d="M 189.2,225.2 C 187,214.6 182.5,214 178.8,213 171.8,211 170.2,209.3 159.3,217.1 153,221.5 151,224.8 143,235.2 139.2,240.1 124.2,252.6 120.7,258.6 117.8,263.7 104.3,257.8 93.83,266.3 81.75,276 63.89,303.3 57.29,307.4 51.31,311.1 44.58,307.6 44.05,313.3 43.03,324.1 42.76,323.4 39.52,334.1 35.95,345.8 31.12,354.6 31.12,354.6 31.12,354.6 40.29,345.5 46.1,337.8 54.07,327.3 58.59,321.9 62.78,315.5 64.98,312.1 80.56,299.2 104.2,283.7 115.7,276.2 122.4,270.6 130.1,270.1 138.2,269.5 149.6,262.7 154.7,259.7 159.5,256.9 171.9,248.5 179.9,242.4 185.8,237.9 190.7,232.4 189.2,225.2 z">
		<animate attributeName="d" attributeType="XML" repeatCount="indefinite" fill="freeze" dur="1s" values="
                     M 190.7,203.2 C 180,203.8 178.6,208.4 178.3,215.8 177.9,223.1 182.6,222.3 191.8,234.1 203.1,248.6 219.5,261.9 227,269 231.5,273.3 230.9,275.5 231.6,278.8 232.6,283.3 231.6,288.5 231.6,309.8 231.6,324.8 234.8,344 233,351.6 231.4,358.5 225.7,365.4 236,365.4 250.5,365.4 260.6,365.4 271.8,365.4 286.5,365.4 285,358.8 285,358.8 285,358.8 271.5,356.8 262.3,354 256.1,352.2 243.8,346.3 242.5,344 238.2,336.4 241.8,325.4 248.4,295.8 251.6,281.6 253.3,278.8 254.5,272 255.4,266.9 253.1,261.5 244.3,254 234.2,245.6 223.8,231.8 213,217.8 202,203.4 197.9,202.8 190.7,203.2 z;
                     
                     " />
	</path>
	<path style="fill:#222;stroke:none;fill-rule:nonzero" id="bras2" d="M 220.4,144 C 220.3,150.5 226,153.3 248.7,158.7 271.3,164 281,164.3 283,162.5 285,160.7 289.3,152 292,135.7 294.7,119.3 293.3,118.3 294.3,115 295.3,111.7 299,99.33 298,94.33 297,89.33 290,80.34 288.7,83.33 287.3,86.33 283,109.3 283.7,117.7 284.3,126 281.3,132 277.7,139.7 271.5,152.8 271.3,150.7 256.7,143.7 225.3,128.7 220.4,140 220.4,144 z">
		<animate attributeName="d" attributeType="XML" repeatCount="indefinite" fill="freeze" dur="1s" values="
                     M 221.8,122.7 C 212.9,115.8 204.3,125.1 192.6,135.7 183.3,144.2 170.3,172.1 168.1,177 165.8,181.9 163.3,192.7 163.3,198.3 163.3,205.4 163,206.6 165,213.1 168.2,223.7 170.7,221.8 178.3,219.6 185.9,217.4 181.2,212 179.7,209.1 176.6,203.1 172.7,203.2 174.8,196.9 177.6,188.3 180.3,181.8 182.8,176.8 183.4,175.4 189.7,158.8 196.5,154.3 206.3,147.7 235.3,133 221.8,122.7 z;
                     
                     " />
	</path>
</svg>
