<svg version="1.1" xmlns="http://www.w3.org/2000/svg" xmlns:xlink="http://www.w3.org/1999/xlink" x="0px" y="0px"
    style="max-height:800px;height:90vh;width:100%" viewBox="0 0 400 400" xml:space="preserve">

    <path style="fill:black;stroke:none;fill-rule:nonzero" id="bras1"
        d="M 217.8,126.9 C 208.4,120.7 202.2,122 190.6,126.9 179,131.9 168.3,136.3 166.1,141.2 163.8,146.1 149.1,175.6 147.3,176.5 145.5,177.4 140.6,181.9 137,187.7 133.5,193.5 129.4,204.2 137,201.9 144.6,199.7 145.1,195.7 149.5,190.8 154,185.9 153.1,182.8 157.6,177.8 162,172.9 168,152.4 175.3,149.3 182.6,146.1 192,141.7 200,142.6 208,143.5 227.2,133.2 217.8,126.9 z">
        <animate attributeName="d" attributeType="XML" repeatCount="indefinite" fill="freeze" dur="1s"
            values="
                     
                     M 216.5,128.2 C 205.6,125.4 202.2,126 190.6,130.9 179,135.9 153.3,149.3 151.1,154.2 148.8,159.1 148.3,170 148.3,175.5 148.3,182.7 144,182.8 146,189.4 149.2,199.9 153.7,199.1 161.3,196.8 168.9,194.6 164.2,189.3 162.7,186.3 159.6,180.4 154.4,184.3 156.5,178 159.3,169.3 163.5,161.8 166,156.8 166.6,155.4 177.1,151 185.2,149.6 201.7,146.7 219.3,138.8 216.5,128.2 z;
                    " />
    </path>
    <path style="fill:black;stroke:none;fill-rule:nonzero" id="leg1"
        d="M 198.1,209.3 C 187.3,210 178.3,210.7 178,218 177.7,225.3 185,236.6 200,236.3 215,236 235.3,236.6 245.7,236.3 256,236 257.3,236 256,239 254.7,242 251.3,253.3 250,268.3 248.7,283.3 252.7,303 253.3,310 254,317 251,326.7 261,324.3 271,322 280.7,318.7 289.3,311.7 298,304.7 298.2,301 298.2,301 298.2,301 283,306 276.7,306.7 270.3,307.3 259.5,307 259.3,304.3 259,301.7 258.3,288.3 265.3,269 272.3,249.7 275.7,240.7 277.3,234.7 279,228.7 280.7,222 268,218.7 255.3,215.3 238.4,212 220.4,211 202.3,210 205.3,208.9 198.1,209.3 z">
        <animate attributeName="d" attributeType="XML" repeatCount="indefinite" fill="freeze" dur="1s" values="
                    
                     M 188.8,223 C 178,223.6 169,224.3 168.7,231.7 168.3,239 172.9,249.1 187.7,252 206.7,255.7 222,254.9 232.3,254 246.7,252.7 248,249.7 246.7,252.7 245.3,255.7 249.3,271 256.7,285 263.7,298.3 289.3,335.7 290,342.7 290.7,349.7 292.3,354.2 301.7,350 314.9,344 317.3,342.3 326,335.3 334.7,328.3 332.8,321.7 332.8,321.7 332.8,321.7 319.7,330.7 313.3,331.3 307,332 301.3,332.3 299.9,330 295.6,322.4 286.4,312 279,282.7 274,262.7 271.6,257 270,248.3 267.2,233.3 271.3,235.7 258.7,232.3 246,229 229.1,225.7 211,224.7 193,223.7 195.9,222.6 188.8,223 z;
                                         " />
    </path>

    <path style="fill:#111;stroke:none;fill-rule:nonzero" id="tete"
        d="M 222,128.8 C 226.5,124.3 230,126.6 231.3,122.7 232.7,118.8 228.7,112.5 231.3,102.7 234,92.83 235.7,86.33 244.3,86.33 253,86.33 266.8,90.17 265.3,108.3 263.8,126.5 258.8,128 255,131.2 251.2,134.3 242.7,134.2 240.3,132.2 238,130.2 237.7,126.5 237.7,126.5 237.7,126.5 239.7,132.2 239.3,134.5 239,136.8 234.2,139.5 231.5,138.8 228.8,138.2 220.3,130.5 222,128.8 z">
        <animate attributeName="d" attributeType="XML" repeatCount="indefinite" fill="freeze" dur="0.5s" values="
                   
                     M 222,128.8 C 226.5,124.3 229,126.6 230.3,122.7 231.9,118.1 228.8,111.9 231.3,102.7 234,92.83 235.7,86.33 244.3,86.33 253,86.33 265.8,86.67 264.3,104.8 262.8,123 257.4,127.9 253,130.2 247.8,132.8 242.7,132.2 240.3,130.2 238,128.2 236.7,125.5 236.7,125.5 236.7,125.5 237.7,132.2 237.3,134.5 237,136.8 234.2,139.5 231.5,138.8 228.8,138.2 220.3,130.5 222,128.8 z;
                    
                     " />
    </path>
    <path style="fill:#111;stroke:none;fill-rule:nonzero" id="corps"
        d="M 225.3,128.7 C 214.6,125.2 214.3,123.3 203.7,132.3 193,141.3 177.3,157.7 169,180.7 160.7,203.7 166,208.3 160.7,215.7 155.3,223 182,245.7 193,232 204,218.3 203,214.3 205.3,198.3 207.7,182.3 222,161 228.7,152.7 235.3,144.3 243.2,134.5 225.3,128.7 z">
        <animate attributeName="d" attributeType="XML" repeatCount="indefinite" fill="freeze" dur="0.5s" values="
                    
                     M 229.3,126.7 C 219,122.1 214.3,123.3 203.7,132.3 193,141.3 177.3,157.7 169,180.7 160.7,203.7 156.6,226.8 160.7,235.7 165.5,246.3 182,245.7 193,232 204,218.3 203,214.3 205.3,198.3 207.7,182.3 225,162 231.7,153.7 238.3,145.3 245.3,133.8 229.3,126.7 z;
                    
                                         
                     " />
    </path>

    <path style="fill:#222;stroke:none;fill-rule:nonzero" id="leg2"
        d="M 189.2,225.2 C 187,214.6 182.5,214 178.8,213 171.8,211 170.2,209.3 159.3,217.1 153,221.5 151,224.8 143,235.2 139.2,240.1 124.2,252.6 120.7,258.6 117.8,263.7 104.3,257.8 93.83,266.3 81.75,276 63.89,303.3 57.29,307.4 51.31,311.1 44.58,307.6 44.05,313.3 43.03,324.1 42.76,323.4 39.52,334.1 35.95,345.8 31.12,354.6 31.12,354.6 31.12,354.6 40.29,345.5 46.1,337.8 54.07,327.3 58.59,321.9 62.78,315.5 64.98,312.1 80.56,299.2 104.2,283.7 115.7,276.2 122.4,270.6 130.1,270.1 138.2,269.5 149.6,262.7 154.7,259.7 159.5,256.9 171.9,248.5 179.9,242.4 185.8,237.9 190.7,232.4 189.2,225.2 z">
        <animate attributeName="d" attributeType="XML" repeatCount="indefinite" fill="freeze" dur="1s"
            values="
                    
                     M 189.2,225.2 C 188.3,219.1 182.5,216 178.8,215 171.8,213 162.9,215.1 159,219.9 154.2,225.9 154,233.9 149.3,244.8 146.9,250.5 138.6,286.4 135.1,292.4 132.2,297.5 129.6,289.6 111.5,293.3 96.33,296.4 67.93,306.8 60.07,309.4 53.39,311.6 43.82,306.3 43.29,312 42.27,322.8 42.76,323.4 39.52,334.1 35.95,345.8 31.12,354.6 31.12,354.6 31.12,354.6 40.29,345.5 46.1,337.8 54.07,327.3 58.59,321.9 62.78,315.5 64.98,312.1 84.31,311.7 112.5,313.2 123.3,313.8 133.4,311.9 141,313.3 148.8,314.7 148.6,303.6 153.7,300.6 158.5,297.8 174.2,275.2 179.1,266.4 184.8,256.3 190.3,232.5 189.2,225.2 z;
                    " />
    </path>
    <path style="fill:#222;stroke:none;fill-rule:nonzero" id="bras2"
        d="M 220.4,144 C 220.3,150.5 226,153.3 248.7,158.7 271.3,164 281,164.3 283,162.5 285,160.7 289.3,152 292,135.7 294.7,119.3 293.3,118.3 294.3,115 295.3,111.7 299,99.33 298,94.33 297,89.33 290,80.34 288.7,83.33 287.3,86.33 283,109.3 283.7,117.7 284.3,126 281.3,132 277.7,139.7 271.5,152.8 271.3,150.7 256.7,143.7 225.3,128.7 220.4,140 220.4,144 z">
        <animate attributeName="d" attributeType="XML" repeatCount="indefinite" fill="freeze" dur="1s"
            values="
                     
                     M 217.5,140.5 C 215.2,146.5 218.5,150.9 237.1,164.9 255,178.3 261,179.9 263.6,178.9 266.1,177.9 271.9,173 281.3,159.4 289.1,148 292.8,154.2 294.9,151.5 297.1,148.7 305.8,135.5 306.7,130.4 307.5,125.4 304.1,114.5 301.8,116.8 283.2,137.1 282.4,129.9 279.2,148.8 275.5,153.6 272.6,154.8 268.4,156.6 254.9,162.9 260.1,159.6 251.9,151 245.1,143.6 224.4,123.9 217.5,140.5 z;
                   " />
    </path>
</svg>