<svg version="1.1" xmlns="http://www.w3.org/2000/svg" xmlns:xlink="http://www.w3.org/1999/xlink" x="0px" y="0px" style="max-height:800px;height:90vh;width:100%" viewBox="0 0 400 400" xml:space="preserve">
	<path style="fill:black;stroke:none;fill-rule:nonzero" id="bras1" d="M 217.8,126.9 C 208.4,120.7 202.2,122 190.6,126.9 179,131.9 168.3,136.3 166.1,141.2 163.8,146.1 149.1,175.6 147.3,176.5 145.5,177.4 140.6,181.9 137,187.7 133.5,193.5 129.4,204.2 137,201.9 144.6,199.7 145.1,195.7 149.5,190.8 154,185.9 153.1,182.8 157.6,177.8 162,172.9 168,152.4 175.3,149.3 182.6,146.1 192,141.7 200,142.6 208,143.5 227.2,133.2 217.8,126.9 z">
		<animate attributeName="d" attributeType="XML" repeatCount="indefinite" fill="freeze" dur="1s" values="
                     M 215.3,119 C 209.1,121.1 205.5,125.2 192.8,136 182.3,144.8 177.4,147.8 175.8,156.8 175.3,159.4 175.2,161.2 167,180.2 160.2,195.9 158.4,208.2 157.8,210 154,220.8 146.4,221.8 146,228.8 145.7,233.8 146,238.7 152.3,235.2 165.1,218.1 166.5,235.7 168.5,202.2 169.7,196.2 174.1,190 176.9,186.3 187.2,173 187.7,158.2 204.3,147 222.2,134.9 230.9,114.6 215.3,119 z;
                     " />
	</path>
	<path style="fill:black;stroke:none;fill-rule:nonzero" id="leg1" d="M 198.1,209.3 C 187.3,210 178.3,210.7 178,218 177.7,225.3 185,236.6 200,236.3 215,236 235.3,236.6 245.7,236.3 256,236 257.3,236 256,239 254.7,242 251.3,253.3 250,268.3 248.7,283.3 252.7,303 253.3,310 254,317 251,326.7 261,324.3 271,322 280.7,318.7 289.3,311.7 298,304.7 298.2,301 298.2,301 298.2,301 283,306 276.7,306.7 270.3,307.3 259.5,307 259.3,304.3 259,301.7 258.3,288.3 265.3,269 272.3,249.7 275.7,240.7 277.3,234.7 279,228.7 280.7,222 268,218.7 255.3,215.3 238.4,212 220.4,211 202.3,210 205.3,208.9 198.1,209.3 z">
		<animate attributeName="d" attributeType="XML" repeatCount="indefinite" fill="freeze" dur="1s" values="
                     M 210.5,222.4 C 208,215.3 200.9,215.9 197.2,214.9 190.2,212.9 186.4,213.8 182.5,218.6 177.7,224.6 180.4,226.6 181.7,240 182.7,250.5 183.8,259.1 184.9,269.9 185.5,275.7 179.1,268.5 172.4,266.8 157.3,263.1 145.2,261.8 136.6,259.9 129.7,258.3 127.7,249.2 121.6,256.7 114.7,265.1 113.7,271.1 108.2,278.8 101.1,288.7 95.01,291.5 95.01,291.5 95.01,291.5 105.6,291.8 112.5,285.1 123,274.9 123.3,272.6 131,267.9 134.1,265.9 143.5,269.1 168.6,282.4 183,290 189.1,298.9 196,295.4 200.8,293 203.6,284.3 205.5,278.6 210,265.3 210.3,259.9 211.7,249.9 214.1,231.7 212.9,229.3 210.5,222.4 z;
                     " />
	</path>
	<path style="fill:#111;stroke:none;fill-rule:nonzero" id="tete" d="M 222,128.8 C 226.5,124.3 230,126.6 231.3,122.7 232.7,118.8 228.7,112.5 231.3,102.7 234,92.83 235.7,86.33 244.3,86.33 253,86.33 266.8,90.17 265.3,108.3 263.8,126.5 258.8,128 255,131.2 251.2,134.3 242.7,134.2 240.3,132.2 238,130.2 237.7,126.5 237.7,126.5 237.7,126.5 239.7,132.2 239.3,134.5 239,136.8 234.2,139.5 231.5,138.8 228.8,138.2 220.3,130.5 222,128.8 z">
		<animate attributeName="d" attributeType="XML" repeatCount="indefinite" fill="freeze" dur="0.5s" values="
                     M 218,126.8 C 222.5,122.3 222,125.6 223.3,121.7 224.9,117.1 223.8,111.9 226.3,102.7 229,92.83 234.7,85.33 243.3,85.33 252,85.33 260.3,88.33 260.3,102.8 260.3,119.7 256.4,122.9 252,125.2 246.8,127.8 240.7,129.2 238.3,127.2 236,125.2 235.7,125.5 235.7,125.5 235.7,125.5 230.7,130.2 230.3,132.5 230,134.8 227.2,137.5 224.5,136.8 221.8,136.2 216.3,128.5 218,126.8 z;
                     " />
	</path>
	<path style="fill:#111;stroke:none;fill-rule:nonzero" id="corps" d="M 225.3,128.7 C 214.6,125.2 214.3,123.3 203.7,132.3 193,141.3 177.3,157.7 169,180.7 160.7,203.7 166,208.3 160.7,215.7 155.3,223 182,245.7 193,232 204,218.3 203,214.3 205.3,198.3 207.7,182.3 222,161 228.7,152.7 235.3,144.3 243.2,134.5 225.3,128.7 z">
		<animate attributeName="d" attributeType="XML" repeatCount="indefinite" fill="freeze" dur="0.5s" values="
                     M 221.3,120.7 C 213.4,119.4 206.8,121.3 199.7,131.3 191.6,142.7 184.8,149.5 178,178.7 173.3,199.1 177.1,215.1 179.7,220.7 184.5,231.3 193.5,243.8 203,229 211,216.5 206,205 207.3,193.3 209.2,177.3 214,159 220.7,150.7 227.3,142.3 238.5,123.5 221.3,120.7 z;
                     " />
	</path>
	<path style="fill:#222;stroke:none;fill-rule:nonzero" id="leg2" d="M 189.2,225.2 C 187,214.6 182.5,214 178.8,213 171.8,211 170.2,209.3 159.3,217.1 153,221.5 151,224.8 143,235.2 139.2,240.1 124.2,252.6 120.7,258.6 117.8,263.7 104.3,257.8 93.83,266.3 81.75,276 63.89,303.3 57.29,307.4 51.31,311.1 44.58,307.6 44.05,313.3 43.03,324.1 42.76,323.4 39.52,334.1 35.95,345.8 31.12,354.6 31.12,354.6 31.12,354.6 40.29,345.5 46.1,337.8 54.07,327.3 58.59,321.9 62.78,315.5 64.98,312.1 80.56,299.2 104.2,283.7 115.7,276.2 122.4,270.6 130.1,270.1 138.2,269.5 149.6,262.7 154.7,259.7 159.5,256.9 171.9,248.5 179.9,242.4 185.8,237.9 190.7,232.4 189.2,225.2 z">
		<animate attributeName="d" attributeType="XML" repeatCount="indefinite" fill="freeze" dur="1s" values="
                     M 193.7,204.2 C 183,204.8 180.7,206.7 180.3,214 180,221.3 180.5,226.6 184.7,241 189.3,257.3 191.3,264.7 196.7,282.3 198.5,288.3 195.9,288.1 193,289.7 187.4,292.7 187.4,292.7 181.3,307 175.3,321.2 168.1,335.2 166.4,342.8 164.8,349.7 157.7,350.3 166.5,355.6 175.8,361.2 185.6,365.4 196.7,365.4 211.5,365.4 211,358.8 211,358.8 211,358.8 201.3,357.9 192,355.1 185.9,353.3 175.8,343.6 176.5,341 178,335.3 184.9,322.4 194.9,311.6 205.9,299.9 209.8,291 214.1,286.5 217.6,282.8 215.6,274.3 215,263 214.4,251.3 212.7,243.9 210.3,231.7 207.4,216.8 200.9,203.8 193.7,204.2 z;
                     " />
	</path>
	<path style="fill:#222;stroke:none;fill-rule:nonzero" id="bras2" d="M 220.4,144 C 220.3,150.5 226,153.3 248.7,158.7 271.3,164 281,164.3 283,162.5 285,160.7 289.3,152 292,135.7 294.7,119.3 293.3,118.3 294.3,115 295.3,111.7 299,99.33 298,94.33 297,89.33 290,80.34 288.7,83.33 287.3,86.33 283,109.3 283.7,117.7 284.3,126 281.3,132 277.7,139.7 271.5,152.8 271.3,150.7 256.7,143.7 225.3,128.7 220.4,140 220.4,144 z">
		<animate attributeName="d" attributeType="XML" repeatCount="indefinite" fill="freeze" dur="1s" values="
                     M221.839,124.362c-8.955-6.88-12.366,6.424-16.506,21.971   c-3.242,12.178-3.122,32.129,2.053,33.657c5.173,1.526,34.2,6.306,39.664,6.962c5.95,0.714,7.354,4.548,14.168,4.571   c8.782,0.028,17.704-0.602,22.449-7.19c2.596-3.604-14.699-5.901-20.468-7.776c-6.36-2.067-9.817,0.688-16.354-0.475   c-8.976-1.601-22.131-6.991-27.488-8.708c-1.426-0.458-4.64-0.543,1.976-16.04C228.46,134.636,235.25,134.667,221.839,124.362z;
                     " />
	</path>
</svg>
