<svg width="128" height="128" xmlns="http://www.w3.org/2000/svg">
 <style type="text/css">.st0{fill:#020203;}
	.st1{fill:none;}</style>

 <g>
  <title>background</title>
  <rect fill="none" id="canvas_background" height="402" width="582" y="-1" x="-1"/>
 </g>
 <g>
  <title>Layer 1</title>
  <g stroke="null" id="Page-1">
   <path stroke="null" d="m34.671184,81.153398c4.641787,-0.868639 8.754248,0.312167 11.740193,4.139606c3.270967,4.166751 3.542417,8.672813 0.977218,13.287456c-0.488609,0.814349 -1.031508,1.601552 -1.615125,2.348039c-0.27145,0.366457 -0.461464,0.732914 -0.176442,0.990791l17.332054,1.859429c0.27145,0.027145 0.556472,-0.027145 0.787204,-0.16287l15.621922,-8.889973c1.900147,-1.072226 4.302475,-0.420747 5.388274,1.4794c1.058653,1.859429 0.434319,4.221041 -1.37082,5.320411l-0.10858,0.067862l-17.101322,9.731467c-0.678624,0.380029 -1.452255,0.556472 -2.225886,0.502182l-0.149297,-0.013572l-6.419782,-0.692196l10.84441,7.573443l18.797882,-12.839564c1.302958,-0.895784 3.01309,-0.922928 4.32962,-0.081435l0.122152,0.081435l16.65343,11.333019c0.380029,0.257877 0.895784,0.176442 1.180806,-0.190015l1.343675,-1.710132c1.31653,-1.682987 3.732431,-2.008727 5.442564,-0.746486l0.095007,0.067862c1.574407,1.235095 1.968009,3.420264 0.977218,5.103252l6.501217,0.027145c2.144451,0.013572 3.881729,1.723705 3.936019,3.841011l0,0.122152c-0.013572,2.144451 -1.723705,3.881729 -3.841011,3.936019l-0.122152,0l-55.416427,-0.190015c-0.10858,0 -0.230732,0 -0.339312,-0.013572c-0.013572,0 -0.027145,0 -0.040717,0c-0.040717,0 -0.081435,-0.013572 -0.10858,-0.013572c-0.013572,0 -0.013572,0 -0.027145,0c-0.095007,-0.013572 -0.176442,-0.027145 -0.27145,-0.040717c-0.013572,0 -0.040717,-0.013572 -0.05429,-0.013572c-0.027145,0 -0.05429,-0.013572 -0.081435,-0.013572c-0.013572,0 -0.027145,0 -0.040717,-0.013572c-0.502182,-0.122152 -0.977218,-0.339312 -1.411538,-0.651479l-23.398952,-16.354836l-14.291819,9.514307c-0.542899,0.366457 -1.180806,0.583617 -1.832285,0.651479l-0.149297,0.013572l-21.892407,1.140088c-2.171596,0.10858 -4.031026,-1.560835 -4.153178,-3.732431c-0.10858,-2.144451 1.492973,-3.976736 3.623852,-4.139606l0.122152,-0.013572l20.440152,-1.072226c0.230732,-0.013572 0.461464,-0.081435 0.665051,-0.21716l11.047997,-7.356283c-0.027145,-0.095007 -0.05429,-0.190015 -0.095007,-0.27145c-0.285022,-0.583617 -1.64227,-0.637906 -2.524481,-0.936501c-5.076107,-1.777995 -8.333501,-6.731949 -7.953472,-12.093078c0.257877,-4.967527 4.248186,-9.717894 9.242857,-10.667968zm46.214287,38.437257l16.789155,0.05429l-7.709167,-5.252549c-0.447892,-0.298595 -1.031508,-0.298595 -1.4794,0l-7.600588,5.198259z" class="st0" id="_x37_"/>
  </g>
 </g>
</svg>