<?xml version="1.0" encoding="UTF-8"?>
<svg width="292px" height="108px" viewBox="0 0 292 108" version="1.1" xmlns="http://www.w3.org/2000/svg" xmlns:xlink="http://www.w3.org/1999/xlink">
    <!-- Generator: Sketch 61.1 (89650) - https://sketch.com -->
    <title>7</title>
    <desc>Created with Sketch.</desc>
    <g id="Page-1" stroke="none" stroke-width="1" fill="none" fill-rule="evenodd">
        <path d="M160.84549,-18.7704638 C169.72549,-12.7104638 174.43549,-4.16046378 173.09549,6.81953622 C171.64549,18.8195362 164.83549,26.4895362 153.26549,29.8195362 C151.162074,30.3606794 149.023587,30.7549629 146.86549,30.9995362 C145.81995,31.1544311 144.936358,31.4472825 144.985849,32.2961746 L169.910175,63.2249556 C170.304994,63.7148924 170.843868,64.0682853 171.450563,64.2351403 L210.951152,75.0987009 C215.743775,76.4167528 218.560471,81.3704333 217.242419,86.1630561 C215.948776,90.8669267 211.15291,93.6673755 206.444463,92.5233083 L206.178064,92.4543234 L162.944268,80.5643025 C161.237889,80.0950197 159.710345,79.1338621 158.550093,77.8044213 L158.322995,77.5336593 L149.092321,66.078 L154.363321,95.746 L205.346255,105.343404 C208.880378,106.008693 211.668567,108.710298 212.458558,112.198105 L212.523046,112.507861 L221.096113,157.621773 C221.292759,158.656581 222.258303,159.361507 223.303833,159.233589 L228.224243,158.631593 C233.064929,158.039378 237.477402,161.407288 238.212266,166.194333 L238.250558,166.472065 C238.804337,170.998571 235.895363,175.150646 231.601285,176.271413 L242.041473,186.783097 C245.481462,190.246978 245.523868,195.805585 242.183009,199.321231 L241.99805,199.51159 C238.533544,202.950932 232.974937,202.993337 229.459291,199.652479 L229.26958,199.466895 L140.280473,109.8601 C140.098251,109.680671 139.923955,109.493778 139.758002,109.300032 C139.740356,109.278969 139.722568,109.258035 139.704881,109.237026 C139.648461,109.170347 139.593154,109.102603 139.538849,109.034086 C139.527169,109.019147 139.515634,109.004511 139.504146,108.989842 C139.378443,108.829387 139.258147,108.664461 139.143552,108.49566 C139.118368,108.45857 139.093508,108.421353 139.068931,108.38396 C139.032548,108.328629 138.996642,108.272683 138.961354,108.216344 C138.946529,108.192582 138.932066,108.169238 138.917711,108.14583 C138.301991,107.14271 137.880792,106.017387 137.695323,104.830323 L126.308321,40.74 L87.9570669,33.0378266 C86.4883471,32.7427848 85.1183414,32.0861899 83.9700015,31.1298064 L83.7089909,30.9038089 L46.5837808,-2.50822693 C42.8891583,-5.83332219 42.5895973,-11.5239278 45.9146926,-15.2185503 C49.1804111,-18.8471974 54.7279118,-19.2009527 58.4252052,-16.0623026 L58.625016,-15.8876386 L93.3079303,15.3252957 C93.7076277,15.6850039 94.1966597,15.9306705 94.7238501,16.0365869 L124.376415,21.9952892 C124.490302,21.8066177 124.584475,21.611658 124.65549,21.4095362 C125.14549,20.0195362 123.03549,17.7195362 122.09549,15.8195362 C116.789289,4.77824645 119.515498,-8.44755372 128.75549,-16.4904638 C137.19549,-24.0604638 151.27549,-25.3004638 160.84549,-18.7704638 Z M173.375321,117.64 L200.334321,144.786 L196.367192,123.906019 C196.136822,122.693693 195.187585,121.746103 193.974862,121.517838 L173.375321,117.64 Z" id="7" fill="#000000" fill-rule="nonzero" transform="translate(144.129924, 89.562537) rotate(-45.000000) translate(-144.129924, -89.562537) "></path>
    </g>
</svg>