<?xml version="1.0" encoding="utf-8"?>
<!-- Generator: Adobe Illustrator 24.0.3, SVG Export Plug-In . SVG Version: 6.00 Build 0)  -->
<svg version="1.1" id="Layer_1" xmlns="http://www.w3.org/2000/svg" xmlns:xlink="http://www.w3.org/1999/xlink" x="0px" y="0px"
	 viewBox="0 0 128 128" style="enable-background:new 0 0 128 128;" xml:space="preserve">
<style type="text/css">
	.st0{fill:#020203;}
	.st1{fill:none;}
</style>
<g id="Page-1">
	<path id="_x37_" class="st0" d="M43.01,70.26c3.42-0.64,6.45,0.23,8.65,3.05c2.41,3.07,2.61,6.39,0.72,9.79
		c-0.36,0.6-0.76,1.18-1.19,1.73c-0.2,0.27-0.34,0.54-0.13,0.73l12.77,1.37c0.2,0.02,0.41-0.02,0.58-0.12l11.51-6.55
		c1.4-0.79,3.17-0.31,3.97,1.09c0.78,1.37,0.32,3.11-1.01,3.92l-0.08,0.05l-12.6,7.17c-0.5,0.28-1.07,0.41-1.64,0.37l-0.11-0.01
		l-4.73-0.51l7.99,5.58l13.85-9.46c0.96-0.66,2.22-0.68,3.19-0.06l0.09,0.06l12.27,8.35c0.28,0.19,0.66,0.13,0.87-0.14l0.99-1.26
		c0.97-1.24,2.75-1.48,4.01-0.55l0.07,0.05c1.16,0.91,1.45,2.52,0.72,3.76l4.79,0.02c1.58,0.01,2.86,1.27,2.9,2.83l0,0.09
		c-0.01,1.58-1.27,2.86-2.83,2.9l-0.09,0l-40.83-0.14c-0.08,0-0.17,0-0.25-0.01c-0.01,0-0.02,0-0.03,0c-0.03,0-0.06-0.01-0.08-0.01
		c-0.01,0-0.01,0-0.02,0c-0.07-0.01-0.13-0.02-0.2-0.03c-0.01,0-0.03-0.01-0.04-0.01c-0.02,0-0.04-0.01-0.06-0.01
		c-0.01,0-0.02,0-0.03-0.01c-0.37-0.09-0.72-0.25-1.04-0.48L48.72,91.76l-10.53,7.01c-0.4,0.27-0.87,0.43-1.35,0.48l-0.11,0.01
		L20.6,100.1c-1.6,0.08-2.97-1.15-3.06-2.75c-0.08-1.58,1.1-2.93,2.67-3.05l0.09-0.01l15.06-0.79c0.17-0.01,0.34-0.06,0.49-0.16
		l8.14-5.42c-0.02-0.07-0.04-0.14-0.07-0.2c-0.21-0.43-1.21-0.47-1.86-0.69c-3.74-1.31-6.14-4.96-5.86-8.91
		C36.39,74.46,39.33,70.96,43.01,70.26z M77.06,98.58l12.37,0.04l-5.68-3.87c-0.33-0.22-0.76-0.22-1.09,0L77.06,98.58z"/>
</g>
</svg>
