<svg id="Layer" enable-background="new 0 0 64 64" height="512" viewBox="0 0 64 64" width="512" xmlns="http://www.w3.org/2000/svg"><path d="m54 40h-2v-14h2c1.104 0 2-.896 2-2s-.896-2-2-2h-2v-5c0-4.962-4.037-9-9-9s-9 4.038-9 9v5h-4v-5c0-4.962-4.037-9-9-9s-9 4.038-9 9v5h-2c-1.104 0-2 .896-2 2s.896 2 2 2h2v14h-2c-1.104 0-2 .896-2 2s.896 2 2 2h2v10c0 1.104.896 2 2 2h14c1.104 0 2-.896 2-2v-10h4v10c0 1.104.896 2 2 2h14c1.104 0 2-.896 2-2v-10h2c1.104 0 2-.896 2-2s-.896-2-2-2zm-28 12h-10v-35c0-2.757 2.243-5 5-5s5 2.243 5 5zm4-12v-14h4v14zm18 12h-10v-35c0-2.757 2.243-5 5-5s5 2.243 5 5z"/><path d="m21 21c-1.104 0-2 .896-2 2v2c0 1.104.896 2 2 2s2-.896 2-2v-2c0-1.104-.896-2-2-2z"/><path d="m43 21c-1.104 0-2 .896-2 2v2c0 1.104.896 2 2 2s2-.896 2-2v-2c0-1.104-.896-2-2-2z"/><path d="m21 39c-1.104 0-2 .896-2 2v2c0 1.104.896 2 2 2s2-.896 2-2v-2c0-1.104-.896-2-2-2z"/><path d="m43 39c-1.104 0-2 .896-2 2v2c0 1.104.896 2 2 2s2-.896 2-2v-2c0-1.104-.896-2-2-2z"/></svg>